<svg width="198" height="218" viewBox="0 0 198 218" fill="none" xmlns="http://www.w3.org/2000/svg">
<path d="M0.137939 192.353L24.7932 192.226L49.4537 192.178L98.7642 192.088L148.075 192.178L172.735 192.226L197.39 192.353L172.735 192.48L148.075 192.528L98.7642 192.618L49.4537 192.528L24.7932 192.48L0.137939 192.353Z" fill="#263238"/>
<path d="M68.5574 2.0625H0V53.5469H68.5574V2.0625Z" fill="#DBDBDB"/>
<path d="M64.1301 6.0498H4.422V49.5597H64.1301V6.0498Z" fill="#EBEBEB"/>
<path d="M26.5746 12.2906H12.1632V43.8918H26.5746V12.2906Z" fill="white"/>
<path d="M56.3889 12.2906H31.3519V29.3796H56.3889V12.2906Z" fill="white"/>
<path d="M43.144 32.0995H31.3519V43.8916H43.144V32.0995Z" fill="white"/>
<path d="M56.3888 32.0995H48.1598V43.8916H56.3888V32.0995Z" fill="white"/>
<path d="M26.5959 25.9279C30.3617 25.9279 33.4145 22.8751 33.4145 19.1093C33.4145 15.3435 30.3617 12.2906 26.5959 12.2906C22.83 12.2906 19.7772 15.3435 19.7772 19.1093C19.7772 22.8751 22.83 25.9279 26.5959 25.9279Z" fill="#DBDBDB"/>
<path d="M31.3519 43.8917H51.4526V23.791L31.3519 43.8917Z" fill="#DBDBDB"/>
<path d="M197.39 0H126.86V108.144H197.39V0Z" fill="#EBEBEB"/>
<path d="M160.487 4.33191H130.705V52.4335H160.487V4.33191Z" fill="white"/>
<path d="M193.546 4.33191H163.764V52.4335H193.546V4.33191Z" fill="white"/>
<path d="M160.487 55.705H130.705V103.807H160.487V55.705Z" fill="white"/>
<path d="M193.546 55.705H163.764V103.807H193.546V55.705Z" fill="white"/>
<path d="M170.042 0H197.39V154.713H181.558L192.608 75.9858L170.042 0Z" fill="#DBDBDB"/>
<path d="M174.782 4.1781L179.363 22.0995L183.864 40.0422L192.867 75.9222L192.878 75.9699L192.873 76.0176L188.615 113.541L186.484 132.3L184.273 151.054L186.224 132.274L188.265 113.499L192.348 75.9593L192.353 76.0494L183.525 40.127L179.114 22.1632L174.782 4.1781Z" fill="#EBEBEB"/>
<path d="M195.763 7.35413L195.89 22.8684L195.964 38.3879L196.028 69.4164L195.964 100.45L195.895 115.964L195.763 131.484L195.63 115.964L195.561 100.45L195.497 69.4164L195.561 38.3879L195.635 22.8684L195.763 7.35413Z" fill="#EBEBEB"/>
<path d="M190.651 10.2598L191.743 26.739L192.761 43.2235L194.782 76.1873C194.649 82.3114 194.442 88.4354 194.278 94.5594L193.748 112.926L193.217 131.298L192.613 149.686L192.963 131.314L193.392 112.942L193.827 94.5701C193.976 88.446 194.092 82.3167 194.278 76.1979L192.422 43.2182L191.499 26.7549L190.651 10.2598Z" fill="#EBEBEB"/>
<path d="M187.093 147.332L188.605 129.506L190.195 111.686C191.293 99.8086 192.343 87.9264 193.472 76.0548V76.1237L188.536 48.372L186.102 34.4908L183.711 20.6044L186.325 34.4537L188.901 48.2819L193.976 76.0071V76.076C192.915 87.9529 191.749 99.8245 190.641 111.701L188.901 129.506L187.093 147.332Z" fill="#EBEBEB"/>
<path d="M197.39 74.6868H191.213V78.2923H197.39V74.6868Z" fill="#DBDBDB"/>
<path d="M143.568 0H126.86V154.718H143.568V0Z" fill="#DBDBDB"/>
<path d="M140.397 7.35413L140.53 24.0826L140.577 40.811L140.662 74.2679L140.577 107.725L140.53 124.453L140.397 141.182L140.27 124.453L140.222 107.725L140.137 74.2679L140.222 40.811L140.27 24.0826L140.397 7.35413Z" fill="#EBEBEB"/>
<path d="M132.73 11.2301L132.857 26.1717L132.931 41.108L132.995 70.9806L132.931 100.853L132.857 115.789L132.73 130.731L132.597 115.789L132.523 100.853L132.465 70.9806L132.528 41.108L132.597 26.1717L132.73 11.2301Z" fill="#EBEBEB"/>
<path d="M136.563 14.7614L136.696 32.248L136.738 49.74L136.829 84.7186L136.738 119.697L136.696 137.189L136.563 154.681L136.436 137.189L136.388 119.697L136.298 84.7186L136.388 49.74L136.436 32.248L136.563 14.7614Z" fill="#EBEBEB"/>
<path d="M129.877 8.23438L130.005 26.5429L130.052 44.8461L130.143 81.4578L130.052 118.069L130.005 136.373L129.877 154.681L129.745 136.373L129.702 118.069L129.612 81.4578L129.702 44.8461L129.75 26.5429L129.877 8.23438Z" fill="#EBEBEB"/>
<path d="M37.7463 63.181H16.5004V77.7197H37.7463V63.181Z" fill="#EBEBEB"/>
<path d="M16.5004 64.2467C18.3296 65.2754 20.1324 66.3676 21.9245 67.428C22.8259 67.9583 23.7061 68.5256 24.5756 69.077L27.2267 70.7366H26.9404L29.5915 69.077C30.4823 68.5468 31.3624 67.9636 32.2426 67.428L34.9414 65.8109C35.8481 65.2807 36.7495 64.7504 37.6668 64.2202C36.8131 64.83 35.9382 65.4132 35.0793 66.0071L32.5501 67.7992C31.6806 68.3877 30.7898 68.9392 29.899 69.5118L27.2479 71.2138L27.1048 71.304L26.9616 71.2138L24.3105 69.5118C23.4303 68.9392 22.5449 68.3877 21.6594 67.7992C19.9574 66.6221 18.213 65.4609 16.5004 64.2467Z" fill="white"/>
<path d="M16.5801 75.1323C17.8631 74.0087 19.2104 72.9606 20.6151 71.9934C22.0062 71.0057 23.4545 70.101 24.9523 69.2839C23.6706 70.4109 22.3232 71.4608 20.9173 72.4281C19.526 73.4141 18.0778 74.317 16.5801 75.1323Z" fill="white"/>
<path d="M37.6988 75.1323C36.2018 74.3158 34.7536 73.4129 33.3616 72.4281C31.9564 71.462 30.6107 70.4121 29.3319 69.2839C30.828 70.101 32.2744 71.0057 33.6638 71.9934C35.0704 72.958 36.4178 74.0062 37.6988 75.1323Z" fill="white"/>
<path d="M16.7656 58.3772H16.2354V60.1322H16.7656V58.3772Z" fill="#DBDBDB"/>
<path d="M13.157 59.6513L12.7821 60.0262L14.0231 61.2672L14.398 60.8923L13.157 59.6513Z" fill="#DBDBDB"/>
<path d="M13.2608 63.1068H11.5057V63.637H13.2608V63.1068Z" fill="#DBDBDB"/>
<path d="M14.0274 65.479L12.7864 66.72L13.1613 67.0949L14.4023 65.8539L14.0274 65.479Z" fill="#DBDBDB"/>
<path d="M16.7656 66.6168H16.2354V68.3718H16.7656V66.6168Z" fill="#DBDBDB"/>
<path d="M18.9853 65.4783L18.6104 65.8533L19.8513 67.0943L20.2263 66.7193L18.9853 65.4783Z" fill="#DBDBDB"/>
<path d="M21.5005 63.1068H19.7455V63.637H21.5005V63.1068Z" fill="#DBDBDB"/>
<path d="M19.8455 59.6545L18.6045 60.8955L18.9794 61.2704L20.2204 60.0294L19.8455 59.6545Z" fill="#DBDBDB"/>
<path d="M101.108 218C148.268 218 186.5 213.373 186.5 207.666C186.5 201.959 148.268 197.332 101.108 197.332C53.947 197.332 15.7157 201.959 15.7157 207.666C15.7157 213.373 53.947 218 101.108 218Z" fill="#EBEBEB"/>
<path d="M144.077 171.303H112.02V173.424H144.077V171.303Z" fill="#455A64"/>
<path d="M114.427 97.5181L114.273 107.566L113.297 171.303L113.266 173.424L112.836 201.383H111.203L110.774 173.424L110.742 171.303L109.766 107.566L109.612 97.5181H114.427Z" fill="#455A64"/>
<path d="M109.612 97.5181H114.427L114.273 107.566H109.766L109.612 97.5181Z" fill="#263238"/>
<path d="M146.478 97.5181L146.325 107.566L144.888 201.383H143.255L142.825 173.424L142.793 171.303L141.818 107.566L141.664 97.5181H146.478Z" fill="#455A64"/>
<path d="M146.478 97.5181L146.325 107.566H141.818L141.664 97.5181H146.478Z" fill="#263238"/>
<path d="M129.124 171.303H97.0674V173.424H129.124V171.303Z" fill="#37474F"/>
<path d="M99.4746 97.5181L99.3208 107.566L98.3452 171.303L98.3134 173.424L97.8839 201.383H96.2508L94.8139 107.566L94.6602 97.5181H99.4746Z" fill="#37474F"/>
<path d="M94.6602 97.5181H99.4746L99.3208 107.566H94.8139L94.6602 97.5181Z" fill="#263238"/>
<path d="M131.532 97.5181L131.378 107.566L130.402 171.303L130.37 173.424L129.941 201.383H128.308L127.878 173.424L127.847 171.303L126.871 107.566L126.717 97.5181H131.532Z" fill="#37474F"/>
<path d="M126.717 97.5181H131.532L131.378 107.566H126.871L126.717 97.5181Z" fill="#263238"/>
<path d="M148.981 92.8416H92.7461V98.3452H148.981V92.8416Z" fill="#FFC727"/>
<path opacity="0.1" d="M138.016 92.8416H92.7461V98.3452H138.016V92.8416Z" fill="#263238"/>
<path d="M152.56 44.3901L148.971 92.8416H115.429L115.127 88.1916L112.226 43.9766L148.064 44.3424L152.56 44.3901Z" fill="#FFC727"/>
<path opacity="0.1" d="M148.064 44.3424L145.598 92.8416H115.429L115.127 88.1916L112.226 43.9766L148.064 44.3424Z" fill="#263238"/>
<path d="M149.315 88.1915L148.971 92.8416H115.429L115.127 88.1915H149.315Z" fill="#263238"/>
<path d="M108.69 18.0647C102.104 25.0848 101.495 42.3593 110.54 53.5523C118.197 63.0273 135.01 64.1143 141.924 57.9319C149.262 51.3731 148.059 40.8376 141.876 36.7231C135.906 32.7518 129.056 33.6107 125.365 29.2735C123.594 27.195 122.762 22.6617 120.286 19.4804C117.523 15.9385 112.062 14.4645 108.69 18.0647Z" fill="#263238"/>
<path d="M116.601 44.6126C114.888 55.9646 113.382 64.761 110.477 67.2265C108.133 69.1989 104.703 70.7949 101.129 72.0515C97.3024 73.3443 93.3951 74.384 89.4322 75.1639C88.2127 75.4131 87.1946 75.5987 86.4735 75.7365C84.6867 76.0653 80.3283 64.5277 81.4312 62.9264C81.6857 62.5606 82.8415 62.1629 84.4799 61.7546C89.9995 60.3867 101.012 58.9127 101.595 58.2075C102.179 57.5023 105.196 52.3432 109.284 45.5829C112.104 40.9117 114.681 39.3316 115.938 40.3868C116.643 40.9859 116.929 42.4228 116.601 44.6126Z" fill="#EB9481"/>
<path d="M89.4321 75.164C87.6589 76.2245 85.8167 77.165 83.9179 77.9794C82.3908 78.5627 77.9529 80.1003 77.1469 78.5097C76.6167 77.4068 79.0981 76.1873 80.8585 75.2859C81.7811 74.8087 82.8786 73.6953 82.5446 73.1226C81.9666 72.0622 79.5966 73.3665 78.0589 74.4376C75.0844 76.5054 71.1661 80.1162 69.1512 78.6793C68.3824 78.1491 69.1512 76.9773 70.2647 75.8108C68.3824 77.2212 66.3411 78.4142 65.4927 77.8469C65.2685 77.7008 65.1079 77.4753 65.043 77.2157C64.9781 76.9561 65.0137 76.6815 65.1428 76.4471C64.9016 76.5845 64.6249 76.6467 64.3482 76.626C64.0714 76.6052 63.8072 76.5023 63.5892 76.3305C62.8893 75.7048 63.1226 74.6815 63.743 73.5998C63.6213 73.5972 63.5019 73.5655 63.3949 73.5074C63.2879 73.4493 63.1964 73.3665 63.1279 73.2658C61.585 71.2881 67.9476 64.7398 70.2753 63.9869C77.1098 61.76 84.5912 61.76 84.5912 61.76C87.4332 63.7218 89.4374 75.1587 89.4321 75.164Z" fill="#EB9481"/>
<path d="M78.6528 69.5013C77.0103 69.882 75.4728 70.6227 74.1513 71.6699C72.6136 72.9212 71.4471 74.549 70.0474 75.9116C70.0439 75.9154 70.0412 75.9199 70.0394 75.9248C70.0377 75.9297 70.0369 75.9348 70.0372 75.94C70.0374 75.9452 70.0387 75.9502 70.0409 75.9549C70.0431 75.9596 70.0462 75.9638 70.05 75.9673C70.0538 75.9708 70.0583 75.9735 70.0632 75.9752C70.0681 75.977 70.0732 75.9777 70.0784 75.9775C70.0836 75.9772 70.0886 75.976 70.0933 75.9738C70.098 75.9716 70.1022 75.9685 70.1057 75.9646C70.7579 75.2541 71.4896 74.6073 72.1735 73.9233C72.8575 73.2393 73.4885 72.5606 74.199 71.9403C75.4829 70.7992 77.0096 69.9652 78.6634 69.5013C78.6634 69.5013 78.6687 69.496 78.6528 69.5013Z" fill="#263238"/>
<path d="M77.1151 66.6487C75.2879 67.2409 73.5256 68.0173 71.8553 68.9657C70.0738 70.0633 68.743 71.7282 67.4333 73.3347C66.6415 74.2962 65.8762 75.2753 65.1375 76.2722C65.1056 76.3146 65.1375 76.3729 65.1958 76.3305C66.5213 74.6762 67.8981 73.0626 69.3262 71.4896C70.6396 70.0218 72.2309 68.8288 74.008 67.9795C75.0208 67.4917 76.0759 67.0887 77.1204 66.6805C77.1416 66.6752 77.131 66.6434 77.1151 66.6487Z" fill="#263238"/>
<path d="M74.9466 64.2255C73.1969 64.7557 71.6698 65.1746 70.1746 66.2563C68.5019 67.5755 67.0003 69.0984 65.7049 70.7896C64.9944 71.6857 64.3104 72.6083 63.6423 73.5362C63.6158 73.5733 63.6794 73.621 63.7112 73.5839C65.2463 71.5338 66.913 69.5856 68.7006 67.7515C69.5366 66.8654 70.5063 66.1158 71.5744 65.5299C72.6612 64.9986 73.7911 64.5605 74.9519 64.2202C74.9519 64.2202 74.9519 64.2202 74.9466 64.2255Z" fill="#263238"/>
<path d="M116.601 44.6127C114.888 55.9647 113.382 64.7611 110.477 67.2266C108.133 69.199 104.702 70.795 101.129 72.0516L115.938 40.3868C116.643 40.986 116.929 42.4229 116.601 44.6127Z" fill="#263238"/>
<path d="M117.322 42.6509C117.322 42.8258 117.322 43.0114 117.322 43.1811C117.322 43.3508 117.322 43.478 117.29 43.6371C117.049 46.471 116.583 49.2812 115.896 52.0411H115.429H114.973L111.261 52.163H110.731L107.052 52.285H106.58L105.228 52.3274L104.167 52.3645C104.167 52.3645 107.879 45.2489 112.12 40.9542C112.517 40.5427 112.966 40.186 113.457 39.8937C115.376 38.8704 117.285 39.4748 117.322 42.6509Z" fill="#FFC727"/>
<path d="M115.212 40.1429C115.364 40.1429 115.487 40.0194 115.487 39.8671C115.487 39.7149 115.364 39.5914 115.212 39.5914C115.059 39.5914 114.936 39.7149 114.936 39.8671C114.936 40.0194 115.059 40.1429 115.212 40.1429Z" fill="white"/>
<path d="M111.288 46.0602C111.288 46.1149 111.272 46.1685 111.241 46.2139C111.21 46.2594 111.167 46.2947 111.116 46.3154C111.066 46.3361 111.01 46.3412 110.956 46.3302C110.903 46.3191 110.854 46.2923 110.815 46.2532C110.777 46.2141 110.751 46.1645 110.741 46.1107C110.731 46.0568 110.737 46.0012 110.759 45.951C110.781 45.9007 110.817 45.858 110.863 45.8283C110.909 45.7987 110.963 45.7834 111.017 45.7845C111.053 45.7845 111.089 45.7916 111.122 45.8056C111.155 45.8195 111.185 45.8399 111.211 45.8655C111.236 45.8912 111.256 45.9217 111.269 45.9551C111.282 45.9885 111.289 46.0242 111.288 46.0602Z" fill="white"/>
<path d="M115.212 46.3254C115.364 46.3254 115.487 46.2019 115.487 46.0496C115.487 45.8974 115.364 45.7739 115.212 45.7739C115.059 45.7739 114.936 45.8974 114.936 46.0496C114.936 46.2019 115.059 46.3254 115.212 46.3254Z" fill="white"/>
<path d="M113.112 43.1972C113.264 43.1972 113.387 43.0737 113.387 42.9215C113.387 42.7692 113.264 42.6458 113.112 42.6458C112.959 42.6458 112.836 42.7692 112.836 42.9215C112.836 43.0737 112.959 43.1972 113.112 43.1972Z" fill="white"/>
<path d="M117.322 42.6509C117.322 42.8258 117.322 43.0114 117.322 43.1811C117.281 43.1928 117.238 43.1948 117.196 43.187C117.154 43.1792 117.114 43.1618 117.08 43.1361C117.046 43.1104 117.018 43.0771 116.999 43.0389C116.98 43.0007 116.97 42.9587 116.97 42.916C116.97 42.8733 116.98 42.8312 116.999 42.793C117.018 42.7548 117.046 42.7216 117.08 42.6959C117.114 42.6702 117.154 42.6527 117.196 42.6449C117.238 42.6371 117.281 42.6391 117.322 42.6509Z" fill="white"/>
<path d="M107.094 52.2268C107.095 52.2712 107.084 52.3151 107.062 52.354H106.59C106.563 52.3113 106.548 52.2617 106.548 52.2109C106.564 52.1532 106.599 52.1026 106.647 52.0665C106.695 52.0304 106.753 52.0109 106.813 52.0109C106.873 52.0109 106.931 52.0304 106.979 52.0665C107.027 52.1026 107.061 52.1532 107.078 52.2109L107.094 52.2268Z" fill="white"/>
<path d="M111.288 52.2109H110.758C110.774 52.1532 110.809 52.1026 110.857 52.0665C110.905 52.0304 110.963 52.0109 111.023 52.0109C111.083 52.0109 111.141 52.0304 111.189 52.0665C111.237 52.1026 111.271 52.1532 111.288 52.2109Z" fill="white"/>
<path d="M115.434 52.0727H114.978C115.002 52.0323 115.036 51.9987 115.077 51.9755C115.118 51.9522 115.165 51.9401 115.212 51.9402C115.257 51.9423 115.301 51.9556 115.339 51.9787C115.378 52.0018 115.411 52.0341 115.434 52.0727Z" fill="white"/>
<path d="M108.918 49.3793C109.07 49.3793 109.194 49.2559 109.194 49.1036C109.194 48.9513 109.07 48.8279 108.918 48.8279C108.766 48.8279 108.642 48.9513 108.642 49.1036C108.642 49.2559 108.766 49.3793 108.918 49.3793Z" fill="white"/>
<path d="M113.112 49.3793C113.264 49.3793 113.387 49.2559 113.387 49.1036C113.387 48.9513 113.264 48.8279 113.112 48.8279C112.959 48.8279 112.836 48.9513 112.836 49.1036C112.836 49.2559 112.959 49.3793 113.112 49.3793Z" fill="white"/>
<path d="M117.322 42.651C117.322 42.826 117.322 43.0115 117.322 43.1812C117.322 43.3509 117.322 43.4781 117.29 43.6372C117.049 46.4711 116.583 49.2813 115.896 52.0412H115.429H114.973L111.261 52.1631H110.731L107.051 52.2851H106.58L105.228 52.3275L113.43 39.9044C115.376 38.8705 117.285 39.475 117.322 42.651Z" fill="#263238"/>
<path d="M91.1024 178.721C92.4121 178.499 124.225 161.489 125.036 160.073C125.344 159.543 123.138 154.771 120.307 149.061C119.692 147.831 119.056 146.563 118.398 145.28C114.156 136.945 109.448 128.202 109.448 128.202L88.1332 139.522L97.6771 156.288L99.7662 159.973C99.7662 159.973 90.4927 171.934 89.7769 173.578C89.0611 175.222 89.7928 178.944 91.1024 178.721Z" fill="#EB9481"/>
<path d="M91.1025 178.721C92.4121 178.499 124.225 161.489 125.037 160.073C125.408 159.416 122.073 152.502 118.398 145.28L97.6719 156.288L99.761 159.973C99.761 159.973 90.4927 171.934 89.7769 173.578C89.0611 175.222 89.7928 178.944 91.1025 178.721Z" fill="white"/>
<path d="M91.1025 178.721C92.4121 178.499 124.225 161.489 125.037 160.073C125.344 159.543 123.138 154.771 120.307 149.061L99.761 159.973C99.761 159.973 90.4927 171.934 89.7769 173.578C89.0611 175.222 89.7928 178.944 91.1025 178.721Z" fill="#FFC727"/>
<path d="M90.8796 177.205C96.1447 174.225 117.65 162.688 123.08 160.142C123.122 160.142 123.138 160.142 123.08 160.174C117.931 163.244 96.3303 174.602 90.9114 177.295C90.8107 177.348 90.7683 177.269 90.8796 177.205Z" fill="#263238"/>
<path d="M91.2084 171.341C91.7929 171.008 92.4403 170.8 93.1093 170.73C93.7784 170.661 94.4546 170.732 95.0949 170.938C96.252 171.295 97.2252 172.088 97.8097 173.149C97.8097 173.18 97.7673 173.212 97.746 173.18C97.0004 172.221 95.9635 171.53 94.7913 171.21C93.619 170.891 92.3747 170.961 91.2455 171.409C91.2031 171.425 91.166 171.367 91.2084 171.341Z" fill="#263238"/>
<path d="M97.9741 161.606C100.095 160.434 102.969 159.867 105.228 160.901C105.318 160.943 105.259 161.065 105.175 161.07C102.786 161.09 100.406 161.364 98.0749 161.887C98.0376 161.9 97.9966 161.898 97.9608 161.881C97.925 161.864 97.8974 161.834 97.884 161.797C97.8706 161.759 97.8726 161.718 97.8895 161.682C97.9064 161.647 97.9369 161.619 97.9741 161.606Z" fill="#263238"/>
<path d="M96.6698 163.133C98.7907 161.961 101.664 161.388 103.923 162.428C104.013 162.465 103.955 162.592 103.87 162.592C101.481 162.611 99.1009 162.886 96.7706 163.414C96.7521 163.42 96.7325 163.423 96.713 163.422C96.6934 163.421 96.6742 163.417 96.6565 163.408C96.6387 163.4 96.6228 163.388 96.6096 163.374C96.5965 163.359 96.5863 163.342 96.5797 163.324C96.5731 163.305 96.5701 163.286 96.5711 163.266C96.572 163.246 96.5768 163.227 96.5852 163.209C96.5936 163.192 96.6054 163.176 96.6199 163.163C96.6344 163.15 96.6514 163.139 96.6698 163.133Z" fill="#263238"/>
<path d="M95.3654 164.655C97.4863 163.483 100.36 162.915 102.619 163.949C102.709 163.992 102.651 164.114 102.566 164.114C100.177 164.133 97.7965 164.408 95.4661 164.936C95.4289 164.949 95.3878 164.947 95.352 164.93C95.3162 164.913 95.2886 164.883 95.2752 164.845C95.2619 164.808 95.2639 164.767 95.2808 164.731C95.2977 164.695 95.3281 164.668 95.3654 164.655Z" fill="#263238"/>
<path d="M94.0609 166.176C96.1818 165.004 99.0556 164.437 101.314 165.471C101.404 165.513 101.346 165.635 101.261 165.641C98.8722 165.66 96.492 165.936 94.1616 166.463C94.1257 166.469 94.0887 166.462 94.0571 166.444C94.0256 166.426 94.0017 166.397 93.9896 166.362C93.9774 166.328 93.978 166.29 93.991 166.256C94.0041 166.222 94.0289 166.194 94.0609 166.176Z" fill="#263238"/>
<path d="M119.013 155.816C121.41 154.543 123.393 158.271 120.991 159.527C118.589 160.784 116.611 157.078 119.013 155.816Z" fill="#263238"/>
<path d="M94.464 160.185C96.4099 161.054 98.6633 161.049 100.747 161.288C100.794 161.29 100.84 161.28 100.882 161.261C100.925 161.241 100.962 161.212 100.99 161.175C101.019 161.138 101.038 161.095 101.047 161.049C101.055 161.003 101.052 160.956 101.039 160.911C101.048 160.908 101.056 160.903 101.063 160.896C101.07 160.889 101.075 160.88 101.078 160.871C101.081 160.862 101.082 160.852 101.081 160.843C101.079 160.833 101.076 160.824 101.071 160.816C99.8665 158.942 98.1917 157.417 96.2137 156.394C95.0525 155.821 93.2233 155.673 92.6188 157.147C92.0144 158.621 93.324 159.676 94.464 160.185ZM93.4036 158.467C92.3749 156.033 95.4237 156.696 96.2614 157.152C96.8021 157.457 97.3212 157.799 97.815 158.175C98.8489 158.939 99.7556 159.835 100.705 160.694C99.692 160.513 98.6686 160.423 97.6506 160.28C96.447 160.11 93.9921 159.808 93.4195 158.467H93.4036Z" fill="#263238"/>
<path d="M107.926 155.397C107.014 154.093 105.275 154.644 104.252 155.46C102.549 156.896 101.253 158.754 100.493 160.848C100.489 160.857 100.488 160.866 100.489 160.876C100.49 160.885 100.493 160.895 100.499 160.903C100.504 160.911 100.511 160.918 100.519 160.923C100.527 160.928 100.536 160.931 100.546 160.932C100.544 160.979 100.552 161.026 100.571 161.068C100.59 161.111 100.619 161.149 100.655 161.178C100.691 161.208 100.733 161.229 100.779 161.24C100.824 161.251 100.871 161.251 100.917 161.24C102.895 160.545 105.095 160.047 106.797 158.769C107.778 158.021 108.785 156.632 107.926 155.397ZM103.685 159.575C102.72 159.941 101.744 160.254 100.79 160.635C101.527 159.575 102.216 158.515 103.059 157.539C103.456 157.064 103.885 156.616 104.342 156.198C105.058 155.567 107.889 154.246 107.423 156.85C107.179 158.302 104.846 159.14 103.7 159.575H103.685Z" fill="#263238"/>
<path d="M103.006 109.156C103.536 115.365 117.82 142.56 117.82 142.56L99.045 151.972L95.2858 153.859C95.2858 153.859 77.9105 123.228 78.8489 109.443C79.6496 97.746 99.8987 83.0059 112.354 68.6157H129.14C123.838 84.9306 104.411 102.942 103.053 108.441C103.003 108.676 102.987 108.917 103.006 109.156Z" fill="#455A64"/>
<path d="M95.2647 149.342C98.9763 147.364 97.8681 147.884 101.58 145.948C103.398 144.999 112.518 140.222 114.358 139.618C114.367 139.615 114.377 139.616 114.386 139.62C114.395 139.624 114.402 139.631 114.407 139.64C114.411 139.648 114.412 139.658 114.41 139.668C114.408 139.677 114.403 139.686 114.395 139.692C112.804 140.826 103.605 145.413 101.771 146.325C98.0272 148.191 99.0823 147.619 95.3178 149.443C95.3111 149.448 95.3033 149.452 95.2948 149.455C95.2864 149.457 95.2775 149.457 95.2689 149.455C95.2604 149.454 95.2523 149.45 95.2452 149.445C95.2382 149.44 95.2325 149.433 95.2284 149.425C95.2243 149.418 95.222 149.409 95.2217 149.4C95.2214 149.392 95.223 149.383 95.2265 149.375C95.23 149.367 95.2353 149.36 95.2419 149.354C95.2485 149.348 95.2563 149.344 95.2647 149.342Z" fill="#263238"/>
<path d="M127.168 71.1503C121.842 80.1611 115.814 88.7384 109.141 96.8024C107.507 98.7642 105.821 100.673 104.13 102.587C102.698 104.178 101.251 105.996 100.975 108.213C100.673 110.684 101.749 113.085 102.613 115.334C103.568 117.815 104.533 120.291 105.54 122.757C106.633 125.408 107.773 128.059 109.04 130.609C109.69 131.924 110.371 133.223 111.081 134.506C111.435 135.146 111.8 135.782 112.179 136.415C112.364 136.733 113.679 138.902 113.87 139.22C113.934 139.321 114.093 139.443 113.934 139.178C113.573 138.584 112.104 136.124 111.765 135.519C110.429 133.133 109.236 130.678 108.107 128.186C106.977 125.694 105.896 123.107 104.878 120.535C103.86 117.963 102.81 115.44 101.945 112.868C101.434 111.552 101.181 110.15 101.198 108.738C101.31 107.375 101.794 106.069 102.598 104.962C104.04 102.842 105.97 100.996 107.629 99.0399C111.079 94.9784 114.356 90.7791 117.46 86.4419C120.988 81.5361 124.259 76.4497 127.258 71.2034C127.258 71.145 127.194 71.1132 127.168 71.1503Z" fill="#263238"/>
<path d="M117.82 142.56L99.045 151.972L103.006 109.156C103.536 115.365 117.82 142.56 117.82 142.56Z" fill="#263238"/>
<path d="M110.763 212.019C112.094 212.019 146.325 200.619 147.348 199.363C147.741 198.885 146.373 193.806 144.543 187.698C144.151 186.383 143.732 185.047 143.303 183.652C140.524 174.723 137.364 165.307 137.364 165.307L114.443 172.868L121.018 191.001L122.454 194.983C122.454 194.983 111.32 205.211 110.318 206.712C109.316 208.212 109.438 211.987 110.763 212.019Z" fill="#EB9481"/>
<path d="M110.763 212.019C112.094 212.019 146.325 200.619 147.348 199.363C147.825 198.779 145.704 191.409 143.302 183.663L121.033 191.012L122.47 194.994C122.47 194.994 111.336 205.221 110.333 206.722C109.331 208.223 109.437 211.987 110.763 212.019Z" fill="white"/>
<path d="M110.763 212.019C112.094 212.019 146.325 200.619 147.348 199.363C147.741 198.885 146.373 193.806 144.543 187.698L122.454 194.983C122.454 194.983 111.32 205.211 110.318 206.711C109.316 208.212 109.438 211.987 110.763 212.019Z" fill="#FFC727"/>
<path d="M110.8 210.455C116.489 208.408 139.639 200.667 145.418 199.076C145.466 199.076 145.476 199.076 145.418 199.108C139.824 201.266 116.617 208.817 110.821 210.55C110.71 210.587 110.678 210.503 110.8 210.455Z" fill="#263238"/>
<path d="M112.115 204.734C112.747 204.504 113.42 204.408 114.09 204.452C114.761 204.496 115.416 204.678 116.012 204.988C117.095 205.541 117.921 206.491 118.319 207.639C118.319 207.671 118.266 207.692 118.25 207.639C117.677 206.568 116.772 205.711 115.67 205.198C114.569 204.684 113.331 204.542 112.142 204.792C112.094 204.813 112.067 204.75 112.115 204.734Z" fill="#263238"/>
<path d="M120.424 196.282C122.709 195.482 125.641 195.407 127.693 196.812C127.772 196.865 127.693 196.977 127.613 196.966C125.255 196.581 122.863 196.449 120.477 196.574C120.439 196.578 120.401 196.568 120.371 196.546C120.34 196.523 120.319 196.49 120.313 196.453C120.306 196.416 120.314 196.377 120.334 196.346C120.355 196.314 120.387 196.291 120.424 196.282Z" fill="#263238"/>
<path d="M118.881 197.56C121.166 196.765 124.098 196.69 126.15 198.09C126.23 198.149 126.15 198.26 126.07 198.244C123.712 197.861 121.32 197.731 118.934 197.857C118.898 197.856 118.864 197.843 118.837 197.82C118.81 197.797 118.792 197.765 118.785 197.73C118.779 197.695 118.785 197.659 118.803 197.628C118.82 197.597 118.848 197.573 118.881 197.56Z" fill="#263238"/>
<path d="M117.322 198.843C119.607 198.048 122.539 197.968 124.591 199.373C124.671 199.426 124.591 199.538 124.517 199.527C122.157 199.144 119.762 199.014 117.375 199.14C117.339 199.139 117.305 199.126 117.278 199.103C117.251 199.08 117.233 199.048 117.226 199.013C117.22 198.978 117.226 198.942 117.244 198.911C117.261 198.88 117.289 198.856 117.322 198.843Z" fill="#263238"/>
<path d="M115.795 200.126C118.08 199.326 121.012 199.251 123.064 200.656C123.144 200.709 123.064 200.821 122.99 200.81C120.63 200.425 118.236 200.293 115.848 200.418C115.81 200.422 115.772 200.412 115.742 200.39C115.711 200.367 115.691 200.334 115.684 200.297C115.677 200.26 115.685 200.221 115.705 200.19C115.726 200.158 115.758 200.135 115.795 200.126Z" fill="#263238"/>
<path d="M142.141 194.108C144.724 193.26 146.049 197.289 143.462 198.117C140.874 198.944 139.559 194.962 142.141 194.108Z" fill="#263238"/>
<path d="M117.205 194.283C118.976 195.471 121.203 195.847 123.212 196.436C123.419 196.494 123.568 196.293 123.562 196.112C123.572 196.111 123.581 196.107 123.59 196.101C123.598 196.095 123.605 196.088 123.61 196.079C123.615 196.071 123.618 196.061 123.619 196.051C123.62 196.042 123.619 196.032 123.615 196.022C122.744 193.971 121.349 192.185 119.57 190.842C118.509 190.084 116.744 189.628 115.901 190.98C115.058 192.332 116.171 193.588 117.205 194.283ZM116.468 192.401C115.864 189.824 118.753 190.996 119.506 191.59C119.986 191.981 120.44 192.405 120.864 192.857C121.722 193.806 122.531 194.799 123.287 195.831C122.316 195.481 121.325 195.216 120.344 194.903C119.172 194.548 116.791 193.838 116.468 192.401Z" fill="#263238"/>
<path d="M131.282 191.871C130.604 190.428 128.785 190.672 127.65 191.309C125.73 192.437 124.139 194.049 123.037 195.985C123.032 195.994 123.029 196.003 123.028 196.013C123.027 196.023 123.028 196.033 123.032 196.042C123.036 196.052 123.041 196.06 123.049 196.066C123.056 196.073 123.065 196.078 123.075 196.081C123.048 196.256 123.17 196.478 123.387 196.441C125.455 196.091 127.703 195.975 129.602 194.999C130.71 194.405 131.924 193.201 131.282 191.871ZM126.41 195.269C125.397 195.466 124.384 195.614 123.377 195.847C124.283 194.935 125.142 193.992 126.134 193.196C126.606 192.794 127.105 192.425 127.629 192.093C128.44 191.59 131.452 190.762 130.556 193.254C130.047 194.575 127.619 195.01 126.41 195.243V195.269Z" fill="#263238"/>
<path d="M118.493 189.029L143.302 180.853C143.302 180.853 131.383 146.532 128.546 129.305C127.051 120.243 134.098 94.5064 136.6 91.903C142.995 85.2488 143.281 78.287 138.652 68.5734H117.714C117.714 68.5734 118.997 78.849 118.817 79.2573C114.14 89.8564 100.567 113.631 102.772 131.426C106.367 160.476 118.493 189.029 118.493 189.029Z" fill="#455A64"/>
<path d="M117.757 183.917C122.857 181.871 139.135 176.553 140.943 176.245C140.985 176.245 141.007 176.303 140.97 176.319C139.379 177.2 130.832 180.121 117.794 184.029C117.786 184.031 117.779 184.032 117.771 184.032C117.763 184.031 117.756 184.029 117.749 184.026C117.742 184.022 117.736 184.017 117.731 184.012C117.726 184.006 117.722 183.999 117.719 183.992C117.717 183.984 117.716 183.977 117.717 183.969C117.717 183.961 117.719 183.954 117.723 183.947C117.726 183.94 117.731 183.934 117.737 183.929C117.742 183.924 117.749 183.92 117.757 183.917Z" fill="#263238"/>
<path d="M117.189 68.9922C117.529 71.6804 117.635 76.288 119.199 76.288C120.763 76.288 120.227 70.6677 120.211 69.3952C120.211 68.2181 120.604 68.3612 120.715 69.7451C121.007 73.4885 121.065 76.8023 119.061 76.744C117.057 76.6857 116.792 70.8427 116.792 69.5118C116.792 68.8225 117.083 68.1438 117.189 68.9922Z" fill="#263238"/>
<path d="M119.103 76.4682C119.244 77.409 119.267 78.3637 119.172 79.3102C119.172 79.3897 118.849 79.342 118.817 79.2837C118.61 78.9019 118.674 77.0515 118.6 76.5584C118.588 76.4916 118.603 76.4228 118.641 76.3671C118.68 76.3114 118.74 76.2734 118.806 76.2614C118.873 76.2495 118.942 76.2646 118.998 76.3033C119.053 76.3421 119.091 76.4014 119.103 76.4682Z" fill="#263238"/>
<path d="M118.817 79.2838C114.978 85.9593 109.368 98.552 108.981 100.874C108.981 100.991 109.087 101.049 109.135 100.933C110.01 98.8118 115.858 86.1343 119.172 79.3104C119.241 79.1778 118.881 79.1672 118.817 79.2838Z" fill="#263238"/>
<path d="M129.39 108.923C131.055 102.492 133.006 96.0229 136.399 90.2647C137.338 88.674 138.472 87.1947 139.358 85.5775C140.197 84.0743 140.656 82.3888 140.694 80.6677C140.763 76.9561 139.183 73.4355 137.65 70.1428C137.608 70.0474 137.465 70.1428 137.513 70.233C138.987 73.4143 140.524 76.8554 140.498 80.4397C140.484 82.2008 140.02 83.9291 139.151 85.4609C138.366 86.8766 137.391 88.1756 136.553 89.5542C133.138 95.1427 131.097 101.431 129.427 107.73C127.65 114.448 125.535 121.357 126.378 128.372C126.881 131.838 127.627 135.264 128.61 138.626C129.559 142.189 130.551 145.742 131.558 149.294C133.817 157.247 136.081 165.254 138.711 173.112C138.711 173.138 138.769 173.112 138.759 173.112C136.675 165.985 134.459 158.907 132.444 151.76C131.447 148.207 130.471 144.649 129.517 141.086C128.568 137.534 127.539 133.987 126.919 130.36C126.28 126.687 126.291 122.931 126.951 119.262C127.576 115.768 128.504 112.338 129.39 108.923Z" fill="#263238"/>
<path d="M139.501 69.1619C138.519 69.7395 137.5 70.2532 136.452 70.6995L135.954 70.901C133.036 72.0452 129.98 72.8028 126.866 73.1544C117.55 74.2891 108.759 72.3485 108.016 71.1396L109.008 61.7282L109.061 61.198L109.193 59.9201C109.193 59.9201 106.892 56.9721 106.77 53.5575C106.765 53.1888 106.8 52.8207 106.876 52.46C106.903 52.3009 106.94 52.1365 106.982 51.9615C107.661 49.2044 109.856 45.1217 111.728 42.2903C112.331 41.3378 113.011 40.4353 113.759 39.5915C115.88 37.3593 118.25 36.8503 120.577 37.4706C121.643 37.7799 122.65 38.2637 123.557 38.9022C125.777 40.513 127.665 42.5365 129.119 44.8619C130.795 47.4229 132.576 51.1768 134.177 54.9679C134.236 55.1004 134.289 55.233 134.342 55.3656C137.221 62.2902 139.501 69.1619 139.501 69.1619Z" fill="#FFC727"/>
<path d="M115.487 39.8671C115.487 39.9403 115.458 40.0104 115.406 40.0621C115.355 40.1138 115.285 40.1429 115.211 40.1429C115.157 40.1429 115.104 40.1267 115.058 40.0964C115.013 40.0661 114.978 40.023 114.957 39.9727C114.936 39.9223 114.93 39.8668 114.941 39.8134C114.952 39.7599 114.978 39.7107 115.016 39.6722C115.055 39.6336 115.104 39.6074 115.158 39.5967C115.211 39.5861 115.267 39.5916 115.317 39.6124C115.367 39.6333 115.41 39.6686 115.441 39.714C115.471 39.7593 115.487 39.8126 115.487 39.8671ZM119.405 39.5967C119.351 39.5967 119.297 39.6131 119.252 39.6436C119.206 39.6741 119.171 39.7175 119.15 39.7682C119.13 39.8189 119.124 39.8746 119.136 39.9282C119.147 39.9818 119.173 40.031 119.212 40.0693C119.252 40.1076 119.301 40.1335 119.355 40.1435C119.409 40.1535 119.464 40.1473 119.515 40.1256C119.565 40.1039 119.608 40.0678 119.637 40.0217C119.667 39.9757 119.682 39.9219 119.681 39.8671C119.681 39.8312 119.674 39.7956 119.66 39.7624C119.646 39.7293 119.626 39.6992 119.6 39.674C119.574 39.6489 119.544 39.6291 119.511 39.6158C119.477 39.6025 119.441 39.596 119.405 39.5967ZM123.605 39.5967C123.55 39.5957 123.496 39.6111 123.45 39.641C123.404 39.6709 123.367 39.7139 123.346 39.7645C123.324 39.8151 123.318 39.8709 123.329 39.9249C123.339 39.9789 123.366 40.0285 123.405 40.0674C123.443 40.1062 123.493 40.1326 123.547 40.1431C123.601 40.1535 123.657 40.1476 123.708 40.1261C123.758 40.1046 123.801 40.0684 123.831 40.0223C123.861 39.9761 123.876 39.9221 123.875 39.8671C123.875 39.7954 123.847 39.7266 123.796 39.6759C123.745 39.6252 123.677 39.5967 123.605 39.5967ZM111.017 45.7738C110.981 45.7738 110.945 45.7809 110.912 45.7948C110.878 45.8086 110.848 45.8289 110.822 45.8546C110.797 45.8802 110.777 45.9105 110.763 45.944C110.749 45.9775 110.742 46.0133 110.742 46.0495C110.73 46.0905 110.728 46.1337 110.736 46.1757C110.744 46.2176 110.761 46.2572 110.787 46.2913C110.812 46.3253 110.846 46.353 110.884 46.372C110.922 46.3911 110.964 46.401 111.007 46.401C111.049 46.401 111.092 46.3911 111.13 46.372C111.168 46.353 111.201 46.3253 111.227 46.2913C111.253 46.2572 111.27 46.2176 111.278 46.1757C111.286 46.1337 111.284 46.0905 111.272 46.0495C111.273 45.9796 111.248 45.9117 111.2 45.8603C111.153 45.8089 111.087 45.7779 111.017 45.7738ZM115.211 45.7738C115.175 45.7738 115.139 45.7809 115.106 45.7948C115.072 45.8086 115.042 45.8289 115.016 45.8546C114.991 45.8802 114.971 45.9105 114.957 45.944C114.943 45.9775 114.936 46.0133 114.936 46.0495C114.936 46.1226 114.965 46.1928 115.016 46.2445C115.068 46.2962 115.138 46.3252 115.211 46.3252C115.284 46.3239 115.353 46.2944 115.405 46.243C115.456 46.1916 115.486 46.1222 115.487 46.0495C115.487 46.0124 115.48 45.9757 115.465 45.9415C115.451 45.9073 115.429 45.8764 115.403 45.8507C115.376 45.825 115.344 45.8049 115.31 45.7917C115.275 45.7784 115.238 45.7724 115.201 45.7738H115.211ZM119.405 45.7738C119.37 45.7738 119.334 45.781 119.301 45.7949C119.268 45.8088 119.238 45.8292 119.212 45.8549C119.187 45.8805 119.167 45.911 119.154 45.9444C119.141 45.9778 119.134 46.0136 119.135 46.0495C119.135 46.1043 119.151 46.1578 119.182 46.2032C119.212 46.2487 119.256 46.284 119.307 46.3047C119.357 46.3254 119.413 46.3305 119.467 46.3195C119.52 46.3084 119.569 46.2816 119.608 46.2425C119.646 46.2034 119.672 46.1538 119.682 46.1C119.692 46.0461 119.686 45.9905 119.664 45.9403C119.642 45.89 119.606 45.8473 119.56 45.8177C119.514 45.788 119.46 45.7727 119.405 45.7738ZM123.605 45.7738C123.569 45.7738 123.533 45.7809 123.499 45.7948C123.466 45.8086 123.435 45.8289 123.41 45.8546C123.384 45.8802 123.364 45.9105 123.35 45.944C123.336 45.9775 123.329 46.0133 123.329 46.0495C123.317 46.0905 123.315 46.1337 123.323 46.1757C123.331 46.2176 123.348 46.2572 123.374 46.2913C123.4 46.3253 123.433 46.353 123.471 46.372C123.509 46.3911 123.552 46.401 123.594 46.401C123.637 46.401 123.679 46.3911 123.717 46.372C123.755 46.353 123.789 46.3253 123.814 46.2913C123.84 46.2572 123.857 46.2176 123.865 46.1757C123.873 46.1337 123.871 46.0905 123.859 46.0495C123.861 45.9796 123.835 45.9117 123.788 45.8603C123.74 45.8089 123.675 45.7779 123.605 45.7738ZM127.799 45.7738C127.763 45.7738 127.727 45.7809 127.693 45.7948C127.66 45.8086 127.63 45.8289 127.604 45.8546C127.578 45.8802 127.558 45.9105 127.544 45.944C127.53 45.9775 127.523 46.0133 127.523 46.0495C127.523 46.1226 127.552 46.1928 127.604 46.2445C127.656 46.2962 127.726 46.3252 127.799 46.3252C127.872 46.3239 127.941 46.2944 127.992 46.243C128.044 46.1916 128.073 46.1222 128.075 46.0495C128.075 46.0133 128.067 45.9775 128.054 45.944C128.04 45.9105 128.019 45.8802 127.994 45.8546C127.968 45.8289 127.938 45.8086 127.904 45.7948C127.871 45.7809 127.835 45.7738 127.799 45.7738ZM113.112 42.6508C113.057 42.6508 113.004 42.6671 112.958 42.6977C112.913 42.7282 112.877 42.7716 112.857 42.8223C112.836 42.873 112.831 42.9287 112.842 42.9823C112.853 43.0359 112.88 43.085 112.919 43.1234C112.958 43.1617 113.007 43.1875 113.061 43.1976C113.115 43.2076 113.171 43.2014 113.221 43.1797C113.271 43.158 113.314 43.1218 113.344 43.0758C113.373 43.0298 113.389 42.976 113.387 42.9212C113.387 42.8853 113.38 42.8496 113.366 42.8165C113.352 42.7833 113.332 42.7533 113.306 42.7281C113.281 42.7029 113.25 42.6831 113.217 42.6698C113.183 42.6566 113.148 42.6501 113.112 42.6508ZM117.311 42.6508C117.256 42.6498 117.202 42.6652 117.156 42.6951C117.11 42.7249 117.074 42.7679 117.052 42.8185C117.031 42.8691 117.025 42.925 117.035 42.979C117.046 43.0329 117.072 43.0825 117.111 43.1214C117.15 43.1603 117.199 43.1867 117.253 43.1971C117.307 43.2076 117.363 43.2017 117.414 43.1802C117.464 43.1587 117.507 43.1225 117.537 43.0763C117.567 43.0302 117.583 42.9762 117.582 42.9212C117.582 42.8513 117.555 42.7841 117.506 42.7337C117.458 42.6832 117.392 42.6535 117.322 42.6508H117.311ZM121.505 42.6508C121.464 42.6391 121.421 42.637 121.379 42.6449C121.337 42.6527 121.297 42.6701 121.263 42.6958C121.229 42.7215 121.202 42.7548 121.183 42.793C121.164 42.8311 121.154 42.8732 121.154 42.9159C121.154 42.9586 121.164 43.0007 121.183 43.0389C121.202 43.0771 121.229 43.1103 121.263 43.136C121.297 43.1617 121.337 43.1792 121.379 43.187C121.421 43.1948 121.464 43.1927 121.505 43.181C121.546 43.1927 121.589 43.1948 121.631 43.187C121.673 43.1792 121.713 43.1617 121.747 43.136C121.781 43.1103 121.809 43.0771 121.828 43.0389C121.847 43.0007 121.857 42.9586 121.857 42.9159C121.857 42.8732 121.847 42.8311 121.828 42.793C121.809 42.7548 121.781 42.7215 121.747 42.6958C121.713 42.6701 121.673 42.6527 121.631 42.6449C121.589 42.637 121.546 42.6391 121.505 42.6508ZM125.699 42.6508C125.644 42.6508 125.591 42.6671 125.545 42.6977C125.5 42.7282 125.465 42.7716 125.444 42.8223C125.423 42.873 125.418 42.9287 125.429 42.9823C125.44 43.0359 125.467 43.085 125.506 43.1234C125.545 43.1617 125.595 43.1875 125.649 43.1976C125.703 43.2076 125.758 43.2014 125.808 43.1797C125.859 43.158 125.901 43.1218 125.931 43.0758C125.961 43.0298 125.976 42.976 125.975 42.9212C125.975 42.8853 125.968 42.8496 125.954 42.8165C125.94 42.7833 125.92 42.7533 125.894 42.7281C125.868 42.7029 125.838 42.6831 125.804 42.6698C125.771 42.6566 125.735 42.6501 125.699 42.6508ZM106.967 51.9986C106.924 52.1736 106.887 52.3379 106.86 52.497C106.926 52.488 106.985 52.4555 107.028 52.4058C107.071 52.356 107.094 52.2923 107.094 52.2266C107.094 52.1808 107.082 52.1358 107.06 52.0958C107.038 52.0559 107.006 52.0224 106.967 51.9986ZM111.017 51.9562C110.962 51.9551 110.908 51.9705 110.862 52.0004C110.816 52.0303 110.78 52.0733 110.758 52.1239C110.737 52.1745 110.731 52.2304 110.741 52.2843C110.752 52.3383 110.778 52.3879 110.817 52.4268C110.856 52.4657 110.906 52.492 110.96 52.5025C111.014 52.513 111.069 52.5071 111.12 52.4855C111.171 52.464 111.214 52.4279 111.244 52.3817C111.273 52.3356 111.289 52.2815 111.288 52.2266C111.288 52.1549 111.259 52.0861 111.209 52.0354C111.158 51.9847 111.089 51.9562 111.017 51.9562ZM115.211 51.9562C115.17 51.9444 115.127 51.9424 115.085 51.9502C115.043 51.958 115.004 51.9755 114.97 52.0012C114.936 52.0269 114.908 52.0601 114.889 52.0983C114.87 52.1365 114.86 52.1786 114.86 52.2213C114.86 52.2639 114.87 52.306 114.889 52.3442C114.908 52.3824 114.936 52.4157 114.97 52.4414C115.004 52.4671 115.043 52.4845 115.085 52.4923C115.127 52.5001 115.17 52.4981 115.211 52.4864C115.252 52.4981 115.296 52.5001 115.338 52.4923C115.38 52.4845 115.419 52.4671 115.453 52.4414C115.487 52.4157 115.515 52.3824 115.534 52.3442C115.553 52.306 115.563 52.2639 115.563 52.2213C115.563 52.1786 115.553 52.1365 115.534 52.0983C115.515 52.0601 115.487 52.0269 115.453 52.0012C115.419 51.9755 115.38 51.958 115.338 51.9502C115.296 51.9424 115.252 51.9444 115.211 51.9562ZM119.405 51.9562C119.351 51.9562 119.297 51.9725 119.252 52.003C119.206 52.0336 119.171 52.0769 119.15 52.1276C119.13 52.1783 119.124 52.234 119.136 52.2876C119.147 52.3413 119.173 52.3904 119.212 52.4287C119.252 52.4671 119.301 52.4929 119.355 52.5029C119.409 52.513 119.464 52.5067 119.515 52.4851C119.565 52.4634 119.608 52.4272 119.637 52.3812C119.667 52.3351 119.682 52.2813 119.681 52.2266C119.681 52.1906 119.674 52.155 119.66 52.1219C119.646 52.0887 119.626 52.0586 119.6 52.0335C119.574 52.0083 119.544 51.9885 119.511 51.9752C119.477 51.9619 119.441 51.9555 119.405 51.9562ZM123.605 51.9562C123.55 51.9551 123.496 51.9705 123.45 52.0004C123.404 52.0303 123.367 52.0733 123.346 52.1239C123.324 52.1745 123.318 52.2304 123.329 52.2843C123.339 52.3383 123.366 52.3879 123.405 52.4268C123.443 52.4657 123.493 52.492 123.547 52.5025C123.601 52.513 123.657 52.5071 123.708 52.4855C123.758 52.464 123.801 52.4279 123.831 52.3817C123.861 52.3356 123.876 52.2815 123.875 52.2266C123.875 52.1549 123.847 52.0861 123.796 52.0354C123.745 51.9847 123.677 51.9562 123.605 51.9562ZM127.799 51.9562C127.758 51.9444 127.715 51.9424 127.673 51.9502C127.631 51.958 127.591 51.9755 127.557 52.0012C127.523 52.0269 127.495 52.0601 127.476 52.0983C127.457 52.1365 127.447 52.1786 127.447 52.2213C127.447 52.2639 127.457 52.306 127.476 52.3442C127.495 52.3824 127.523 52.4157 127.557 52.4414C127.591 52.4671 127.631 52.4845 127.673 52.4923C127.715 52.5001 127.758 52.4981 127.799 52.4864C127.84 52.4981 127.883 52.5001 127.925 52.4923C127.967 52.4845 128.007 52.4671 128.041 52.4414C128.075 52.4157 128.102 52.3824 128.121 52.3442C128.14 52.306 128.15 52.2639 128.15 52.2213C128.15 52.1786 128.14 52.1365 128.121 52.0983C128.102 52.0601 128.075 52.0269 128.041 52.0012C128.007 51.9755 127.967 51.958 127.925 51.9502C127.883 51.9424 127.84 51.9444 127.799 51.9562ZM131.993 51.9562C131.938 51.9562 131.885 51.9725 131.839 52.003C131.794 52.0336 131.758 52.0769 131.738 52.1276C131.717 52.1783 131.712 52.234 131.723 52.2876C131.734 52.3413 131.761 52.3904 131.8 52.4287C131.839 52.4671 131.889 52.4929 131.942 52.5029C131.996 52.513 132.052 52.5067 132.102 52.4851C132.152 52.4634 132.195 52.4272 132.225 52.3812C132.254 52.3351 132.27 52.2813 132.269 52.2266C132.269 52.1906 132.261 52.155 132.248 52.1219C132.234 52.0887 132.213 52.0586 132.188 52.0335C132.162 52.0083 132.131 51.9885 132.098 51.9752C132.065 51.9619 132.029 51.9555 131.993 51.9562ZM108.918 48.8279C108.845 48.8279 108.774 48.8569 108.723 48.9086C108.671 48.9603 108.642 49.0305 108.642 49.1036C108.642 49.1767 108.671 49.2468 108.723 49.2985C108.774 49.3502 108.845 49.3793 108.918 49.3793C108.99 49.3779 109.06 49.3484 109.111 49.297C109.163 49.2456 109.192 49.1763 109.193 49.1036C109.193 49.0674 109.186 49.0315 109.172 48.9981C109.159 48.9646 109.138 48.9342 109.113 48.9086C109.087 48.883 109.057 48.8627 109.023 48.8489C108.99 48.835 108.954 48.8279 108.918 48.8279ZM113.112 48.8279C113.076 48.8279 113.04 48.835 113.007 48.8489C112.974 48.8629 112.944 48.8833 112.919 48.9089C112.893 48.9346 112.874 48.965 112.86 48.9985C112.847 49.0319 112.841 49.0676 112.841 49.1036C112.841 49.1583 112.858 49.2118 112.888 49.2573C112.919 49.3027 112.962 49.3381 113.013 49.3588C113.064 49.3795 113.119 49.3846 113.173 49.3735C113.226 49.3625 113.276 49.3357 113.314 49.2966C113.352 49.2575 113.378 49.2079 113.388 49.154C113.398 49.1002 113.392 49.0446 113.37 48.9943C113.349 48.9441 113.312 48.9014 113.266 48.8717C113.22 48.8421 113.167 48.8268 113.112 48.8279ZM117.311 48.8279C117.238 48.8279 117.168 48.8569 117.116 48.9086C117.064 48.9603 117.035 49.0305 117.035 49.1036C117.024 49.1446 117.022 49.1878 117.029 49.2298C117.037 49.2717 117.055 49.3113 117.08 49.3454C117.106 49.3794 117.139 49.4071 117.178 49.4261C117.216 49.4451 117.258 49.455 117.301 49.455C117.343 49.455 117.385 49.4451 117.423 49.4261C117.462 49.4071 117.495 49.3794 117.521 49.3454C117.546 49.3113 117.564 49.2717 117.572 49.2298C117.579 49.1878 117.577 49.1446 117.566 49.1036C117.567 49.0353 117.543 48.969 117.498 48.9178C117.453 48.8667 117.39 48.8345 117.322 48.8279H117.311ZM121.505 48.8279C121.432 48.8279 121.362 48.8569 121.31 48.9086C121.258 48.9603 121.229 49.0305 121.229 49.1036C121.229 49.1767 121.258 49.2468 121.31 49.2985C121.362 49.3502 121.432 49.3793 121.505 49.3793C121.578 49.3779 121.647 49.3484 121.699 49.297C121.75 49.2456 121.78 49.1763 121.781 49.1036C121.781 49.0674 121.774 49.0315 121.76 48.9981C121.746 48.9646 121.726 48.9342 121.7 48.9086C121.675 48.883 121.644 48.8627 121.611 48.8489C121.577 48.835 121.541 48.8279 121.505 48.8279ZM125.699 48.8279C125.663 48.8279 125.628 48.835 125.594 48.8489C125.561 48.8629 125.531 48.8833 125.506 48.9089C125.481 48.9346 125.461 48.965 125.448 48.9985C125.435 49.0319 125.428 49.0676 125.429 49.1036C125.429 49.1583 125.445 49.2118 125.476 49.2573C125.506 49.3027 125.55 49.3381 125.6 49.3588C125.651 49.3795 125.707 49.3846 125.76 49.3735C125.814 49.3625 125.863 49.3357 125.901 49.2966C125.94 49.2575 125.966 49.2079 125.976 49.154C125.986 49.1002 125.979 49.0446 125.958 48.9943C125.936 48.9441 125.9 48.9014 125.854 48.8717C125.808 48.8421 125.754 48.8268 125.699 48.8279ZM129.899 48.8279C129.825 48.8279 129.755 48.8569 129.704 48.9086C129.652 48.9603 129.623 49.0305 129.623 49.1036C129.611 49.1446 129.609 49.1878 129.617 49.2298C129.625 49.2717 129.642 49.3113 129.668 49.3454C129.694 49.3794 129.727 49.4071 129.765 49.4261C129.803 49.4451 129.845 49.455 129.888 49.455C129.931 49.455 129.973 49.4451 130.011 49.4261C130.049 49.4071 130.082 49.3794 130.108 49.3454C130.134 49.3113 130.151 49.2717 130.159 49.2298C130.167 49.1878 130.165 49.1446 130.153 49.1036C130.155 49.0336 130.129 48.9658 130.081 48.9144C130.034 48.863 129.968 48.832 129.899 48.8279ZM111.017 58.1332C110.944 58.1332 110.874 58.1623 110.822 58.214C110.771 58.2657 110.742 58.3358 110.742 58.4089C110.73 58.45 110.728 58.4932 110.736 58.5351C110.744 58.5771 110.761 58.6166 110.787 58.6507C110.812 58.6848 110.846 58.7124 110.884 58.7314C110.922 58.7505 110.964 58.7604 111.007 58.7604C111.049 58.7604 111.092 58.7505 111.13 58.7314C111.168 58.7124 111.201 58.6848 111.227 58.6507C111.253 58.6166 111.27 58.5771 111.278 58.5351C111.286 58.4932 111.284 58.45 111.272 58.4089C111.273 58.339 111.248 58.2712 111.2 58.2198C111.153 58.1683 111.087 58.1373 111.017 58.1332ZM115.211 58.1332C115.138 58.1332 115.068 58.1623 115.016 58.214C114.965 58.2657 114.936 58.3358 114.936 58.4089C114.936 58.4821 114.965 58.5522 115.016 58.6039C115.068 58.6556 115.138 58.6847 115.211 58.6847C115.284 58.6833 115.353 58.6538 115.405 58.6024C115.456 58.551 115.486 58.4816 115.487 58.4089C115.487 58.3718 115.48 58.3351 115.465 58.3009C115.451 58.2668 115.429 58.2359 115.403 58.2101C115.376 58.1844 115.344 58.1643 115.31 58.1511C115.275 58.1379 115.238 58.1318 115.201 58.1332H115.211ZM119.405 58.1332C119.37 58.1332 119.334 58.1404 119.301 58.1543C119.268 58.1682 119.238 58.1886 119.212 58.2143C119.187 58.24 119.167 58.2704 119.154 58.3038C119.141 58.3373 119.134 58.373 119.135 58.4089C119.135 58.4637 119.151 58.5172 119.182 58.5627C119.212 58.6081 119.256 58.6434 119.307 58.6641C119.357 58.6848 119.413 58.69 119.467 58.6789C119.52 58.6678 119.569 58.641 119.608 58.6019C119.646 58.5629 119.672 58.5132 119.682 58.4594C119.692 58.4056 119.686 58.35 119.664 58.2997C119.642 58.2494 119.606 58.2067 119.56 58.1771C119.514 58.1474 119.46 58.1322 119.405 58.1332ZM123.605 58.1332C123.532 58.1332 123.462 58.1623 123.41 58.214C123.358 58.2657 123.329 58.3358 123.329 58.4089C123.317 58.45 123.315 58.4932 123.323 58.5351C123.331 58.5771 123.348 58.6166 123.374 58.6507C123.4 58.6848 123.433 58.7124 123.471 58.7314C123.509 58.7505 123.552 58.7604 123.594 58.7604C123.637 58.7604 123.679 58.7505 123.717 58.7314C123.755 58.7124 123.789 58.6848 123.814 58.6507C123.84 58.6166 123.857 58.5771 123.865 58.5351C123.873 58.4932 123.871 58.45 123.859 58.4089C123.861 58.339 123.835 58.2712 123.788 58.2198C123.74 58.1683 123.675 58.1373 123.605 58.1332ZM127.799 58.1332C127.726 58.1332 127.656 58.1623 127.604 58.214C127.552 58.2657 127.523 58.3358 127.523 58.4089C127.523 58.4821 127.552 58.5522 127.604 58.6039C127.656 58.6556 127.726 58.6847 127.799 58.6847C127.872 58.6833 127.941 58.6538 127.992 58.6024C128.044 58.551 128.073 58.4816 128.075 58.4089C128.075 58.3727 128.067 58.3369 128.054 58.3034C128.04 58.27 128.019 58.2396 127.994 58.214C127.968 58.1884 127.938 58.1681 127.904 58.1542C127.871 58.1404 127.835 58.1332 127.799 58.1332ZM131.993 58.1332C131.957 58.1332 131.921 58.1404 131.888 58.1543C131.855 58.1682 131.825 58.1886 131.8 58.2143C131.775 58.24 131.755 58.2704 131.742 58.3038C131.728 58.3373 131.722 58.373 131.722 58.4089C131.723 58.4637 131.739 58.5172 131.769 58.5627C131.8 58.6081 131.843 58.6434 131.894 58.6641C131.945 58.6848 132 58.69 132.054 58.6789C132.108 58.6678 132.157 58.641 132.195 58.6019C132.233 58.5629 132.259 58.5132 132.269 58.4594C132.279 58.4056 132.273 58.35 132.251 58.2997C132.23 58.2494 132.194 58.2067 132.148 58.1771C132.101 58.1474 132.048 58.1322 131.993 58.1332ZM108.918 55.0102C108.877 54.9985 108.834 54.9965 108.792 55.0043C108.75 55.0121 108.71 55.0295 108.676 55.0552C108.642 55.0809 108.614 55.1142 108.595 55.1524C108.576 55.1906 108.566 55.2327 108.566 55.2753C108.566 55.318 108.576 55.3601 108.595 55.3983C108.614 55.4365 108.642 55.4698 108.676 55.4955C108.71 55.5212 108.75 55.5386 108.792 55.5464C108.834 55.5542 108.877 55.5522 108.918 55.5405C108.959 55.5522 109.002 55.5542 109.044 55.5464C109.086 55.5386 109.125 55.5212 109.16 55.4955C109.194 55.4698 109.221 55.4365 109.24 55.3983C109.259 55.3601 109.269 55.318 109.269 55.2753C109.269 55.2327 109.259 55.1906 109.24 55.1524C109.221 55.1142 109.194 55.0809 109.16 55.0552C109.125 55.0295 109.086 55.0121 109.044 55.0043C109.002 54.9965 108.959 54.9985 108.918 55.0102ZM113.112 55.0102C113.057 55.0102 113.004 55.0266 112.958 55.0571C112.913 55.0876 112.877 55.131 112.857 55.1817C112.836 55.2324 112.831 55.2881 112.842 55.3417C112.853 55.3953 112.88 55.4445 112.919 55.4828C112.958 55.5211 113.007 55.547 113.061 55.557C113.115 55.567 113.171 55.5608 113.221 55.5391C113.271 55.5174 113.314 55.4813 113.344 55.4352C113.373 55.3892 113.389 55.3354 113.387 55.2806C113.387 55.2447 113.38 55.2091 113.366 55.1759C113.352 55.1428 113.332 55.1127 113.306 55.0875C113.281 55.0623 113.25 55.0425 113.217 55.0293C113.183 55.016 113.148 55.0095 113.112 55.0102ZM117.311 55.0102C117.256 55.0092 117.202 55.0246 117.156 55.0545C117.11 55.0844 117.074 55.1274 117.052 55.178C117.031 55.2286 117.025 55.2844 117.035 55.3384C117.046 55.3924 117.072 55.442 117.111 55.4809C117.15 55.5197 117.199 55.5461 117.253 55.5566C117.307 55.567 117.363 55.5611 117.414 55.5396C117.464 55.5181 117.507 55.4819 117.537 55.4358C117.567 55.3896 117.583 55.3356 117.582 55.2806C117.582 55.2107 117.555 55.1435 117.506 55.0931C117.458 55.0427 117.392 55.013 117.322 55.0102H117.311ZM121.505 55.0102C121.464 54.9985 121.421 54.9965 121.379 55.0043C121.337 55.0121 121.297 55.0295 121.263 55.0552C121.229 55.0809 121.202 55.1142 121.183 55.1524C121.164 55.1906 121.154 55.2327 121.154 55.2753C121.154 55.318 121.164 55.3601 121.183 55.3983C121.202 55.4365 121.229 55.4698 121.263 55.4955C121.297 55.5212 121.337 55.5386 121.379 55.5464C121.421 55.5542 121.464 55.5522 121.505 55.5405C121.546 55.5522 121.589 55.5542 121.631 55.5464C121.673 55.5386 121.713 55.5212 121.747 55.4955C121.781 55.4698 121.809 55.4365 121.828 55.3983C121.847 55.3601 121.857 55.318 121.857 55.2753C121.857 55.2327 121.847 55.1906 121.828 55.1524C121.809 55.1142 121.781 55.0809 121.747 55.0552C121.713 55.0295 121.673 55.0121 121.631 55.0043C121.589 54.9965 121.546 54.9985 121.505 55.0102ZM125.699 55.0102C125.644 55.0102 125.591 55.0266 125.545 55.0571C125.5 55.0876 125.465 55.131 125.444 55.1817C125.423 55.2324 125.418 55.2881 125.429 55.3417C125.44 55.3953 125.467 55.4445 125.506 55.4828C125.545 55.5211 125.595 55.547 125.649 55.557C125.703 55.567 125.758 55.5608 125.808 55.5391C125.859 55.5174 125.901 55.4813 125.931 55.4352C125.961 55.3892 125.976 55.3354 125.975 55.2806C125.975 55.2447 125.968 55.2091 125.954 55.1759C125.94 55.1428 125.92 55.1127 125.894 55.0875C125.868 55.0623 125.838 55.0425 125.804 55.0293C125.771 55.016 125.735 55.0095 125.699 55.0102ZM129.899 55.0102C129.844 55.0092 129.79 55.0246 129.743 55.0545C129.697 55.0844 129.661 55.1274 129.64 55.178C129.618 55.2286 129.612 55.2844 129.623 55.3384C129.633 55.3924 129.659 55.442 129.698 55.4809C129.737 55.5197 129.787 55.5461 129.841 55.5566C129.895 55.567 129.951 55.5611 130.001 55.5396C130.052 55.5181 130.095 55.4819 130.125 55.4358C130.155 55.3896 130.17 55.3356 130.169 55.2806C130.169 55.2451 130.162 55.21 130.148 55.1772C130.135 55.1443 130.115 55.1145 130.09 55.0894C130.065 55.0643 130.035 55.0444 130.002 55.0308C129.969 55.0172 129.934 55.0102 129.899 55.0102ZM134.14 55.0102H134.066C134.017 55.0097 133.969 55.0221 133.927 55.0462C133.884 55.0702 133.849 55.1052 133.825 55.1473C133.8 55.1895 133.787 55.2374 133.787 55.2862C133.787 55.335 133.8 55.3829 133.825 55.425C133.849 55.4672 133.885 55.502 133.927 55.526C133.97 55.55 134.018 55.5623 134.067 55.5616C134.115 55.561 134.163 55.5474 134.205 55.5222C134.247 55.4971 134.281 55.4613 134.305 55.4185C134.289 55.2859 134.225 55.1534 134.167 55.0208L134.14 55.0102ZM110.991 64.305C110.936 64.3039 110.882 64.3193 110.836 64.3492C110.79 64.3791 110.753 64.4221 110.732 64.4727C110.71 64.5233 110.705 64.5792 110.715 64.6331C110.725 64.6871 110.752 64.7367 110.791 64.7756C110.83 64.8145 110.879 64.8408 110.933 64.8513C110.987 64.8618 111.043 64.8559 111.094 64.8344C111.144 64.8128 111.187 64.7767 111.217 64.7305C111.247 64.6844 111.262 64.6304 111.261 64.5754C111.259 64.5099 111.233 64.4474 111.188 64.3996C111.143 64.3518 111.083 64.322 111.017 64.3156L110.991 64.305ZM115.185 64.305C115.144 64.2933 115.101 64.2912 115.059 64.299C115.017 64.3068 114.977 64.3243 114.943 64.35C114.909 64.3757 114.881 64.4089 114.862 64.4471C114.843 64.4853 114.833 64.5274 114.833 64.5701C114.833 64.6128 114.843 64.6549 114.862 64.6931C114.881 64.7313 114.909 64.7645 114.943 64.7902C114.977 64.8159 115.017 64.8333 115.059 64.8412C115.101 64.849 115.144 64.8469 115.185 64.8352C115.226 64.8469 115.269 64.849 115.311 64.8412C115.353 64.8333 115.393 64.8159 115.427 64.7902C115.461 64.7645 115.488 64.7313 115.507 64.6931C115.526 64.6549 115.536 64.6128 115.536 64.5701C115.536 64.5274 115.526 64.4853 115.507 64.4471C115.488 64.4089 115.461 64.3757 115.427 64.35C115.393 64.3243 115.353 64.3068 115.311 64.299C115.269 64.2912 115.226 64.2933 115.185 64.305ZM119.379 64.305C119.324 64.305 119.271 64.3213 119.225 64.3518C119.18 64.3824 119.144 64.4258 119.124 64.4765C119.103 64.5271 119.098 64.5828 119.109 64.6365C119.12 64.6901 119.147 64.7392 119.186 64.7775C119.225 64.8159 119.275 64.8417 119.329 64.8517C119.382 64.8618 119.438 64.8556 119.488 64.8339C119.538 64.8122 119.581 64.776 119.611 64.73C119.64 64.684 119.656 64.6301 119.655 64.5754C119.652 64.5091 119.626 64.4459 119.58 64.398C119.534 64.3501 119.472 64.3208 119.405 64.3156L119.379 64.305ZM123.578 64.305C123.523 64.3039 123.469 64.3193 123.423 64.3492C123.377 64.3791 123.341 64.4221 123.319 64.4727C123.298 64.5233 123.292 64.5792 123.302 64.6331C123.313 64.6871 123.339 64.7367 123.378 64.7756C123.417 64.8145 123.467 64.8408 123.521 64.8513C123.575 64.8618 123.63 64.8559 123.681 64.8344C123.732 64.8128 123.775 64.7767 123.804 64.7305C123.834 64.6844 123.85 64.6304 123.849 64.5754C123.846 64.5099 123.82 64.4474 123.776 64.3996C123.731 64.3518 123.67 64.322 123.605 64.3156L123.578 64.305ZM127.772 64.305C127.731 64.2933 127.688 64.2912 127.646 64.299C127.604 64.3068 127.565 64.3243 127.531 64.35C127.497 64.3757 127.469 64.4089 127.45 64.4471C127.431 64.4853 127.421 64.5274 127.421 64.5701C127.421 64.6128 127.431 64.6549 127.45 64.6931C127.469 64.7313 127.497 64.7645 127.531 64.7902C127.565 64.8159 127.604 64.8333 127.646 64.8412C127.688 64.849 127.731 64.8469 127.772 64.8352C127.813 64.8469 127.857 64.849 127.899 64.8412C127.94 64.8333 127.98 64.8159 128.014 64.7902C128.048 64.7645 128.076 64.7313 128.095 64.6931C128.114 64.6549 128.124 64.6128 128.124 64.5701C128.124 64.5274 128.114 64.4853 128.095 64.4471C128.076 64.4089 128.048 64.3757 128.014 64.35C127.98 64.3243 127.94 64.3068 127.899 64.299C127.857 64.2912 127.813 64.2933 127.772 64.305ZM131.966 64.305C131.912 64.305 131.858 64.3213 131.813 64.3518C131.767 64.3824 131.732 64.4258 131.711 64.4765C131.691 64.5271 131.685 64.5828 131.696 64.6365C131.708 64.6901 131.734 64.7392 131.773 64.7775C131.812 64.8159 131.862 64.8417 131.916 64.8517C131.97 64.8618 132.025 64.8556 132.076 64.8339C132.126 64.8122 132.169 64.776 132.198 64.73C132.228 64.684 132.243 64.6301 132.242 64.5754C132.24 64.5091 132.213 64.4459 132.167 64.398C132.121 64.3501 132.059 64.3208 131.993 64.3156L131.966 64.305ZM136.166 64.305C136.111 64.3039 136.057 64.3193 136.011 64.3492C135.964 64.3791 135.928 64.4221 135.907 64.4727C135.885 64.5233 135.879 64.5792 135.89 64.6331C135.9 64.6871 135.927 64.7367 135.966 64.7756C136.004 64.8145 136.054 64.8408 136.108 64.8513C136.162 64.8618 136.218 64.8559 136.268 64.8344C136.319 64.8128 136.362 64.7767 136.392 64.7305C136.422 64.6844 136.437 64.6304 136.436 64.5754C136.434 64.5099 136.408 64.4474 136.363 64.3996C136.318 64.3518 136.257 64.322 136.192 64.3156L136.166 64.305ZM108.891 61.1767C108.818 61.1767 108.748 61.2057 108.696 61.2574C108.645 61.3092 108.616 61.3793 108.616 61.4524C108.616 61.5255 108.645 61.5957 108.696 61.6474C108.748 61.6991 108.818 61.7281 108.891 61.7281C108.964 61.7268 109.033 61.6973 109.085 61.6459C109.136 61.5944 109.166 61.5251 109.167 61.4524C109.165 61.3855 109.138 61.3217 109.092 61.2729C109.046 61.2241 108.984 61.1937 108.918 61.1873L108.891 61.1767ZM113.085 61.1767C113.049 61.1767 113.014 61.1838 112.981 61.1978C112.947 61.2117 112.917 61.2321 112.892 61.2578C112.867 61.2834 112.847 61.3139 112.834 61.3473C112.821 61.3807 112.814 61.4164 112.815 61.4524C112.815 61.5072 112.831 61.5607 112.862 61.6061C112.892 61.6516 112.936 61.6869 112.986 61.7076C113.037 61.7283 113.093 61.7334 113.146 61.7224C113.2 61.7113 113.249 61.6845 113.287 61.6454C113.326 61.6063 113.352 61.5567 113.362 61.5029C113.372 61.449 113.365 61.3934 113.344 61.3432C113.322 61.2929 113.286 61.2502 113.24 61.2206C113.194 61.1909 113.14 61.1756 113.085 61.1767ZM117.285 61.1767C117.211 61.1767 117.141 61.2057 117.09 61.2574C117.038 61.3092 117.009 61.3793 117.009 61.4524C116.997 61.4934 116.995 61.5366 117.003 61.5786C117.011 61.6205 117.028 61.6601 117.054 61.6942C117.08 61.7282 117.113 61.7559 117.151 61.7749C117.189 61.7939 117.231 61.8038 117.274 61.8038C117.317 61.8038 117.359 61.7939 117.397 61.7749C117.435 61.7559 117.468 61.7282 117.494 61.6942C117.52 61.6601 117.537 61.6205 117.545 61.5786C117.553 61.5366 117.551 61.4934 117.539 61.4524C117.539 61.3899 117.517 61.3293 117.478 61.281C117.438 61.2327 117.383 61.1995 117.322 61.1873L117.285 61.1767ZM121.479 61.1767C121.406 61.1767 121.335 61.2057 121.284 61.2574C121.232 61.3092 121.203 61.3793 121.203 61.4524C121.203 61.5255 121.232 61.5957 121.284 61.6474C121.335 61.6991 121.406 61.7281 121.479 61.7281C121.551 61.7268 121.621 61.6973 121.672 61.6459C121.724 61.5944 121.753 61.5251 121.754 61.4524C121.752 61.3855 121.726 61.3217 121.68 61.2729C121.634 61.2241 121.572 61.1937 121.505 61.1873L121.479 61.1767ZM125.673 61.1767C125.637 61.1767 125.601 61.1838 125.568 61.1978C125.535 61.2117 125.505 61.2321 125.48 61.2578C125.454 61.2834 125.435 61.3139 125.421 61.3473C125.408 61.3807 125.402 61.4164 125.402 61.4524C125.402 61.5072 125.419 61.5607 125.449 61.6061C125.48 61.6516 125.523 61.6869 125.574 61.7076C125.624 61.7283 125.68 61.7334 125.734 61.7224C125.787 61.7113 125.836 61.6845 125.875 61.6454C125.913 61.6063 125.939 61.5567 125.949 61.5029C125.959 61.449 125.953 61.3934 125.931 61.3432C125.909 61.2929 125.873 61.2502 125.827 61.2206C125.781 61.1909 125.727 61.1756 125.673 61.1767ZM129.872 61.1767C129.799 61.1767 129.729 61.2057 129.677 61.2574C129.625 61.3092 129.596 61.3793 129.596 61.4524C129.585 61.4934 129.583 61.5366 129.59 61.5786C129.598 61.6205 129.616 61.6601 129.641 61.6942C129.667 61.7282 129.7 61.7559 129.738 61.7749C129.777 61.7939 129.819 61.8038 129.861 61.8038C129.904 61.8038 129.946 61.7939 129.984 61.7749C130.023 61.7559 130.056 61.7282 130.082 61.6942C130.107 61.6601 130.125 61.6205 130.132 61.5786C130.14 61.5366 130.138 61.4934 130.127 61.4524C130.126 61.3884 130.103 61.3266 130.061 61.278C130.019 61.2295 129.962 61.1973 129.899 61.1873L129.872 61.1767ZM134.066 61.1767C133.993 61.1767 133.923 61.2057 133.871 61.2574C133.819 61.3092 133.79 61.3793 133.79 61.4524C133.79 61.5255 133.819 61.5957 133.871 61.6474C133.923 61.6991 133.993 61.7281 134.066 61.7281C134.139 61.7268 134.208 61.6973 134.26 61.6459C134.311 61.5944 134.34 61.5251 134.342 61.4524C134.34 61.3855 134.313 61.3217 134.267 61.2729C134.221 61.2241 134.159 61.1937 134.093 61.1873L134.066 61.1767ZM110.991 70.482C110.955 70.482 110.919 70.4892 110.885 70.503C110.852 70.5169 110.822 70.5372 110.796 70.5628C110.77 70.5884 110.75 70.6188 110.736 70.6523C110.722 70.6857 110.715 70.7216 110.715 70.7578C110.703 70.7988 110.701 70.842 110.709 70.8839C110.717 70.9259 110.734 70.9655 110.76 70.9995C110.786 71.0336 110.819 71.0612 110.857 71.0803C110.896 71.0993 110.938 71.1092 110.98 71.1092C111.023 71.1092 111.065 71.0993 111.103 71.0803C111.141 71.0612 111.175 71.0336 111.2 70.9995C111.226 70.9655 111.244 70.9259 111.251 70.8839C111.259 70.842 111.257 70.7988 111.245 70.7578C111.245 70.6937 111.222 70.6319 111.18 70.5834C111.138 70.5349 111.081 70.5027 111.017 70.4927L110.991 70.482ZM115.185 70.482C115.112 70.482 115.042 70.5111 114.99 70.5628C114.938 70.6145 114.909 70.6846 114.909 70.7578C114.909 70.8309 114.938 70.901 114.99 70.9527C115.042 71.0044 115.112 71.0335 115.185 71.0335C115.258 71.0321 115.327 71.0026 115.378 70.9512C115.43 70.8998 115.459 70.8305 115.461 70.7578C115.458 70.6892 115.43 70.624 115.382 70.5749C115.334 70.5259 115.269 70.4966 115.201 70.4927L115.185 70.482ZM119.379 70.482C119.343 70.482 119.307 70.4892 119.274 70.5031C119.241 70.5171 119.211 70.5374 119.186 70.5631C119.161 70.5888 119.141 70.6192 119.128 70.6527C119.114 70.6861 119.108 70.7218 119.109 70.7578C119.109 70.8125 119.125 70.866 119.155 70.9115C119.186 70.9569 119.229 70.9923 119.28 71.013C119.331 71.0337 119.386 71.0388 119.44 71.0277C119.494 71.0167 119.543 70.9899 119.581 70.9508C119.619 70.9117 119.645 70.8621 119.655 70.8082C119.665 70.7544 119.659 70.6988 119.637 70.6485C119.616 70.5982 119.58 70.5556 119.534 70.5259C119.488 70.4963 119.434 70.481 119.379 70.482ZM123.578 70.482C123.542 70.482 123.506 70.4892 123.473 70.503C123.439 70.5169 123.409 70.5372 123.383 70.5628C123.358 70.5884 123.337 70.6188 123.324 70.6523C123.31 70.6857 123.303 70.7216 123.303 70.7578C123.291 70.7988 123.289 70.842 123.297 70.8839C123.304 70.9259 123.322 70.9655 123.348 70.9995C123.373 71.0336 123.407 71.0612 123.445 71.0803C123.483 71.0993 123.525 71.1092 123.568 71.1092C123.61 71.1092 123.652 71.0993 123.691 71.0803C123.729 71.0612 123.762 71.0336 123.788 70.9995C123.814 70.9655 123.831 70.9259 123.839 70.8839C123.847 70.842 123.845 70.7988 123.833 70.7578C123.832 70.6937 123.809 70.6319 123.767 70.5834C123.726 70.5349 123.668 70.5027 123.605 70.4927L123.578 70.482ZM127.772 70.482C127.736 70.482 127.7 70.4892 127.667 70.503C127.633 70.5169 127.603 70.5372 127.577 70.5628C127.552 70.5884 127.531 70.6188 127.518 70.6523C127.504 70.6857 127.497 70.7216 127.497 70.7578C127.497 70.8309 127.526 70.901 127.577 70.9527C127.629 71.0044 127.699 71.0335 127.772 71.0335C127.845 71.0321 127.914 71.0026 127.966 70.9512C128.017 70.8998 128.047 70.8305 128.048 70.7578C128.046 70.6909 128.019 70.6271 127.973 70.5783C127.928 70.5295 127.866 70.4991 127.799 70.4927L127.772 70.482ZM131.966 70.482C131.93 70.482 131.895 70.4892 131.862 70.5031C131.829 70.5171 131.798 70.5374 131.773 70.5631C131.748 70.5888 131.728 70.6192 131.715 70.6527C131.702 70.6861 131.695 70.7218 131.696 70.7578C131.696 70.8125 131.712 70.866 131.743 70.9115C131.773 70.9569 131.817 70.9923 131.867 71.013C131.918 71.0337 131.974 71.0388 132.027 71.0277C132.081 71.0167 132.13 70.9899 132.169 70.9508C132.207 70.9117 132.233 70.8621 132.243 70.8082C132.253 70.7544 132.247 70.6988 132.225 70.6485C132.203 70.5982 132.167 70.5556 132.121 70.5259C132.075 70.4963 132.021 70.481 131.966 70.482ZM136.166 70.482C136.093 70.482 136.022 70.5111 135.971 70.5628C135.919 70.6145 135.89 70.6846 135.89 70.7578C135.889 70.8046 135.902 70.8507 135.927 70.8903L136.426 70.6888C136.412 70.6361 136.382 70.589 136.34 70.5539C136.298 70.5188 136.247 70.4974 136.192 70.4927L136.166 70.482ZM108.891 67.3591C108.85 67.3473 108.807 67.3453 108.765 67.3531C108.723 67.3609 108.684 67.3784 108.649 67.4041C108.615 67.4298 108.588 67.463 108.569 67.5012C108.55 67.5394 108.54 67.5815 108.54 67.6242C108.54 67.6668 108.55 67.7089 108.569 67.7471C108.588 67.7853 108.615 67.8186 108.649 67.8443C108.684 67.87 108.723 67.8874 108.765 67.8952C108.807 67.903 108.85 67.901 108.891 67.8893C108.932 67.901 108.975 67.903 109.017 67.8952C109.059 67.8874 109.099 67.87 109.133 67.8443C109.167 67.8186 109.195 67.7853 109.214 67.7471C109.233 67.7089 109.243 67.6668 109.243 67.6242C109.243 67.5815 109.233 67.5394 109.214 67.5012C109.195 67.463 109.167 67.4298 109.133 67.4041C109.099 67.3784 109.059 67.3609 109.017 67.3531C108.975 67.3453 108.932 67.3473 108.891 67.3591ZM113.085 67.3591C113.031 67.3591 112.977 67.3754 112.932 67.4059C112.886 67.4365 112.851 67.4798 112.83 67.5305C112.809 67.5812 112.804 67.6369 112.815 67.6905C112.826 67.7442 112.853 67.7933 112.892 67.8316C112.931 67.87 112.981 67.8958 113.035 67.9058C113.089 67.9158 113.144 67.9096 113.195 67.8879C113.245 67.8663 113.287 67.8301 113.317 67.7841C113.347 67.738 113.362 67.6842 113.361 67.6295C113.359 67.5631 113.332 67.5 113.286 67.4521C113.24 67.4042 113.178 67.3748 113.112 67.3697L113.085 67.3591ZM117.285 67.3591C117.23 67.358 117.176 67.3734 117.129 67.4033C117.083 67.4332 117.047 67.4762 117.026 67.5268C117.004 67.5774 116.998 67.6332 117.009 67.6872C117.019 67.7412 117.046 67.7908 117.084 67.8297C117.123 67.8686 117.173 67.8949 117.227 67.9054C117.281 67.9159 117.337 67.91 117.387 67.8884C117.438 67.8669 117.481 67.8308 117.511 67.7846C117.541 67.7385 117.556 67.6844 117.555 67.6295C117.553 67.5656 117.529 67.5044 117.486 67.4569C117.443 67.4093 117.385 67.3784 117.322 67.3697L117.285 67.3591ZM121.479 67.3591C121.438 67.3473 121.394 67.3453 121.352 67.3531C121.311 67.3609 121.271 67.3784 121.237 67.4041C121.203 67.4298 121.175 67.463 121.156 67.5012C121.137 67.5394 121.127 67.5815 121.127 67.6242C121.127 67.6668 121.137 67.7089 121.156 67.7471C121.175 67.7853 121.203 67.8186 121.237 67.8443C121.271 67.87 121.311 67.8874 121.352 67.8952C121.394 67.903 121.438 67.901 121.479 67.8893C121.52 67.901 121.563 67.903 121.605 67.8952C121.647 67.8874 121.686 67.87 121.72 67.8443C121.754 67.8186 121.782 67.7853 121.801 67.7471C121.82 67.7089 121.83 67.6668 121.83 67.6242C121.83 67.5815 121.82 67.5394 121.801 67.5012C121.782 67.463 121.754 67.4298 121.72 67.4041C121.686 67.3784 121.647 67.3609 121.605 67.3531C121.563 67.3453 121.52 67.3473 121.479 67.3591ZM125.673 67.3591C125.618 67.3591 125.564 67.3754 125.519 67.4059C125.474 67.4365 125.438 67.4798 125.417 67.5305C125.397 67.5812 125.392 67.6369 125.403 67.6905C125.414 67.7442 125.441 67.7933 125.48 67.8316C125.519 67.87 125.568 67.8958 125.622 67.9058C125.676 67.9158 125.732 67.9096 125.782 67.8879C125.832 67.8663 125.875 67.8301 125.905 67.7841C125.934 67.738 125.949 67.6842 125.948 67.6295C125.946 67.5631 125.919 67.5 125.873 67.4521C125.827 67.4042 125.765 67.3748 125.699 67.3697L125.673 67.3591ZM129.872 67.3591C129.817 67.358 129.763 67.3734 129.717 67.4033C129.671 67.4332 129.635 67.4762 129.613 67.5268C129.592 67.5774 129.586 67.6332 129.596 67.6872C129.607 67.7412 129.633 67.7908 129.672 67.8297C129.711 67.8686 129.76 67.8949 129.814 67.9054C129.868 67.9159 129.924 67.91 129.975 67.8884C130.025 67.8669 130.068 67.8308 130.098 67.7846C130.128 67.7385 130.143 67.6844 130.142 67.6295C130.14 67.564 130.114 67.5015 130.069 67.4537C130.024 67.4059 129.964 67.376 129.899 67.3697L129.872 67.3591ZM134.066 67.3591C134.025 67.3473 133.982 67.3453 133.94 67.3531C133.898 67.3609 133.858 67.3784 133.824 67.4041C133.79 67.4298 133.763 67.463 133.744 67.5012C133.725 67.5394 133.715 67.5815 133.715 67.6242C133.715 67.6668 133.725 67.7089 133.744 67.7471C133.763 67.7853 133.79 67.8186 133.824 67.8443C133.858 67.87 133.898 67.8874 133.94 67.8952C133.982 67.903 134.025 67.901 134.066 67.8893C134.107 67.901 134.15 67.903 134.192 67.8952C134.234 67.8874 134.274 67.87 134.308 67.8443C134.342 67.8186 134.37 67.7853 134.389 67.7471C134.408 67.7089 134.418 67.6668 134.418 67.6242C134.418 67.5815 134.408 67.5394 134.389 67.5012C134.37 67.463 134.342 67.4298 134.308 67.4041C134.274 67.3784 134.234 67.3609 134.192 67.3531C134.15 67.3453 134.107 67.3473 134.066 67.3591ZM138.26 67.3591C138.205 67.3591 138.152 67.3754 138.106 67.4059C138.061 67.4365 138.026 67.4798 138.005 67.5305C137.984 67.5812 137.979 67.6369 137.99 67.6905C138.001 67.7442 138.028 67.7933 138.067 67.8316C138.106 67.87 138.156 67.8958 138.21 67.9058C138.263 67.9158 138.319 67.9096 138.369 67.8879C138.42 67.8663 138.462 67.8301 138.492 67.7841C138.522 67.738 138.537 67.6842 138.536 67.6295C138.533 67.5631 138.507 67.5 138.461 67.4521C138.415 67.4042 138.353 67.3748 138.287 67.3697L138.26 67.3591Z" fill="white"/>
<path d="M139.501 69.1618C135.683 71.4258 131.208 72.6294 126.85 73.1543C124.824 62.8044 121.378 42.3539 120.567 37.5236C121.632 37.8329 122.639 38.3166 123.547 38.9552C125.766 40.566 127.655 42.5894 129.109 44.9148C133.881 52.216 139.501 69.1618 139.501 69.1618Z" fill="#263238"/>
<path d="M127.221 41.6276C134.183 49.5809 143.806 63.2447 140.148 66.6646C134.13 72.2797 115.758 76.4737 111.542 77.269C109.718 77.6084 105.27 65.8322 106.399 64.2044C107.529 62.5766 127.078 60.2172 127.131 59.003C127.168 58.319 124.443 52.5661 122.062 45.4028C119.31 37.1314 125.227 39.3424 127.221 41.6276Z" fill="#EB9481"/>
<path d="M109.549 62.9954C109.549 62.9954 103.918 63.3135 100.243 63.6952C98.1914 63.9073 94.7132 64.586 93.2763 65.4291C91.1554 66.691 82.9688 73.3453 84.5382 75.3601C85.9592 77.184 92.2476 70.5881 92.2476 70.5881C92.2476 70.5881 85.3124 76.6962 87.4332 78.5732C89.5541 80.4502 95.657 72.0409 95.657 72.0409C95.657 72.0409 88.674 78.4725 91.1607 80.0684C93.043 81.272 99.008 73.9656 99.008 73.9656C99.008 73.9656 93.043 79.5382 94.9253 80.8585C97.0037 82.3166 102.932 75.9221 102.932 75.9221C108.276 78.4778 111.871 77.5128 114.342 76.5107C114.941 76.2827 109.549 62.9954 109.549 62.9954Z" fill="#EB9481"/>
<path d="M94.5224 68.3294C93.6847 69.0134 92.8257 69.708 92.0516 70.4503C91.2775 71.1926 90.5245 71.9986 89.8193 72.8257C88.8819 73.8929 88.0689 75.0634 87.3962 76.3146C88.7536 74.1937 91.4895 71.4153 92.269 70.6571C93.0484 69.8989 93.7801 69.0983 94.5542 68.3401C94.5648 68.3295 94.5224 68.2976 94.5224 68.3294Z" fill="#263238"/>
<path d="M97.3113 71.0654C96.2509 71.9933 95.1904 72.8681 94.2201 73.8437C93.2498 74.8193 92.375 75.8109 91.4524 76.8448C91.3835 76.9243 91.4524 76.9349 91.5213 76.8448C92.481 75.8533 93.446 75.0049 94.4216 74.024C95.3972 73.0431 96.3304 72.0198 97.3325 71.076C97.3484 71.076 97.3272 71.0495 97.3113 71.0654Z" fill="#263238"/>
<path d="M100.132 73.0007C98.5106 74.3791 97.0358 75.9214 95.7313 77.603C95.6624 77.6878 95.7313 77.6931 95.8267 77.603C97.2583 76.0441 98.3718 74.8087 100.18 73.0431C100.212 73.0272 100.169 72.9689 100.132 73.0007Z" fill="#263238"/>
<path d="M105.737 63.1968C103.165 63.3452 100.53 63.499 97.9794 63.8596C95.7662 64.106 93.65 64.9026 91.8236 66.1766C90.1023 67.5109 88.5051 68.998 87.0516 70.6199C86.2157 71.439 85.4725 72.3476 84.8353 73.3293C84.48 73.9284 83.9604 74.8722 84.5277 75.4502C85.217 76.1766 87.5394 75.2752 89.8883 72.8521C89.9731 72.7672 89.9148 72.7195 89.8246 72.7991C86.5055 75.869 85.0845 75.6304 84.6868 75.1638C84.4323 74.8669 84.6232 74.3049 84.8088 73.8754C85.1135 73.253 85.4966 72.6721 85.9487 72.1469C87.442 70.3169 89.1192 68.645 90.954 67.1575C92.921 65.5026 95.3162 64.4382 97.8628 64.0875C100.471 63.7058 103.165 63.7376 105.752 63.3187C105.805 63.2869 105.79 63.1968 105.737 63.1968Z" fill="#263238"/>
<path d="M135.508 51.2351L123.552 51.9403C122.594 49.2019 121.854 46.3917 121.341 43.5363C121.309 43.3666 121.283 43.197 121.256 43.0379C121.256 42.9849 121.256 42.9372 121.256 42.8894C120.583 38.4886 121.956 37.2691 126.214 40.6837C128.23 42.3233 130.086 44.152 131.754 46.145L131.908 46.3253C132.714 47.2797 133.393 48.1651 133.939 48.9127C134.05 49.0665 134.162 49.215 134.257 49.3581C135.063 50.4928 135.508 51.2351 135.508 51.2351Z" fill="#FFC727"/>
<path d="M123.875 39.8673C123.876 39.9222 123.861 39.9763 123.831 40.0224C123.801 40.0685 123.758 40.1047 123.708 40.1262C123.657 40.1477 123.601 40.1537 123.547 40.1432C123.493 40.1327 123.443 40.1064 123.405 40.0675C123.366 40.0286 123.339 39.979 123.329 39.925C123.318 39.871 123.324 39.8152 123.346 39.7646C123.367 39.714 123.404 39.671 123.45 39.6411C123.496 39.6112 123.55 39.5958 123.605 39.5969C123.677 39.5969 123.745 39.6253 123.796 39.6761C123.847 39.7268 123.875 39.7955 123.875 39.8673Z" fill="white"/>
<path d="M123.875 46.0602C123.875 46.1149 123.859 46.1685 123.828 46.2139C123.798 46.2594 123.755 46.2947 123.704 46.3154C123.653 46.3361 123.597 46.3412 123.544 46.3302C123.49 46.3191 123.441 46.2923 123.403 46.2532C123.364 46.2141 123.339 46.1645 123.329 46.1107C123.318 46.0568 123.325 46.0012 123.346 45.951C123.368 45.9007 123.404 45.858 123.45 45.8283C123.496 45.7987 123.55 45.7834 123.605 45.7845C123.641 45.7845 123.676 45.7916 123.71 45.8056C123.743 45.8195 123.773 45.8399 123.798 45.8655C123.823 45.8912 123.843 45.9217 123.856 45.9551C123.87 45.9885 123.876 46.0242 123.875 46.0602Z" fill="white"/>
<path d="M127.799 46.3254C127.951 46.3254 128.075 46.2019 128.075 46.0496C128.075 45.8974 127.951 45.7739 127.799 45.7739C127.647 45.7739 127.523 45.8974 127.523 46.0496C127.523 46.2019 127.647 46.3254 127.799 46.3254Z" fill="white"/>
<path d="M121.505 43.1972C121.657 43.1972 121.781 43.0737 121.781 42.9215C121.781 42.7692 121.657 42.6458 121.505 42.6458C121.353 42.6458 121.229 42.7692 121.229 42.9215C121.229 43.0737 121.353 43.1972 121.505 43.1972Z" fill="white"/>
<path d="M125.699 43.1972C125.851 43.1972 125.975 43.0737 125.975 42.9215C125.975 42.7692 125.851 42.6458 125.699 42.6458C125.547 42.6458 125.423 42.7692 125.423 42.9215C125.423 43.0737 125.547 43.1972 125.699 43.1972Z" fill="white"/>
<path d="M125.699 49.3793C125.851 49.3793 125.975 49.2559 125.975 49.1036C125.975 48.9513 125.851 48.8279 125.699 48.8279C125.547 48.8279 125.423 48.9513 125.423 49.1036C125.423 49.2559 125.547 49.3793 125.699 49.3793Z" fill="white"/>
<path d="M129.899 49.3793C130.051 49.3793 130.174 49.2559 130.174 49.1036C130.174 48.9513 130.051 48.8279 129.899 48.8279C129.746 48.8279 129.623 48.9513 129.623 49.1036C129.623 49.2559 129.746 49.3793 129.899 49.3793Z" fill="white"/>
<path d="M134.236 49.337C134.193 49.3645 134.143 49.3793 134.093 49.3794C134.02 49.3794 133.949 49.3504 133.898 49.2987C133.846 49.2469 133.817 49.1768 133.817 49.1037C133.816 49.063 133.825 49.0227 133.843 48.9859C133.86 48.9491 133.886 48.9168 133.918 48.8916C134.029 49.0454 134.14 49.1938 134.236 49.337Z" fill="white"/>
<path d="M116.558 18.4888C115.896 18.2396 115.259 14.5227 117.709 12.7518C120.159 10.9809 123.282 13.001 121.951 16.0498C121.139 17.9586 117.969 19.019 116.558 18.4888Z" fill="#263238"/>
<path d="M123.547 38.9552L123.51 38.9976C121.558 41.0867 117.629 44.8778 115 44.549C114.221 44.4219 113.478 44.1319 112.819 43.6979C112.16 43.2639 111.601 42.6957 111.177 42.0305C111.954 41.0484 112.801 40.1234 113.711 39.2627C116.792 36.0655 120.328 36.7654 123.547 38.9552Z" fill="#EB9481"/>
<path d="M119.771 38.3773C119.729 38.9446 117.651 42.916 115.143 43.1917C114.321 43.2765 113.637 38.8121 113.637 38.8121L113.51 38.4939L111.755 34.0348L116.638 29.7029L117.348 29.1196C117.348 29.1196 117.751 30.3709 118.234 31.9351C118.234 32.0093 118.276 32.0783 118.303 32.1578C118.329 32.2373 118.361 32.3275 118.382 32.4123C118.456 32.6403 118.531 32.8789 118.605 33.1175C118.679 33.3561 118.711 33.478 118.764 33.6477C118.817 33.8174 118.865 34.0242 118.923 34.2203C119.299 35.5854 119.582 36.9742 119.771 38.3773Z" fill="#EB9481"/>
<path d="M118.234 31.9351C117.97 33.3058 117.41 34.6025 116.595 35.7352C115.779 36.8678 114.726 37.8092 113.51 38.4939L111.755 34.0348L116.638 29.7029L117.348 29.1196C117.348 29.1196 117.751 30.3709 118.234 31.9351Z" fill="#263238"/>
<path d="M104.31 27.635C104.84 36.0284 109.941 36.6487 111.733 36.5321C113.377 36.426 118.955 35.8481 119.283 27.4494C119.612 19.0507 115.54 16.6435 111.77 16.6912C108 16.739 103.769 19.2469 104.31 27.635Z" fill="#EB9481"/>
<path d="M105.779 26.2617C105.97 26.2087 106.139 26.1345 106.309 26.0655C106.515 26.0241 106.701 25.916 106.839 25.758C106.872 25.7011 106.886 25.6348 106.877 25.5696C106.868 25.5043 106.838 25.4438 106.792 25.3974C106.683 25.3207 106.557 25.2735 106.425 25.2605C106.293 25.2475 106.16 25.2691 106.039 25.3232C105.779 25.4004 105.556 25.5702 105.413 25.8004C105.385 25.8557 105.373 25.9179 105.379 25.9797C105.385 26.0414 105.409 26.1002 105.447 26.1488C105.486 26.1974 105.538 26.2339 105.597 26.254C105.655 26.274 105.719 26.2767 105.779 26.2617Z" fill="#263238"/>
<path d="M111.569 25.6573C111.374 25.6537 111.179 25.6396 110.986 25.6149C110.781 25.6292 110.578 25.5751 110.408 25.4611C110.36 25.4146 110.328 25.3535 110.319 25.2873C110.309 25.221 110.322 25.1535 110.355 25.0953C110.438 24.9926 110.548 24.914 110.672 24.8674C110.795 24.8208 110.929 24.808 111.06 24.8302C111.33 24.8297 111.589 24.9321 111.786 25.1165C111.83 25.1606 111.859 25.2164 111.871 25.2771C111.883 25.3377 111.878 25.4006 111.854 25.458C111.831 25.5154 111.792 25.5648 111.741 25.6002C111.691 25.6356 111.631 25.6554 111.569 25.6573Z" fill="#263238"/>
<path d="M110.742 27.9108C110.742 27.9108 110.789 27.9108 110.789 27.9532C110.837 28.5258 110.986 29.1727 111.521 29.3052V29.3371C110.88 29.3159 110.694 28.4569 110.742 27.9108Z" fill="#263238"/>
<path d="M111.182 27.2586C112.089 27.0889 112.37 28.9129 111.527 29.0719C110.683 29.231 110.429 27.4017 111.182 27.2586Z" fill="#263238"/>
<path d="M111.558 27.301C111.733 27.3806 111.914 27.5396 112.088 27.529C112.263 27.5184 112.454 27.301 112.571 27.0942C112.571 27.0942 112.603 27.0942 112.608 27.0942C112.666 27.4442 112.608 27.8259 112.216 27.932C111.823 28.038 111.59 27.7623 111.447 27.4018C111.442 27.3753 111.489 27.2692 111.558 27.301Z" fill="#263238"/>
<path d="M107.158 28.1865C107.158 28.1865 107.115 28.2236 107.12 28.2448C107.226 28.8069 107.258 29.4697 106.776 29.7401C106.776 29.7401 106.776 29.7772 106.776 29.7719C107.396 29.581 107.348 28.7061 107.158 28.1865Z" fill="#263238"/>
<path d="M106.558 27.6775C105.636 27.7518 105.858 29.5916 106.707 29.5174C107.555 29.4432 107.327 27.6139 106.558 27.6775Z" fill="#263238"/>
<path d="M106.187 27.847C106.055 27.9584 105.933 28.1546 105.763 28.1864C105.593 28.2182 105.392 28.0432 105.233 27.8682C105.265 28.2182 105.424 28.5734 105.763 28.5999C106.102 28.6265 106.267 28.2977 106.293 27.9372C106.304 27.8894 106.24 27.7993 106.187 27.847Z" fill="#263238"/>
<path d="M108.775 30.1165C108.468 30.19 108.172 30.3022 107.894 30.4505C107.841 28.6531 108.075 26.8609 107.995 25.0688C107.995 25.0547 107.99 25.0412 107.98 25.0313C107.97 25.0213 107.956 25.0157 107.942 25.0157C107.928 25.0157 107.915 25.0213 107.905 25.0313C107.895 25.0412 107.889 25.0547 107.889 25.0688C107.576 26.9819 107.457 28.9217 107.534 30.8588C107.534 31.055 108.791 30.2119 108.791 30.2119C108.791 30.2119 108.785 30.1165 108.775 30.1165Z" fill="#263238"/>
<path d="M118.764 28.1653C116.68 28.3826 115.185 22.0942 115.01 21.3201C115.095 21.8132 115.54 24.4272 115.349 24.5598C115.127 24.5862 114.901 24.5755 114.681 24.5279C114.636 24.2138 114.567 23.9037 114.475 23.6001C114.437 23.4569 114.475 23.9235 114.475 24.5014L114.077 24.4484C114.006 23.7744 113.845 23.1129 113.6 22.4813C113.504 22.2427 113.6 23.3668 113.494 24.3742C111.653 24.1043 109.787 24.0385 107.932 24.178C107.401 24.231 106.967 24.2999 106.574 24.3742C106.463 23.6001 106.436 22.7835 106.405 22.9479C106.315 23.4375 106.274 23.9348 106.283 24.4325L105.699 24.5598C105.493 23.4993 105.768 21.6541 105.63 21.9458C105.227 22.8417 104.996 23.8061 104.952 24.7877C104.225 25.037 104.04 25.2119 103.992 25.021C103.916 22.8348 104.618 20.6926 105.975 18.9765C108.223 16.1717 113.308 14.8355 116.749 18.1865C116.749 18.1865 119.368 19.4166 120.1 21.8981C120.832 24.3795 119.973 28.0327 118.764 28.1653Z" fill="#263238"/>
<path d="M118.006 28.176C118.006 28.176 119.427 25.3075 120.699 25.7741C121.972 26.2407 121.187 30.212 119.883 30.9384C119.721 31.0422 119.541 31.1124 119.352 31.1449C119.163 31.1773 118.969 31.1714 118.783 31.1273C118.596 31.0833 118.42 31.002 118.266 30.8885C118.111 30.775 117.981 30.6315 117.884 30.4665L118.006 28.176Z" fill="#EB9481"/>
<path d="M120.445 26.9087V26.9405C119.533 27.4707 119.162 28.4569 118.944 29.4431C118.986 29.3376 119.05 29.2423 119.132 29.164C119.214 29.0856 119.312 29.0259 119.42 28.9891C119.527 28.9523 119.641 28.9393 119.754 28.9508C119.867 28.9624 119.976 28.9983 120.074 29.0561C120.079 29.0586 120.084 29.0626 120.088 29.0678C120.091 29.073 120.093 29.0791 120.093 29.0852C120.093 29.0914 120.091 29.0975 120.088 29.1027C120.084 29.1079 120.079 29.1119 120.074 29.1144C119.895 29.0842 119.711 29.1109 119.549 29.1908C119.386 29.2708 119.252 29.3998 119.167 29.5598C119.022 29.8252 118.908 30.1063 118.828 30.3975C118.796 30.493 118.631 30.4665 118.647 30.3657V30.3392C118.441 29.0932 119.141 27.2321 120.445 26.9087Z" fill="#263238"/>
<path d="M108.748 31.5587C109.003 31.8713 109.333 32.1139 109.708 32.2639C109.917 32.3302 110.141 32.3302 110.349 32.2639C110.811 32.1314 110.811 31.7337 110.715 31.3466C110.663 31.1622 110.59 30.9843 110.498 30.8164C110.008 31.243 109.395 31.503 108.748 31.5587Z" fill="#263238"/>
<path d="M109.708 32.2745C109.916 32.3407 110.141 32.3407 110.349 32.2745C110.811 32.1419 110.811 31.7442 110.715 31.3572C110.468 31.3733 110.234 31.4728 110.051 31.6395C109.868 31.8061 109.747 32.03 109.708 32.2745Z" fill="#FF9CBD"/>
<path d="M101.659 39.3582C102.369 40.4097 102.753 41.6473 102.762 42.916C102.762 47.4229 97.8149 51.0761 91.712 51.0761C85.6092 51.0761 80.6729 47.4229 80.6729 42.916C80.6729 38.4091 85.6145 34.7559 91.712 34.7559C94.423 34.7119 97.0823 35.5002 99.3313 37.0146L103.138 36.0496L101.659 39.3582Z" fill="white"/>
<path d="M101.659 39.3583C102.364 40.3486 102.768 41.5221 102.821 42.7369C102.873 43.9516 102.573 45.1557 101.956 46.2034C101.339 47.2476 100.51 48.1508 99.5222 48.8545C98.5427 49.5713 97.4566 50.1295 96.3037 50.5088C95.154 50.8962 93.9608 51.1402 92.7513 51.2352C91.5415 51.3229 90.3255 51.2642 89.1299 51.0602C86.6993 50.6962 84.4383 49.5972 82.6506 47.9107C81.7621 47.044 81.0948 45.9766 80.7047 44.7983C80.3283 43.6022 80.3173 42.321 80.6729 41.1186C81.0401 39.9347 81.6918 38.8588 82.571 37.985C83.435 37.112 84.4431 36.3945 85.5509 35.8641C87.7598 34.8313 90.1978 34.3857 92.6293 34.5704C95.0584 34.7037 97.4034 35.5055 99.4055 36.8874H99.3048L103.122 35.9755L103.255 35.9436L103.197 36.0656L101.659 39.3583ZM101.659 39.3583L103.08 36.0232L103.154 36.108L99.3631 37.1313H99.3101L99.2624 37.0995C97.2804 35.7964 94.9786 35.0627 92.6081 34.9786C91.4305 34.9178 90.25 35.0015 89.0927 35.2278C87.9337 35.4313 86.8092 35.7972 85.7524 36.3148C84.6987 36.8214 83.7408 37.5067 82.921 38.3402C82.1054 39.1618 81.5029 40.1702 81.166 41.2777C80.8447 42.3849 80.8613 43.5627 81.2137 44.6605C81.5676 45.7623 82.1845 46.7614 83.0111 47.5714C84.7202 49.1987 86.8873 50.2628 89.22 50.6201C91.548 51.033 93.9411 50.8803 96.1977 50.1747C98.482 49.5177 100.458 48.0684 101.77 46.0867C102.388 45.075 102.712 43.9107 102.703 42.7252C102.669 41.5285 102.308 40.3641 101.659 39.3583Z" fill="#263238"/>
<path d="M87.7408 42.916C87.7408 42.6895 87.6736 42.4681 87.5477 42.2797C87.4219 42.0914 87.243 41.9446 87.0338 41.8579C86.8245 41.7712 86.5942 41.7486 86.372 41.7928C86.1499 41.837 85.9458 41.946 85.7856 42.1062C85.6255 42.2664 85.5164 42.4704 85.4722 42.6926C85.428 42.9148 85.4507 43.145 85.5374 43.3543C85.6241 43.5636 85.7709 43.7424 85.9592 43.8683C86.1475 43.9941 86.369 44.0613 86.5955 44.0613C86.8992 44.0613 87.1905 43.9406 87.4053 43.7259C87.6201 43.5111 87.7408 43.2198 87.7408 42.916Z" fill="#263238"/>
<path d="M92.8627 42.916C92.8627 42.6895 92.7955 42.4681 92.6697 42.2797C92.5438 42.0914 92.365 41.9446 92.1557 41.8579C91.9464 41.7712 91.7161 41.7486 91.494 41.7928C91.2718 41.837 91.0678 41.946 90.9076 42.1062C90.7474 42.2664 90.6383 42.4704 90.5942 42.6926C90.55 42.9148 90.5726 43.145 90.6593 43.3543C90.746 43.5636 90.8928 43.7424 91.0811 43.8683C91.2695 43.9941 91.4909 44.0613 91.7174 44.0613C92.0212 44.0613 92.3125 43.9406 92.5273 43.7259C92.742 43.5111 92.8627 43.2198 92.8627 42.916Z" fill="#263238"/>
<path d="M97.9793 42.916C97.9793 42.6895 97.9121 42.4681 97.7863 42.2797C97.6604 42.0914 97.4815 41.9446 97.2723 41.8579C97.063 41.7712 96.8327 41.7486 96.6106 41.7928C96.3884 41.837 96.1843 41.946 96.0242 42.1062C95.864 42.2664 95.7549 42.4704 95.7107 42.6926C95.6665 42.9148 95.6892 43.145 95.7759 43.3543C95.8626 43.5636 96.0094 43.7424 96.1977 43.8683C96.3861 43.9941 96.6075 44.0613 96.834 44.0613C97.1377 44.0613 97.429 43.9406 97.6438 43.7259C97.8586 43.5111 97.9793 43.2198 97.9793 42.916Z" fill="#263238"/>
<path d="M103.138 79.2096H61.5267V81.076H103.138V79.2096Z" fill="#455A64"/>
<path d="M82.4704 79.2096H61.5267V81.076H82.4704V79.2096Z" fill="#263238"/>
<path d="M80.217 81.0761H39.6657L34.3635 53.5311H74.9148L80.217 81.0761Z" fill="#455A64"/>
<path d="M59.7557 67.3008C59.7912 67.6151 59.7593 67.9332 59.662 68.2341C59.5646 68.535 59.4042 68.8116 59.1914 69.0455C58.9786 69.2794 58.7183 69.4652 58.4279 69.5904C58.1375 69.7156 57.8238 69.7774 57.5076 69.7717C56.8346 69.7608 56.189 69.5031 55.6935 69.0476C55.1979 68.5921 54.8869 67.9705 54.8194 67.3008C54.7855 66.9867 54.8188 66.669 54.9171 66.3688C55.0154 66.0686 55.1765 65.7927 55.3897 65.5595C55.6028 65.3263 55.8631 65.1411 56.1533 65.0163C56.4435 64.8914 56.7569 64.8297 57.0728 64.8353C57.7444 64.8462 58.3886 65.1033 58.8832 65.5578C59.3778 66.0123 59.6883 66.6325 59.7557 67.3008Z" fill="#A6A6A6"/>
<path d="M131.701 76.728C131.361 77.5516 130.746 78.2325 129.962 78.6556C129.178 79.0787 128.271 79.2181 127.396 79.0504C127.031 78.9804 126.676 78.8701 126.335 78.7217L126.966 77.2582C127.151 77.3417 127.342 77.4074 127.539 77.4544C128.084 77.59 128.66 77.5241 129.161 77.2688C129.662 77.0136 130.054 76.5862 130.264 76.0653C130.959 74.5594 130.726 71.4629 129.549 70.4767C129.469 70.4025 129.167 70.3177 128.101 70.7631C127.905 70.8479 127.682 70.9433 127.433 71.0653C127.242 71.1733 127.039 71.2587 126.829 71.3198L126.654 70.5457L126.431 69.7822C126.5 69.7556 126.606 69.7026 126.744 69.6337C127.228 69.3871 127.732 69.1797 128.25 69.0133C129.05 68.7747 129.925 68.7111 130.572 69.2572C132.475 70.8691 132.571 74.8404 131.701 76.728Z" fill="#FFC727"/>
<path d="M126.956 77.2583C127.14 77.3417 127.332 77.4074 127.528 77.4545L127.396 79.0451C127.031 78.9751 126.676 78.8648 126.335 78.7164L126.956 77.2583Z" fill="#263238"/>
<path d="M128.239 69.0135L128.09 70.7633C127.894 70.8481 127.672 70.9436 127.422 71.0655C127.231 71.1736 127.029 71.259 126.818 71.32L126.643 70.5459L126.42 69.7824C126.489 69.7559 126.595 69.7028 126.733 69.6339C127.218 69.3874 127.721 69.1799 128.239 69.0135Z" fill="#263238"/>
<path d="M127.385 65.6465L127.332 67.0622L127.3 67.9264L127.285 68.446L126.823 80.8903H116.086L115.625 68.446L115.609 67.9264L115.577 67.0622L115.524 65.6465H127.385Z" fill="#FFC727"/>
<path d="M127.385 65.6465L127.332 67.0622H115.577L115.524 65.6465H127.385Z" fill="#455A64"/>
<path d="M127.3 67.9265L127.285 68.4461H115.625L115.609 67.9265H127.3Z" fill="#455A64"/>
<path d="M53.3878 84.4163L53.2553 94.8669L51.7972 209.49H50.1588L48.7007 94.8669L48.5681 84.4163H53.3878Z" fill="#455A64"/>
<path d="M48.5681 84.4163H53.3878L53.2553 94.8669H48.7007L48.5681 84.4163Z" fill="#263238"/>
<path d="M169.607 84.4163L169.474 94.8669L168.016 209.49H166.378L164.92 94.8669L164.787 84.4163H169.607Z" fill="#455A64"/>
<path d="M169.607 84.4163L169.474 94.8669H164.92L164.787 84.4163H169.607Z" fill="#263238"/>
<path d="M36.6699 84.4163L36.5374 94.8669L35.0793 209.49H33.4409L31.9828 94.8669L31.8502 84.4163H36.6699Z" fill="#37474F"/>
<path d="M31.8502 84.4163H36.6699L36.5374 94.8669H31.9828L31.8502 84.4163Z" fill="#263238"/>
<path d="M152.884 84.4163L152.751 94.8669L151.293 209.49H149.655L148.196 94.8669L148.064 84.4163H152.884Z" fill="#37474F"/>
<path d="M148.064 84.4163H152.884L152.751 94.8669H148.196L148.064 84.4163Z" fill="#263238"/>
<path d="M149.273 173.223H34.2627V175.344H149.273V173.223Z" fill="#37474F"/>
<path d="M172.47 80.8904H157.571V86.9402H172.47V80.8904Z" fill="#455A64"/>
<path d="M157.571 80.8904H26.5905V86.9402H157.571V80.8904Z" fill="#37474F"/>
<path d="M53.4092 143.812C44.878 156.102 36.018 170.323 34.1993 185.487C34.1993 185.715 34.5493 185.778 34.5917 185.55C35.4955 181.406 36.6915 177.331 38.1707 173.355C43.966 171.579 49.6606 170.095 52.5609 164.209C55.5142 158.159 54.8938 150.423 54.1091 143.928C54.0561 143.578 53.5842 143.578 53.4092 143.812Z" fill="#FFC727"/>
<path d="M37.9797 173.074C41.9087 164.087 46.967 155.047 53.4303 147.624C53.4728 147.576 53.5417 147.624 53.5046 147.698C49.2628 152.974 46.0815 158.711 42.9532 164.549C45.8747 161.537 49.0772 158.838 51.845 155.651C51.898 155.593 51.9828 155.651 51.9351 155.742C49.1886 159.082 46.1928 162.714 42.6033 165.195C41.6489 166.988 40.6856 168.781 39.7136 170.577C39.9522 170.445 40.2014 170.323 40.4506 170.195C40.493 170.195 40.5301 170.238 40.4877 170.259C40.212 170.402 39.9575 170.551 39.6605 170.673C39.1992 171.521 38.7379 172.375 38.266 173.223C38.16 173.424 37.8949 173.265 37.9797 173.074Z" fill="#263238"/>
<path d="M40.9277 169.925C43.3077 168.572 45.5771 167.033 47.7145 165.323C47.7728 165.275 47.8577 165.36 47.7993 165.408C45.7288 167.223 43.457 168.796 41.0284 170.095C40.9171 170.132 40.8163 169.989 40.9277 169.925Z" fill="#263238"/>
<path d="M33.1175 186.903C33.1175 187.088 33.4515 187.072 33.4409 186.903C33.3455 181.929 33.1599 176.94 33.0856 171.945C34.2839 169.342 36.9775 167.841 38.8173 165.726C40.1409 164.183 41.2814 162.493 42.216 160.688C44.3782 156.38 45.641 151.677 45.9276 146.866C46.2987 141.537 43.7749 124.066 41.548 124.729C40.3974 125.079 36.8873 133.875 35.9753 136.776C34.497 141.558 33.4553 146.465 32.863 151.436C31.3889 163.159 31.8874 175.163 33.1175 186.903Z" fill="#FFC727"/>
<path d="M32.4868 165.471C32.5769 159.177 33.8123 152.788 34.9576 146.654C36.1983 140.042 37.6882 133.806 40.9013 127.852C40.9597 127.741 41.124 127.852 41.071 127.947C38.9563 132.569 37.3561 137.409 36.299 142.38C36.5164 142.019 36.7815 141.68 37.0095 141.32C37.0944 141.187 37.3171 141.32 37.2322 141.441C36.9457 141.981 36.6064 142.491 36.2195 142.963C36.2039 142.967 36.1874 142.967 36.1718 142.963C35.1485 147.693 34.4486 152.507 33.8759 157.332C33.9237 157.269 33.9767 157.2 34.0297 157.141C34.0827 157.083 34.1251 157.141 34.1039 157.194C34.0191 157.359 33.9237 157.518 33.8335 157.677C33.5419 160.121 33.3033 162.555 33.0117 164.973C37.2534 161.144 40.8059 156.68 42.7359 151.245C42.7359 151.219 42.7836 151.245 42.7783 151.245C40.896 156.881 37.8155 161.929 32.9587 165.455C32.8844 166.107 32.8155 166.759 32.7413 167.406C32.7413 167.539 32.508 167.512 32.508 167.406C32.508 166.834 32.508 166.261 32.508 165.683C32.4902 165.673 32.4751 165.658 32.464 165.64C32.4528 165.623 32.446 165.603 32.4439 165.582C32.4418 165.562 32.4446 165.541 32.4521 165.522C32.4595 165.502 32.4714 165.485 32.4868 165.471Z" fill="#263238"/>
<path d="M34.2364 156.304C37.4177 151.272 40.3551 146.383 42.6192 140.858C42.6192 140.795 42.7464 140.858 42.7252 140.901C40.8429 146.383 38.1441 151.956 34.406 156.426C34.3318 156.516 34.1728 156.404 34.2364 156.304Z" fill="#263238"/>
<path d="M38.1599 139.766C39.459 137.301 40.8376 134.899 42.0518 132.385C42.0889 132.316 42.1843 132.385 42.1578 132.444C41.1756 135.051 39.9058 137.541 38.372 139.867C38.3546 139.887 38.331 139.901 38.305 139.906C38.2789 139.911 38.2518 139.908 38.2278 139.897C38.2038 139.885 38.1842 139.866 38.1719 139.843C38.1597 139.819 38.1555 139.792 38.1599 139.766Z" fill="#263238"/>
<path d="M37.6509 140.837C37.6828 140.837 37.6828 140.874 37.6509 140.879C37.6191 140.885 37.6244 140.837 37.6509 140.837Z" fill="#263238"/>
<path d="M30.4984 171.924C30.5267 175.22 30.2319 178.51 29.6182 181.749C29.6818 182.099 29.7401 182.449 29.8038 182.809C30.737 179.214 31.2513 172.115 31.246 171.51C31.2436 166.554 30.7319 161.611 29.7189 156.759C27.9162 147.672 24.3001 139.002 17.736 132.369C17.682 132.326 17.6188 132.295 17.5512 132.28C17.4836 132.265 17.4134 132.265 17.3459 132.281C17.2784 132.297 17.2155 132.328 17.1618 132.371C17.1081 132.415 17.0651 132.471 17.0361 132.534C14.6554 139.14 15.7795 146.913 18.1548 153.366C19.446 156.85 21.2375 160.128 23.4729 163.096C25.7635 166.102 28.6267 168.621 30.4984 171.924Z" fill="#FFC727"/>
<path d="M18.5788 135.376C24.8938 144.994 29.4325 156.489 30.2808 168.043C30.2808 168.249 29.9521 168.313 29.915 168.101C29.74 167.067 29.5544 166.044 29.3582 165.02C26.792 162.703 24.1568 160.248 22.2798 157.316C22.248 157.269 22.3222 157.205 22.3646 157.247C24.6075 159.67 26.7071 162.152 29.2257 164.294C28.7237 161.749 28.1334 159.246 27.4547 156.786L26.9616 156.256C26.8556 156.134 27.0253 155.948 27.1366 156.07L27.2851 156.224C26.333 152.841 25.1804 149.518 23.8333 146.272C22.2427 144.485 20.477 142.953 19.2946 140.773C19.2915 140.763 19.2918 140.752 19.2956 140.742C19.2994 140.732 19.3065 140.724 19.3156 140.718C19.3248 140.713 19.3356 140.711 19.3462 140.712C19.3568 140.713 19.3667 140.718 19.3742 140.726C20.3074 141.961 21.2193 143.207 22.2692 144.347C22.6934 144.803 23.1493 145.227 23.5841 145.673C22.0926 142.161 20.3416 138.765 18.3456 135.514C18.3346 135.483 18.3345 135.45 18.3454 135.42C18.3562 135.39 18.3773 135.364 18.405 135.348C18.4327 135.332 18.4652 135.325 18.497 135.33C18.5287 135.336 18.5577 135.352 18.5788 135.376Z" fill="#263238"/>
<path d="M20.1484 147.422C22.1738 149.994 24.4697 152.433 26.3626 155.095C26.4156 155.169 26.3042 155.254 26.2353 155.196C23.844 153.075 21.7868 150.148 20.0158 147.502C19.9628 147.422 20.0848 147.332 20.1484 147.422Z" fill="#263238"/>
<path d="M26.6542 155.694L26.7444 155.773C26.8027 155.832 26.7126 155.922 26.6542 155.869L26.5694 155.784C26.5058 155.731 26.5906 155.635 26.6542 155.694Z" fill="#263238"/>
<path d="M8.49422 151.574C9.12518 156.595 11.9513 162.539 15.2969 166.33C16.776 167.978 18.5817 169.299 20.5991 170.211C22.8685 171.272 25.2492 172.459 27.5874 173.297C28.7679 176.068 29.6702 178.948 30.281 181.897C30.3446 181.643 30.4135 181.367 30.4824 181.123C28.6267 168.398 20.053 157.74 9.27365 151.049C9.1885 151.003 9.09235 150.981 8.99563 150.986C8.89891 150.99 8.80532 151.021 8.72501 151.076C8.64469 151.13 8.58072 151.205 8.54004 151.293C8.49935 151.38 8.48351 151.478 8.49422 151.574Z" fill="#FFC727"/>
<path d="M12.2534 155.222C12.1792 155.158 12.2534 155.02 12.3594 155.079C18.0752 159.061 23.2926 164.962 26.2936 171.272C26.3784 171.441 26.1399 171.606 26.0338 171.431C25.5036 170.588 24.9734 169.766 24.4431 168.955C22.02 168.567 19.6712 166.94 17.8525 165.381C17.8048 165.338 17.8525 165.264 17.9214 165.307C18.8681 166.119 19.9139 166.809 21.0338 167.359C22.048 167.786 23.0832 168.161 24.1356 168.483C23.1971 167.093 22.2268 165.763 21.2194 164.469C18.6001 163.663 16.0816 162.141 13.8547 160.609C13.7857 160.561 13.8547 160.444 13.9236 160.487C16.1404 161.741 18.4218 162.877 20.7581 163.891C19.2301 161.992 17.5888 160.188 15.843 158.488C15.0105 158.08 14.1675 157.666 13.3615 157.226C13.3504 157.217 13.3424 157.204 13.3387 157.19C13.3351 157.176 13.336 157.161 13.3413 157.148C13.3466 157.134 13.356 157.123 13.3682 157.115C13.3804 157.107 13.3948 157.103 13.4093 157.104C14.0761 157.315 14.7152 157.605 15.3128 157.968C14.3425 157.04 13.335 156.118 12.2534 155.222Z" fill="#263238"/>
<path d="M12.6087 159.618C12.7538 159.7 12.8921 159.794 13.0223 159.899C13.0594 159.93 13.0223 159.983 12.9745 159.962C12.8223 159.901 12.6766 159.825 12.5398 159.734C12.5277 159.724 12.5196 159.709 12.5171 159.693C12.5146 159.677 12.5176 159.661 12.5258 159.647C12.534 159.633 12.5468 159.623 12.5619 159.617C12.577 159.612 12.5936 159.612 12.6087 159.618Z" fill="#263238"/>
<path d="M43.3297 174.251L42.9055 183.949L41.739 210.55H22.9427L21.7762 183.949L21.3521 174.251H43.3297Z" fill="#37474F"/>
<path d="M43.3297 174.251L42.9055 183.949H21.7762L21.3521 174.251H43.3297Z" fill="#263238"/>
<path d="M44.9468 172.263H19.7349V178.377H44.9468V172.263Z" fill="#37474F"/>
</svg>
