<svg width="34" height="34" viewBox="0 0 34 34" fill="none" xmlns="http://www.w3.org/2000/svg">
<path d="M17 5.66666C18.5029 5.66666 19.9442 6.26368 21.0069 7.32638C22.0696 8.38909 22.6667 9.83043 22.6667 11.3333C22.6667 12.8362 22.0696 14.2776 21.0069 15.3403C19.9442 16.403 18.5029 17 17 17C15.4971 17 14.0558 16.403 12.9931 15.3403C11.9304 14.2776 11.3333 12.8362 11.3333 11.3333C11.3333 9.83043 11.9304 8.38909 12.9931 7.32638C14.0558 6.26368 15.4971 5.66666 17 5.66666ZM17 19.8333C23.2617 19.8333 28.3333 22.3692 28.3333 25.5V28.3333H5.66666V25.5C5.66666 22.3692 10.7383 19.8333 17 19.8333Z" fill="white"/>
</svg>
