<svg width="40" height="40" viewBox="0 0 40 40" fill="none" xmlns="http://www.w3.org/2000/svg">
<path d="M10.8333 31.6666C8.75442 31.6666 6.98498 30.941 5.52498 29.4899C4.06387 28.041 3.33331 26.276 3.33331 24.1949C3.33331 22.2849 3.98609 20.5899 5.29165 19.1099C6.5972 17.6299 8.21998 16.8349 10.16 16.7249C10.5344 14.2971 11.6511 12.2916 13.51 10.7083C15.3689 9.12492 17.5322 8.33325 20 8.33325C22.78 8.33325 25.1416 9.30492 27.085 11.2483C29.0283 13.1916 30 15.5533 30 18.3333V19.9999H31.0266C32.6222 20.051 33.9611 20.6371 35.0433 21.7583C36.1255 22.8794 36.6666 24.2377 36.6666 25.8333C36.6666 27.4677 36.1033 28.8488 34.9766 29.9766C33.8478 31.1033 32.4666 31.6666 30.8333 31.6666H20.8333V19.2999L23.7766 22.2333C23.9322 22.3888 24.1211 22.4666 24.3433 22.4666C24.5655 22.4666 24.7589 22.386 24.9233 22.2249C25.1011 22.0694 25.1844 21.8727 25.1733 21.6349C25.1622 21.3971 25.0789 21.2005 24.9233 21.0449L20.9416 17.0649C20.6728 16.7949 20.3589 16.6599 20 16.6599C19.6411 16.6599 19.3272 16.7949 19.0583 17.0649L15.0766 21.0449C14.9211 21.2005 14.8361 21.3955 14.8216 21.6299C14.8072 21.8644 14.8922 22.0627 15.0766 22.2249C15.2322 22.3805 15.4272 22.4544 15.6616 22.4466C15.895 22.4399 16.0933 22.3583 16.2566 22.2016L19.1666 19.3016V31.6666H10.8333Z" fill="#9CA3AF"/>
</svg>
