<svg width="40" height="40" viewBox="0 0 40 40" fill="none" xmlns="http://www.w3.org/2000/svg">
<path d="M21.6667 35C21.1945 35 20.7989 34.84 20.48 34.52C20.1611 34.2 20.0011 33.8044 20 33.3333C19.9989 32.8622 20.1589 32.4667 20.48 32.1467C20.8011 31.8267 21.1967 31.6667 21.6667 31.6667H31.6667V8.33333H21.6667C21.1945 8.33333 20.7989 8.17333 20.48 7.85333C20.1611 7.53333 20.0011 7.13778 20 6.66667C19.9989 6.19556 20.1589 5.8 20.48 5.48C20.8011 5.16 21.1967 5 21.6667 5H31.6667C32.5833 5 33.3683 5.32667 34.0217 5.98C34.675 6.63333 35.0011 7.41778 35 8.33333V31.6667C35 32.5833 34.6739 33.3683 34.0217 34.0217C33.3694 34.675 32.5844 35.0011 31.6667 35H21.6667ZM18.625 21.6667H6.66667C6.19445 21.6667 5.79889 21.5067 5.48001 21.1867C5.16112 20.8667 5.00112 20.4711 5.00001 20C4.99889 19.5289 5.15889 19.1333 5.48001 18.8133C5.80112 18.4933 6.19667 18.3333 6.66667 18.3333H18.625L15.5 15.2083C15.1945 14.9028 15.0417 14.5278 15.0417 14.0833C15.0417 13.6389 15.1945 13.25 15.5 12.9167C15.8056 12.5833 16.1944 12.4094 16.6667 12.395C17.1389 12.3806 17.5417 12.5406 17.875 12.875L23.8333 18.8333C24.1667 19.1667 24.3333 19.5556 24.3333 20C24.3333 20.4444 24.1667 20.8333 23.8333 21.1667L17.875 27.125C17.5417 27.4583 17.1461 27.6183 16.6883 27.605C16.2306 27.5917 15.8344 27.4178 15.5 27.0833C15.1945 26.75 15.0489 26.3544 15.0633 25.8967C15.0778 25.4389 15.2372 25.0567 15.5417 24.75L18.625 21.6667Z" fill="#5B687A"/>
</svg>
