<svg width="20" height="23" viewBox="0 0 20 23" fill="none" xmlns="http://www.w3.org/2000/svg">
<path fill-rule="evenodd" clip-rule="evenodd" d="M14.0833 0C14.3707 0 14.6462 0.114137 14.8494 0.317301C15.0525 0.520465 15.1667 0.796016 15.1667 1.08333V2.16667H17.3333C17.908 2.16667 18.4591 2.39494 18.8654 2.80127C19.2717 3.2076 19.5 3.7587 19.5 4.33333V17.3333C19.5 17.908 19.2717 18.4591 18.8654 18.8654C18.4591 19.2717 17.908 19.5 17.3333 19.5H2.16667C1.59203 19.5 1.04093 19.2717 0.634602 18.8654C0.228273 18.4591 0 17.908 0 17.3333V4.33333C0 3.7587 0.228273 3.2076 0.634602 2.80127C1.04093 2.39494 1.59203 2.16667 2.16667 2.16667H4.33333V1.08333C4.33333 0.796016 4.44747 0.520465 4.65063 0.317301C4.8538 0.114137 5.12935 0 5.41667 0C5.70398 0 5.97953 0.114137 6.1827 0.317301C6.38586 0.520465 6.5 0.796016 6.5 1.08333V2.16667H13V1.08333C13 0.796016 13.1141 0.520465 13.3173 0.317301C13.5205 0.114137 13.796 0 14.0833 0ZM5.4275 14.0833H5.41667C5.14055 14.0836 4.87497 14.1894 4.67418 14.3789C4.4734 14.5685 4.35258 14.8275 4.3364 15.1032C4.32022 15.3788 4.4099 15.6502 4.58712 15.862C4.76434 16.0737 5.01573 16.2098 5.28992 16.2424L5.4275 16.25C5.71482 16.25 5.99037 16.1359 6.19353 15.9327C6.3967 15.7295 6.51083 15.454 6.51083 15.1667C6.51083 14.8793 6.3967 14.6038 6.19353 14.4006C5.99037 14.1975 5.71482 14.0833 5.4275 14.0833ZM9.76083 14.0833H9.75C9.47388 14.0836 9.2083 14.1894 9.00752 14.3789C8.80674 14.5685 8.68591 14.8275 8.66973 15.1032C8.65355 15.3788 8.74323 15.6502 8.92045 15.862C9.09768 16.0737 9.34906 16.2098 9.62325 16.2424L9.76083 16.25C10.0482 16.25 10.3237 16.1359 10.5269 15.9327C10.73 15.7295 10.8442 15.454 10.8442 15.1667C10.8442 14.8793 10.73 14.6038 10.5269 14.4006C10.3237 14.1975 10.0482 14.0833 9.76083 14.0833ZM14.0942 14.0833H14.0833C13.8072 14.0836 13.5416 14.1894 13.3409 14.3789C13.1401 14.5685 13.0192 14.8275 13.0031 15.1032C12.9869 15.3788 13.0766 15.6502 13.2538 15.862C13.431 16.0737 13.6824 16.2098 13.9566 16.2424L14.0942 16.25C14.3815 16.25 14.657 16.1359 14.8602 15.9327C15.0634 15.7295 15.1775 15.454 15.1775 15.1667C15.1775 14.8793 15.0634 14.6038 14.8602 14.4006C14.657 14.1975 14.3815 14.0833 14.0942 14.0833ZM5.4275 9.75H5.41667C5.14055 9.75031 4.87497 9.85604 4.67418 10.0456C4.4734 10.2351 4.35258 10.4942 4.3364 10.7698C4.32022 11.0455 4.4099 11.3169 4.58712 11.5287C4.76434 11.7404 5.01573 11.8765 5.28992 11.9091L5.4275 11.9167C5.71482 11.9167 5.99037 11.8025 6.19353 11.5994C6.3967 11.3962 6.51083 11.1207 6.51083 10.8333C6.51083 10.546 6.3967 10.2705 6.19353 10.0673C5.99037 9.86414 5.71482 9.75 5.4275 9.75ZM9.76083 9.75H9.75C9.47388 9.75031 9.2083 9.85604 9.00752 10.0456C8.80674 10.2351 8.68591 10.4942 8.66973 10.7698C8.65355 11.0455 8.74323 11.3169 8.92045 11.5287C9.09768 11.7404 9.34906 11.8765 9.62325 11.9091L9.76083 11.9167C10.0482 11.9167 10.3237 11.8025 10.5269 11.5994C10.73 11.3962 10.8442 11.1207 10.8442 10.8333C10.8442 10.546 10.73 10.2705 10.5269 10.0673C10.3237 9.86414 10.0482 9.75 9.76083 9.75ZM14.0942 9.75H14.0833C13.8072 9.75031 13.5416 9.85604 13.3409 10.0456C13.1401 10.2351 13.0192 10.4942 13.0031 10.7698C12.9869 11.0455 13.0766 11.3169 13.2538 11.5287C13.431 11.7404 13.6824 11.8765 13.9566 11.9091L14.0942 11.9167C14.3815 11.9167 14.657 11.8025 14.8602 11.5994C15.0634 11.3962 15.1775 11.1207 15.1775 10.8333C15.1775 10.546 15.0634 10.2705 14.8602 10.0673C14.657 9.86414 14.3815 9.75 14.0942 9.75ZM17.3333 4.33333H2.16667V6.5H17.3333V4.33333Z" fill="white"/>
</svg>
