<svg width="33" height="33" viewBox="0 0 33 33" fill="none" xmlns="http://www.w3.org/2000/svg">
<path d="M12.2169 16.9235H20.7831C20.9784 16.9235 21.142 16.8575 21.274 16.7255C21.406 16.5935 21.472 16.4299 21.472 16.2346C21.472 16.0394 21.406 15.8762 21.274 15.7451C21.142 15.614 20.9788 15.5485 20.7845 15.5485H12.2169C12.0216 15.5485 11.858 15.6145 11.726 15.7465C11.5949 15.8785 11.5294 16.0417 11.5294 16.236C11.5294 16.4312 11.5949 16.5949 11.726 16.7269C11.8571 16.8589 12.0207 16.9244 12.2169 16.9235ZM12.2169 20.7309H20.7831C20.9784 20.7309 21.142 20.6649 21.274 20.5329C21.406 20.4009 21.472 20.2372 21.472 20.042C21.472 19.8468 21.406 19.6836 21.274 19.5525C21.142 19.4214 20.9788 19.3559 20.7845 19.3559H12.2169C12.0216 19.3559 11.858 19.4219 11.726 19.5539C11.5949 19.6859 11.5294 19.8495 11.5294 20.0448C11.5294 20.24 11.5949 20.4032 11.726 20.5343C11.8571 20.6653 12.0207 20.7309 12.2169 20.7309ZM12.2169 24.5396H16.6581C16.8534 24.5396 17.017 24.4732 17.149 24.3403C17.281 24.2073 17.347 24.0442 17.347 23.8507C17.347 23.6573 17.281 23.4942 17.149 23.3612C17.017 23.2283 16.8538 23.1623 16.6595 23.1632H12.2169C12.0216 23.1632 11.858 23.2292 11.726 23.3612C11.5949 23.4932 11.5294 23.6569 11.5294 23.8521C11.5294 24.0474 11.5949 24.2105 11.726 24.3416C11.8571 24.4727 12.0207 24.5396 12.2169 24.5396ZM9.09562 28.875C8.46312 28.875 7.93512 28.6632 7.51162 28.2397C7.08812 27.8162 6.87592 27.2878 6.875 26.6544V6.34562C6.875 5.71312 7.08721 5.18513 7.51162 4.76163C7.93604 4.33813 8.4645 4.12592 9.097 4.125H19.0149C19.3183 4.125 19.608 4.18458 19.8839 4.30375C20.1598 4.42292 20.3972 4.58288 20.5961 4.78363L25.465 9.6525C25.6639 9.85233 25.8234 10.0898 25.9435 10.3647C26.0636 10.6398 26.1236 10.9294 26.1236 11.2338V26.653C26.1236 27.2855 25.9114 27.814 25.487 28.2384C25.0626 28.6628 24.535 28.875 23.9044 28.875H9.09562ZM19.25 9.9C19.25 10.2117 19.3554 10.4729 19.5663 10.6838C19.7771 10.8946 20.0383 11 20.35 11H24.75L19.25 5.5V9.9Z" fill="white"/>
</svg>
