<svg width="32" height="32" viewBox="0 0 32 32" fill="none" xmlns="http://www.w3.org/2000/svg">
<path d="M16 20.7666C15.8223 20.7666 15.6556 20.739 15.5 20.6839C15.3445 20.6288 15.2 20.5341 15.0667 20.3999L10.2667 15.5999C10 15.3333 9.87204 15.0221 9.88271 14.6666C9.89337 14.311 10.0214 13.9999 10.2667 13.7333C10.5334 13.4666 10.8503 13.3279 11.2174 13.3173C11.5845 13.3066 11.9009 13.4341 12.1667 13.6999L14.6667 16.1999V6.66659C14.6667 6.28881 14.7947 5.97237 15.0507 5.71726C15.3067 5.46215 15.6232 5.33415 16 5.33326C16.3769 5.33237 16.6938 5.46037 16.9507 5.71726C17.2076 5.97415 17.3352 6.29059 17.3334 6.66659V16.1999L19.8334 13.6999C20.1 13.4333 20.4169 13.3053 20.784 13.3159C21.1512 13.3266 21.4676 13.4657 21.7334 13.7333C21.9778 13.9999 22.1058 14.311 22.1174 14.6666C22.1289 15.0221 22.0009 15.3333 21.7334 15.5999L16.9334 20.3999C16.8 20.5333 16.6556 20.6279 16.5 20.6839C16.3445 20.7399 16.1778 20.7675 16 20.7666ZM8.00004 26.6666C7.26671 26.6666 6.63915 26.4057 6.11737 25.8839C5.5956 25.3621 5.33426 24.7341 5.33337 23.9999V21.3333C5.33337 20.9555 5.46137 20.639 5.71737 20.3839C5.97337 20.1288 6.28982 20.0008 6.66671 19.9999C7.0436 19.999 7.36049 20.127 7.61737 20.3839C7.87426 20.6408 8.00182 20.9573 8.00004 21.3333V23.9999H24V21.3333C24 20.9555 24.128 20.639 24.384 20.3839C24.64 20.1288 24.9565 20.0008 25.3334 19.9999C25.7103 19.999 26.0272 20.127 26.284 20.3839C26.5409 20.6408 26.6685 20.9573 26.6667 21.3333V23.9999C26.6667 24.7333 26.4058 25.3613 25.884 25.8839C25.3623 26.4066 24.7343 26.6675 24 26.6666H8.00004Z" fill="#9CA3AF"/>
</svg>
