<svg width="14" height="14" viewBox="0 0 14 14" fill="none" xmlns="http://www.w3.org/2000/svg">
<path d="M2.33329 11.6667C2.01246 11.6667 1.7379 11.5526 1.50963 11.3243C1.28135 11.096 1.16701 10.8213 1.16663 10.5V3.50004C1.16663 3.17921 1.28096 2.90465 1.50963 2.67637C1.73829 2.4481 2.01285 2.33376 2.33329 2.33337H11.6666C11.9875 2.33337 12.2622 2.44771 12.4909 2.67637C12.7195 2.90504 12.8337 3.1796 12.8333 3.50004V10.5C12.8333 10.8209 12.7192 11.0956 12.4909 11.3243C12.2626 11.553 11.9878 11.6671 11.6666 11.6667H2.33329ZM6.99996 7.48129C7.04857 7.48129 7.09971 7.4739 7.15338 7.45912C7.20704 7.44435 7.25799 7.42257 7.30621 7.39379L11.4333 4.81254C11.5111 4.76393 11.5694 4.70326 11.6083 4.63054C11.6472 4.55782 11.6666 4.47751 11.6666 4.38962C11.6666 4.19518 11.584 4.04935 11.4187 3.95212C11.2534 3.8549 11.0833 3.85976 10.9083 3.96671L6.99996 6.41671L3.09163 3.96671C2.91663 3.85976 2.74649 3.85743 2.58121 3.95971C2.41593 4.06199 2.33329 4.20529 2.33329 4.38962C2.33329 4.48685 2.35274 4.57201 2.39163 4.64512C2.43051 4.71824 2.48885 4.77404 2.56663 4.81254L6.69371 7.39379C6.74232 7.42296 6.79346 7.44493 6.84713 7.45971C6.90079 7.47448 6.95174 7.48168 6.99996 7.48129Z" fill="#5B687A"/>
</svg>
