<svg width="19" height="19" viewBox="0 0 19 19" fill="none" xmlns="http://www.w3.org/2000/svg">
<path d="M9.36574 7.125L11.8753 9.62667V9.5C11.8753 8.87011 11.6251 8.26602 11.1797 7.82062C10.7343 7.37522 10.1302 7.125 9.50033 7.125H9.36574ZM5.96158 7.75833L7.18866 8.98542C7.14908 9.15167 7.12533 9.31792 7.12533 9.5C7.12533 10.1299 7.37555 10.734 7.82095 11.1794C8.26635 11.6248 8.87044 11.875 9.50033 11.875C9.67449 11.875 9.84866 11.8513 10.0149 11.8117L11.242 13.0387C10.7116 13.3 10.1257 13.4583 9.50033 13.4583C8.45051 13.4583 7.44369 13.0413 6.70136 12.299C5.95903 11.5566 5.54199 10.5498 5.54199 9.5C5.54199 8.87458 5.70033 8.28875 5.96158 7.75833ZM1.58366 3.38042L3.38866 5.18542L3.74491 5.54167C2.43866 6.57083 1.40949 7.91667 0.791992 9.5C2.16158 12.9754 5.54199 15.4375 9.50033 15.4375C10.7274 15.4375 11.8991 15.2 12.9678 14.7725L13.3082 15.105L15.6199 17.4167L16.6253 16.4112L2.58908 2.375M9.50033 5.54167C10.5501 5.54167 11.557 5.9587 12.2993 6.70104C13.0416 7.44337 13.4587 8.45018 13.4587 9.5C13.4587 10.0067 13.3557 10.4975 13.1737 10.9408L15.4932 13.2604C16.6807 12.2708 17.6307 10.9725 18.2087 9.5C16.8391 6.02458 13.4587 3.5625 9.50033 3.5625C8.39199 3.5625 7.33116 3.76042 6.33366 4.11667L8.05158 5.81875C8.50283 5.64458 8.98574 5.54167 9.50033 5.54167Z" fill="#9CA3AF"/>
</svg>
