<svg width="34" height="34" viewBox="0 0 34 34" fill="none" xmlns="http://www.w3.org/2000/svg">
<path d="M17 29.75C13.7417 29.75 10.9027 28.67 8.483 26.5101C6.06333 24.3501 4.67594 21.6523 4.32083 18.4167H7.225C7.55556 20.8722 8.64781 22.9028 10.5017 24.5083C12.3557 26.1139 14.5218 26.9167 17 26.9167C19.7625 26.9167 22.1061 25.9547 24.0309 24.0309C25.9557 22.1071 26.9176 19.7634 26.9167 17C26.9157 14.2366 25.9538 11.8934 24.0309 9.9705C22.108 8.04761 19.7644 7.08522 17 7.08333C15.3708 7.08333 13.8479 7.46111 12.4312 8.21667C11.0146 8.97222 9.82222 10.0111 8.85417 11.3333H12.75V14.1667H4.25V5.66667H7.08333V8.99583C8.2875 7.48472 9.75753 6.31597 11.4934 5.48958C13.2293 4.66319 15.0648 4.25 17 4.25C18.7708 4.25 20.4297 4.58669 21.9767 5.26008C23.5237 5.93347 24.8696 6.84203 26.0142 7.98575C27.1589 9.12947 28.0679 10.4753 28.7413 12.0233C29.4147 13.5712 29.7509 15.2301 29.75 17C29.7491 18.7699 29.4128 20.4288 28.7413 21.9767C28.0698 23.5247 27.1608 24.8705 26.0142 26.0142C24.8677 27.158 23.5219 28.067 21.9767 28.7413C20.4316 29.4157 18.7727 29.7519 17 29.75ZM20.9667 22.95L15.5833 17.5667V9.91667H18.4167V16.4333L22.95 20.9667L20.9667 22.95Z" fill="white"/>
</svg>
