<svg width="34" height="34" viewBox="0 0 34 34" fill="none" xmlns="http://www.w3.org/2000/svg">
<path d="M5.66666 26.9167V14.1667C5.66666 13.7181 5.76725 13.2931 5.96841 12.8917C6.16958 12.4903 6.44678 12.1598 6.8 11.9L15.3 5.52504C15.7958 5.14726 16.3625 4.95837 17 4.95837C17.6375 4.95837 18.2042 5.14726 18.7 5.52504L27.2 11.9C27.5542 12.1598 27.8318 12.4903 28.033 12.8917C28.2342 13.2931 28.3343 13.7181 28.3333 14.1667V26.9167C28.3333 27.6959 28.0557 28.3631 27.5003 28.9185C26.945 29.4738 26.2782 29.751 25.5 29.75H21.25C20.8486 29.75 20.5124 29.614 20.2413 29.342C19.9703 29.07 19.8343 28.7338 19.8333 28.3334V21.25C19.8333 20.8487 19.6973 20.5124 19.4253 20.2414C19.1533 19.9703 18.8171 19.8343 18.4167 19.8334H15.5833C15.1819 19.8334 14.8457 19.9694 14.5747 20.2414C14.3036 20.5134 14.1676 20.8496 14.1667 21.25V28.3334C14.1667 28.7348 14.0307 29.0715 13.7587 29.3435C13.4867 29.6155 13.1504 29.751 12.75 29.75H8.5C7.72083 29.75 7.05405 29.4728 6.49966 28.9185C5.94527 28.3641 5.66761 27.6968 5.66666 26.9167Z" fill="white"/>
</svg>
