<svg width="19" height="19" viewBox="0 0 19 19" fill="none" xmlns="http://www.w3.org/2000/svg">
<path d="M9.50004 9.10421C8.97513 9.10421 8.47172 8.89569 8.10056 8.52452C7.72939 8.15336 7.52087 7.64995 7.52087 7.12504C7.52087 6.60013 7.72939 6.09672 8.10056 5.72556C8.47172 5.35439 8.97513 5.14587 9.50004 5.14587C10.0249 5.14587 10.5284 5.35439 10.8995 5.72556C11.2707 6.09672 11.4792 6.60013 11.4792 7.12504C11.4792 7.38495 11.428 7.64231 11.3286 7.88243C11.2291 8.12256 11.0833 8.34074 10.8995 8.52452C10.7157 8.7083 10.4976 8.85409 10.2574 8.95355C10.0173 9.05301 9.75995 9.10421 9.50004 9.10421ZM9.50004 1.58337C8.0303 1.58337 6.62075 2.16723 5.58149 3.20649C4.54223 4.24575 3.95837 5.6553 3.95837 7.12504C3.95837 11.2813 9.50004 17.4167 9.50004 17.4167C9.50004 17.4167 15.0417 11.2813 15.0417 7.12504C15.0417 5.6553 14.4579 4.24575 13.4186 3.20649C12.3793 2.16723 10.9698 1.58337 9.50004 1.58337Z" fill="#1C7C54"/>
</svg>
