<svg width="34" height="34" viewBox="0 0 34 34" fill="none" xmlns="http://www.w3.org/2000/svg">
<path d="M18.4167 16.4333L22.6667 20.6833C22.9264 20.943 23.0563 21.2736 23.0563 21.675C23.0563 22.0764 22.9264 22.4069 22.6667 22.6667C22.4069 22.9264 22.0764 23.0562 21.675 23.0562C21.2736 23.0562 20.9431 22.9264 20.6833 22.6667L16.0083 17.9917C15.8667 17.85 15.7604 17.6908 15.6896 17.5142C15.6188 17.3376 15.5833 17.1544 15.5833 16.9646V11.3333C15.5833 10.9319 15.7193 10.5957 15.9913 10.3247C16.2633 10.0536 16.5996 9.9176 17 9.91666C17.4004 9.91571 17.7371 10.0517 18.0101 10.3247C18.283 10.5976 18.4186 10.9338 18.4167 11.3333V16.4333ZM21.6042 7.08332C21.1083 7.08332 20.689 6.91238 20.3462 6.57049C20.0033 6.2286 19.8324 5.80927 19.8333 5.31249C19.8343 4.81571 20.0057 4.39638 20.3476 4.05449C20.6895 3.7126 21.1083 3.54166 21.6042 3.54166C22.1 3.54166 22.5193 3.71307 22.8622 4.0559C23.205 4.39874 23.3759 4.8176 23.375 5.31249C23.3741 5.80738 23.2026 6.22671 22.8608 6.57049C22.5189 6.91427 22.1 7.08521 21.6042 7.08332ZM21.6042 30.4583C21.1083 30.4583 20.689 30.2869 20.3462 29.9441C20.0033 29.6012 19.8324 29.1824 19.8333 28.6875C19.8343 28.1926 20.0057 27.7733 20.3476 27.4295C20.6895 27.0857 21.1083 26.9148 21.6042 26.9167C22.1 26.9185 22.5193 27.09 22.8622 27.4309C23.205 27.7718 23.3759 28.1907 23.375 28.6875C23.3741 29.1843 23.2026 29.6036 22.8608 29.9455C22.5189 30.2874 22.1 30.4583 21.6042 30.4583ZM27.2708 12.0417C26.775 12.0417 26.3557 11.8702 26.0128 11.5274C25.67 11.1846 25.4991 10.7657 25.5 10.2708C25.5009 9.77593 25.6724 9.3566 26.0143 9.01282C26.3561 8.66904 26.775 8.4981 27.2708 8.49999C27.7667 8.50188 28.186 8.67329 28.5288 9.01424C28.8717 9.35518 29.0426 9.77404 29.0417 10.2708C29.0407 10.7676 28.8693 11.1869 28.5274 11.5288C28.1855 11.8707 27.7667 12.0417 27.2708 12.0417ZM27.2708 25.5C26.775 25.5 26.3557 25.3286 26.0128 24.9857C25.67 24.6429 25.4991 24.224 25.5 23.7292C25.5009 23.2343 25.6724 22.8149 26.0143 22.4712C26.3561 22.1274 26.775 21.9564 27.2708 21.9583C27.7667 21.9602 28.186 22.1316 28.5288 22.4726C28.8717 22.8135 29.0426 23.2324 29.0417 23.7292C29.0407 24.2259 28.8693 24.6453 28.5274 24.9872C28.1855 25.329 27.7667 25.5 27.2708 25.5ZM29.3958 18.7708C28.9 18.7708 28.4807 18.5994 28.1378 18.2566C27.795 17.9137 27.6241 17.4949 27.625 17C27.6259 16.5051 27.7974 16.0858 28.1393 15.742C28.4811 15.3982 28.9 15.2273 29.3958 15.2292C29.8917 15.231 30.311 15.4025 30.6538 15.7434C30.9967 16.0843 31.1676 16.5032 31.1667 17C31.1657 17.4968 30.9943 17.9161 30.6524 18.258C30.3105 18.5999 29.8917 18.7708 29.3958 18.7708ZM2.83334 17C2.83334 13.293 4.06725 10.1055 6.53509 7.43749C9.00292 4.76943 12.0308 3.25832 15.6188 2.90416C15.9965 2.85693 16.3214 2.96932 16.5934 3.24132C16.8654 3.51332 17.0009 3.84954 17 4.24999C17 4.62777 16.8763 4.95832 16.6288 5.24166C16.3814 5.52499 16.0683 5.69027 15.6896 5.73749C12.8326 6.06804 10.4479 7.29582 8.53542 9.42082C6.62292 11.5458 5.66667 14.0722 5.66667 17C5.66667 19.9514 6.62292 22.4839 8.53542 24.5976C10.4479 26.7112 12.8326 27.9329 15.6896 28.2625C16.0674 28.3097 16.3804 28.475 16.6288 28.7583C16.8772 29.0417 17.0009 29.3722 17 29.75C17 30.1514 16.864 30.4881 16.592 30.7601C16.32 31.0321 15.9956 31.144 15.6188 31.0958C12.0063 30.7417 8.97222 29.2305 6.51667 26.5625C4.06111 23.8944 2.83334 20.7069 2.83334 17Z" fill="white"/>
</svg>
