<svg width="34" height="34" viewBox="0 0 34 34" fill="none" xmlns="http://www.w3.org/2000/svg">
<path d="M7.08333 29.75C6.30417 29.75 5.63739 29.4728 5.083 28.9184C4.52861 28.364 4.25094 27.6968 4.25 26.9167V7.08333C4.25 6.30417 4.52767 5.63739 5.083 5.083C5.63833 4.52861 6.30511 4.25094 7.08333 4.25H15.5833C15.9847 4.25 16.3214 4.386 16.5934 4.658C16.8654 4.93 17.0009 5.26622 17 5.66667C16.9991 6.06711 16.8631 6.40381 16.592 6.67675C16.3209 6.94969 15.9847 7.08522 15.5833 7.08333H7.08333V26.9167H15.5833C15.9847 26.9167 16.3214 27.0527 16.5934 27.3247C16.8654 27.5967 17.0009 27.9329 17 28.3333C16.9991 28.7338 16.8631 29.0705 16.592 29.3434C16.3209 29.6164 15.9847 29.7519 15.5833 29.75H7.08333ZM24.3312 18.4167H14.1667C13.7653 18.4167 13.4291 18.2807 13.158 18.0087C12.8869 17.7367 12.7509 17.4004 12.75 17C12.7491 16.5996 12.8851 16.2633 13.158 15.9913C13.4309 15.7193 13.7672 15.5833 14.1667 15.5833H24.3312L21.675 12.9271C21.4153 12.6674 21.2854 12.3486 21.2854 11.9708C21.2854 11.5931 21.4153 11.2625 21.675 10.9792C21.9347 10.6958 22.2653 10.548 22.6667 10.5357C23.0681 10.5235 23.4104 10.6595 23.6938 10.9437L28.7583 16.0083C29.0417 16.2917 29.1833 16.6222 29.1833 17C29.1833 17.3778 29.0417 17.7083 28.7583 17.9917L23.6938 23.0562C23.4104 23.3396 23.0742 23.4756 22.6851 23.4642C22.296 23.4529 21.9593 23.3051 21.675 23.0208C21.4153 22.7375 21.2916 22.4013 21.3038 22.0122C21.3161 21.6231 21.4516 21.2982 21.7104 21.0375L24.3312 18.4167Z" fill="white"/>
</svg>
