<svg width="38" height="38" viewBox="0 0 38 38" fill="none" xmlns="http://www.w3.org/2000/svg">
<path d="M15.8333 9.81675C15.8333 6.80841 13.9333 4.11675 11.0833 3.16675V9.02508H6.33331V3.16675C3.48331 4.11675 1.58331 6.80841 1.58331 9.81675C1.58331 12.8251 3.48331 15.5167 6.33331 16.4667V33.8834C6.33331 34.5167 6.64998 34.8334 7.12498 34.8334H10.2916C10.7666 34.8334 11.0833 34.5167 11.0833 34.0417V16.6251C13.9333 15.6751 15.8333 12.9834 15.8333 9.81675ZM25.3333 12.6667C19.1583 12.8251 14.25 17.7334 14.25 23.7501C14.25 29.9251 19.1583 34.8334 25.3333 34.8334C31.5083 34.8334 36.4166 29.9251 36.4166 23.7501C36.4166 17.5751 31.5083 12.6667 25.3333 12.6667ZM25.3333 31.6667C20.9 31.6667 17.4166 28.1834 17.4166 23.7501C17.4166 19.3167 20.9 15.8334 25.3333 15.8334C29.7666 15.8334 33.25 19.3167 33.25 23.7501C33.25 28.1834 29.7666 31.6667 25.3333 31.6667ZM23.75 17.4167V25.3334L29.45 28.8167L30.7166 26.9167L26.125 24.2251V17.4167H23.75Z" fill="#9CA3AF"/>
</svg>
