<svg width="34" height="34" viewBox="0 0 34 34" fill="none" xmlns="http://www.w3.org/2000/svg">
<path d="M15.9233 15.2906C19.2929 15.2906 22.0244 12.559 22.0244 9.18946C22.0244 5.81991 19.2929 3.08835 15.9233 3.08835C12.5538 3.08835 9.82222 5.81991 9.82222 9.18946C9.82222 12.559 12.5538 15.2906 15.9233 15.2906Z" fill="white"/>
<path d="M19.8333 26.4445H26.4444V27.7667H19.8333V26.4445Z" fill="white"/>
<path d="M14.1667 28.3333V31.1667C14.1667 31.4172 14.2662 31.6574 14.4433 31.8345C14.6204 32.0116 14.8606 32.1111 15.1111 32.1111H31.1667C31.4172 32.1111 31.6574 32.0116 31.8345 31.8345C32.0116 31.6574 32.1111 31.4172 32.1111 31.1667V21.7222C32.1111 21.4717 32.0116 21.2315 31.8345 21.0544C31.6574 20.8773 31.4172 20.7778 31.1667 20.7778H24.5556V19.3895C24.5556 19.139 24.4561 18.8987 24.2789 18.7216C24.1018 18.5445 23.8616 18.445 23.6111 18.445C23.3606 18.445 23.1204 18.5445 22.9433 18.7216C22.7662 18.8987 22.6667 19.139 22.6667 19.3895V20.7778H20.7778V17.3967C19.1729 17.1341 17.5495 17.0014 15.9233 17C12.3371 16.9848 8.79103 17.7552 5.53445 19.2572C4.99846 19.5102 4.54628 19.9116 4.23156 20.4138C3.91685 20.916 3.7528 21.4979 3.75889 22.0906V28.3333H14.1667ZM30.2222 30.2222H16.0556V22.6667H22.6667V23.0633C22.6667 23.3138 22.7662 23.554 22.9433 23.7312C23.1204 23.9083 23.3606 24.0078 23.6111 24.0078C23.8616 24.0078 24.1018 23.9083 24.2789 23.7312C24.4561 23.554 24.5556 23.3138 24.5556 23.0633V22.6667H30.2222V30.2222Z" fill="white"/>
</svg>
