<svg width="56" height="56" viewBox="0 0 56 56" fill="none" xmlns="http://www.w3.org/2000/svg">
<path d="M9.33333 49C8.67222 49 8.11844 48.776 7.672 48.328C7.22556 47.88 7.00156 47.3262 7 46.6667V44.3333C7 43.6722 7.224 43.1184 7.672 42.672C8.12 42.2255 8.67378 42.0015 9.33333 42C9.99289 41.9984 10.5474 42.2224 10.997 42.672C11.4466 43.1215 11.6698 43.6753 11.6667 44.3333V46.6667C11.6667 47.3278 11.4427 47.8823 10.9947 48.3303C10.5467 48.7783 9.99289 49.0015 9.33333 49ZM18.6667 49C18.0056 49 17.4518 48.776 17.0053 48.328C16.5589 47.88 16.3349 47.3262 16.3333 46.6667V33.8333C16.3333 33.1722 16.5573 32.6184 17.0053 32.172C17.4533 31.7255 18.0071 31.5015 18.6667 31.5C19.3262 31.4984 19.8808 31.7224 20.3303 32.172C20.7799 32.6215 21.0031 33.1753 21 33.8333V46.6667C21 47.3278 20.776 47.8823 20.328 48.3303C19.88 48.7783 19.3262 49.0015 18.6667 49ZM28 49C27.3389 49 26.7851 48.776 26.3387 48.328C25.8922 47.88 25.6682 47.3262 25.6667 46.6667V38.5C25.6667 37.8389 25.8907 37.2851 26.3387 36.8387C26.7867 36.3922 27.3404 36.1682 28 36.1667C28.6596 36.1651 29.2141 36.3891 29.6637 36.8387C30.1132 37.2882 30.3364 37.842 30.3333 38.5V46.6667C30.3333 47.3278 30.1093 47.8823 29.6613 48.3303C29.2133 48.7783 28.6596 49.0015 28 49ZM37.3333 49C36.6722 49 36.1184 48.776 35.672 48.328C35.2256 47.88 35.0016 47.3262 35 46.6667V35C35 34.3389 35.224 33.7851 35.672 33.3387C36.12 32.8922 36.6738 32.6682 37.3333 32.6667C37.9929 32.6651 38.5474 32.8891 38.997 33.3387C39.4466 33.7882 39.6698 34.342 39.6667 35V46.6667C39.6667 47.3278 39.4427 47.8823 38.9947 48.3303C38.5467 48.7783 37.9929 49.0015 37.3333 49ZM46.6667 49C46.0056 49 45.4518 48.776 45.0053 48.328C44.5589 47.88 44.3349 47.3262 44.3333 46.6667V25.6667C44.3333 25.0055 44.5573 24.4518 45.0053 24.0053C45.4533 23.5589 46.0071 23.3349 46.6667 23.3333C47.3262 23.3318 47.8808 23.5558 48.3303 24.0053C48.7799 24.4549 49.0031 25.0087 49 25.6667V46.6667C49 47.3278 48.776 47.8823 48.328 48.3303C47.88 48.7783 47.3262 49.0015 46.6667 49ZM32.6667 27.9417C32.0444 27.9417 31.451 27.825 30.8863 27.5917C30.3217 27.3583 29.8068 27.0278 29.3417 26.6L23.3333 20.5917L10.9667 32.9583C10.5 33.425 9.94622 33.649 9.30533 33.6303C8.66444 33.6117 8.10989 33.3682 7.64167 32.9C7.21389 32.4333 7.01011 31.8795 7.03033 31.2387C7.05056 30.5978 7.27378 30.0627 7.7 29.6333L20.0083 17.325C20.475 16.8583 20.9907 16.5184 21.5553 16.3053C22.12 16.0922 22.7127 15.9849 23.3333 15.9833C23.954 15.9818 24.5568 16.0891 25.1417 16.3053C25.7266 16.5215 26.2321 16.8614 26.6583 17.325L32.6667 23.3333L45.0333 10.9667C45.5 10.5 46.0546 10.276 46.697 10.2947C47.3394 10.3133 47.8932 10.5568 48.3583 11.025C48.7861 11.4917 48.9907 12.0462 48.972 12.6887C48.9533 13.3311 48.7293 13.8654 48.3 14.2917L35.9917 26.6C35.5639 27.0278 35.0583 27.3583 34.475 27.5917C33.8917 27.825 33.2889 27.9417 32.6667 27.9417Z" fill="white"/>
</svg>
