<svg width="20" height="24" viewBox="0 0 20 24" fill="none" xmlns="http://www.w3.org/2000/svg">
<path d="M6.27222 21.2113C6.51226 22.0172 7.00463 22.7238 7.6762 23.2262C8.34777 23.7286 9.16272 24 10 24C10.8373 24 11.6522 23.7286 12.3238 23.2262C12.9954 22.7238 13.4877 22.0172 13.7278 21.2113H6.27222ZM0 20.0949H20V16.7457L17.7778 13.3966V7.81467C17.7778 6.78844 17.5766 5.77225 17.1857 4.82413C16.7949 3.87601 16.222 3.01452 15.4997 2.28886C14.7775 1.56321 13.9201 0.987581 12.9764 0.594857C12.0328 0.202132 11.0214 0 10 0C8.97861 0 7.96722 0.202132 7.02357 0.594857C6.07993 0.987581 5.22251 1.56321 4.50028 2.28886C3.77805 3.01452 3.20514 3.87601 2.81427 4.82413C2.4234 5.77225 2.22222 6.78844 2.22222 7.81467V13.3966L0 16.7457V20.0949Z" fill="#0E1726"/>
</svg>
