<svg width="34" height="34" viewBox="0 0 34 34" fill="none" xmlns="http://www.w3.org/2000/svg">
<path d="M15.5833 21.25C19.8333 21.25 26.9167 26.9167 26.9167 26.9167V4.25C26.9167 4.25 19.8333 9.91667 15.5833 9.91667M15.5833 21.25V9.91667M15.5833 21.25H8.5C5.37059 21.25 2.83334 19.9906 2.83334 15.5833C2.83334 11.1761 5.37059 9.91667 8.5 9.91667H15.5833M7.08334 21.25L11.3333 32.5833H17L12.75 21.25M26.9167 19.8333C27.4748 19.8333 28.0274 19.7234 28.5431 19.5098C29.0587 19.2962 29.5272 18.9832 29.9219 18.5885C30.3165 18.1939 30.6296 17.7254 30.8432 17.2097C31.0567 16.6941 31.1667 16.1415 31.1667 15.5833C31.1667 15.0252 31.0567 14.4726 30.8432 13.9569C30.6296 13.4413 30.3165 12.9728 29.9219 12.5781C29.5272 12.1835 29.0587 11.8704 28.5431 11.6568C28.0274 11.4433 27.4748 11.3333 26.9167 11.3333M15.5833 26.9167C17 26.9167 19.8333 25.5 19.8333 22.6667" stroke="white" stroke-width="2"/>
</svg>
