<svg width="30" height="36" viewBox="0 0 30 36" fill="none" xmlns="http://www.w3.org/2000/svg">
<path d="M14.625 0L0 6.5V16.25C0 25.2688 6.24 33.7025 14.625 35.75C23.01 33.7025 29.25 25.2688 29.25 16.25V6.5L14.625 0ZM14.625 9.75C16.9 9.75 19.175 11.5375 19.175 13.8125V16.25C20.15 16.25 21.125 17.225 21.125 18.3625V24.05C21.125 25.025 20.15 26 19.0125 26H10.075C9.1 26 8.125 25.025 8.125 23.8875V18.2C8.125 17.225 9.1 16.25 10.075 16.25V13.8125C10.075 11.5375 12.35 9.75 14.625 9.75ZM14.625 11.7C13.325 11.7 12.1875 12.5125 12.1875 13.8125V16.25H17.0625V13.8125C17.0625 12.5125 15.925 11.7 14.625 11.7Z" fill="white"/>
</svg>
