<svg width="22" height="22" viewBox="0 0 22 22" fill="none" xmlns="http://www.w3.org/2000/svg">
<path d="M9.625 12.8332C9.92383 12.2346 10.3391 11.9165 11 11.9165C11.6692 11.9165 12.375 12.3345 12.375 13.0623C12.375 13.6948 11.8617 14.2082 11.2292 14.2082C11.8617 14.2082 12.375 14.7215 12.375 15.354C12.375 16.0818 11.6692 16.4998 11 16.4998C10.3391 16.4998 9.92383 16.1818 9.625 15.5832" stroke="#CD7F32" stroke-width="1.5" stroke-linecap="round" stroke-linejoin="round"/>
<path d="M11 20.1667C14.2907 20.1667 16.9583 17.499 16.9583 14.2083C16.9583 10.9176 14.2907 8.25 11 8.25C7.70926 8.25 5.04163 10.9176 5.04163 14.2083C5.04163 17.499 7.70926 20.1667 11 20.1667Z" stroke="#CD7F32" stroke-width="1.5"/>
<path d="M8.24996 8.70825L5.04163 1.83325M13.75 8.70825L16.9583 1.83325M13.75 1.83325L12.8333 4.12492M11.4583 8.24992L8.70829 1.83325" stroke="#CD7F32" stroke-width="1.5" stroke-linecap="round" stroke-linejoin="round"/>
</svg>
