<svg width="23" height="23" viewBox="0 0 23 23" fill="none" xmlns="http://www.w3.org/2000/svg">
<path d="M17.3428 10.1712L18.5525 2.26921C18.5822 2.04437 18.5262 1.84964 18.3843 1.68478C18.2423 1.51991 18.0665 1.43748 17.8567 1.43748H5.14333V1.43726H5.14198C4.93242 1.43726 4.75678 1.51969 4.61438 1.68455C4.47197 1.84941 4.41604 2.04415 4.44614 2.26898L5.65611 10.1728C4.79631 11.3592 4.34821 12.7598 4.3125 14.375C4.35742 16.4115 5.05753 18.1073 6.4126 19.4624C7.76767 20.8175 9.46347 21.5173 11.5 21.5625C13.5365 21.5176 15.2323 20.8175 16.5874 19.4624C17.9425 18.1071 18.6424 16.4115 18.6875 14.375C18.6518 12.7591 18.2032 11.358 17.3428 10.1712ZM14.3752 2.87498H17.0036L16.1274 8.58051C15.6613 8.34152 15.2123 8.13735 14.7811 7.96777C14.6481 7.90039 14.5127 7.8375 14.375 7.77888V2.87498H14.3752ZM12.9375 2.87498V7.33932C12.6415 7.28137 12.3369 7.23981 12.024 7.21466C11.8428 7.19669 11.668 7.18771 11.5 7.18771C11.2633 7.18771 11.0263 7.20253 10.7893 7.23173C10.5456 7.25656 10.303 7.29246 10.0625 7.33932V2.87498H12.9375ZM8.625 2.87498H8.6259V7.7782C8.48619 7.83795 8.34873 7.90174 8.21352 7.97047C7.78384 8.13982 7.33709 8.34332 6.8735 8.58051L5.9973 2.87498H8.625ZM15.5652 18.4402C14.4871 19.5183 13.132 20.0798 11.5 20.125C9.86799 20.0798 8.51292 19.5183 7.4348 18.4402C6.35667 17.3621 5.79515 16.007 5.75 14.375C5.79515 12.743 6.35667 11.3879 7.4348 10.3098C7.8766 9.86797 8.3649 9.51309 8.8997 9.2449C9.76063 8.90709 10.4978 8.70764 11.1108 8.64632C11.2246 8.63711 11.3399 8.6306 11.4564 8.62655C11.4706 8.62633 11.4852 8.62588 11.4993 8.62588C11.5142 8.62588 11.5296 8.62655 11.5447 8.62678C11.6595 8.6306 11.7727 8.63711 11.8845 8.64609C12.5 8.70696 13.2405 8.90776 14.1061 9.24782C14.6387 9.51578 15.125 9.86977 15.5652 10.31C16.6433 11.3881 17.2049 12.7432 17.25 14.3752C17.2049 16.007 16.6433 17.3621 15.5652 18.4402Z" fill="#FFD700"/>
<path d="M12.2188 10.7812H9.34375V12.2188H10.7812V16.5312H9.34375V17.9688H13.6562V16.5312H12.2188V10.7812Z" fill="#FFD700"/>
</svg>
