<svg width="22" height="22" viewBox="0 0 22 22" fill="none" xmlns="http://www.w3.org/2000/svg">
<path d="M9.625 12.8332L10.1108 12.3089C10.2445 12.1732 10.406 12.0681 10.5843 12.0009C10.7625 11.9337 10.9532 11.906 11.1432 11.9197C11.3332 11.9333 11.518 11.9881 11.6847 12.0801C11.8515 12.1722 11.9963 12.2993 12.1092 12.4528C12.4877 12.9634 12.4584 13.672 12.0404 14.1486L9.625 16.4999H12.3127" stroke="#C0C0C0" stroke-width="1.5" stroke-linecap="round" stroke-linejoin="round"/>
<path d="M11 20.1667C14.2907 20.1667 16.9583 17.499 16.9583 14.2083C16.9583 10.9176 14.2907 8.25 11 8.25C7.70926 8.25 5.04163 10.9176 5.04163 14.2083C5.04163 17.499 7.70926 20.1667 11 20.1667Z" stroke="#C0C0C0" stroke-width="1.5"/>
<path d="M8.24996 8.70825L5.04163 1.83325M13.75 8.70825L16.9583 1.83325M13.75 1.83325L12.8333 4.12492M11.4583 8.24992L8.70829 1.83325" stroke="#C0C0C0" stroke-width="1.5" stroke-linecap="round" stroke-linejoin="round"/>
</svg>
