<svg width="24" height="24" viewBox="0 0 24 24" fill="none" xmlns="http://www.w3.org/2000/svg">
<path d="M12 22C10.6166 22 9.31662 21.7373 8.09995 21.212C6.88329 20.6867 5.82495 19.9743 4.92495 19.075C4.02495 18.1757 3.31262 17.1173 2.78795 15.9C2.26328 14.6827 2.00062 13.3827 1.99995 12C1.99995 10.9667 2.14162 9.98767 2.42495 9.063C2.70828 8.13833 3.11662 7.27567 3.64995 6.475L1.37495 4.2C1.17495 4 1.07495 3.76267 1.07495 3.488C1.07495 3.21333 1.17495 2.97567 1.37495 2.775C1.57495 2.57433 1.81262 2.47433 2.08795 2.475C2.36328 2.47567 2.60062 2.57567 2.79995 2.775L21.2 21.175C21.4 21.375 21.5 21.6083 21.5 21.875C21.5 22.1417 21.4 22.375 21.2 22.575C21 22.775 20.7626 22.875 20.488 22.875C20.2133 22.875 19.9756 22.775 19.775 22.575L17.525 20.35C16.7249 20.8833 15.8626 21.2917 14.938 21.575C14.0133 21.8583 13.034 22 12 22ZM16.95 8.85C16.75 8.65 16.5126 8.55 16.238 8.55C15.9633 8.55 15.734 8.65 15.55 8.85L13.65 10.775L7.69995 4.825C7.39995 4.525 7.27895 4.16233 7.33695 3.737C7.39495 3.31167 7.61595 3.008 7.99995 2.826C8.61662 2.55933 9.25828 2.35533 9.92495 2.214C10.5916 2.07267 11.2833 2.00133 12 2C13.3833 2 14.6833 2.26267 15.9 2.788C17.1166 3.31333 18.175 4.02567 19.075 4.925C19.975 5.82433 20.6876 6.88267 21.2129 8.1C21.7383 9.31733 22.0006 10.6173 22 12C22 12.7167 21.929 13.4083 21.787 14.075C21.645 14.7417 21.4413 15.3833 21.176 16C21.0093 16.3833 20.7133 16.6083 20.288 16.675C19.8626 16.7417 19.492 16.6167 19.176 16.3L15.051 12.15L16.951 10.25C17.1343 10.0667 17.226 9.83333 17.226 9.55C17.226 9.26667 17.1333 9.03333 16.95 8.85ZM7.05095 13.05L9.89995 15.9C10.1 16.1 10.3333 16.2 10.6 16.2C10.8666 16.2 11.1 16.1 11.3 15.9L12.2 15L10.8 13.6L10.6 13.8L8.44995 11.65C8.26662 11.4667 8.03328 11.375 7.74995 11.375C7.46662 11.375 7.23328 11.4667 7.04995 11.65C6.86662 11.8333 6.77495 12.0667 6.77495 12.35C6.77495 12.6333 6.86762 12.8667 7.05095 13.05Z" fill="#B6241C"/>
</svg>
