<svg width="38" height="38" viewBox="0 0 38 38" fill="none" xmlns="http://www.w3.org/2000/svg">
<path d="M19 16.8678C21.775 16.8678 24.0245 14.6466 24.0245 11.9067C24.0245 9.16672 21.775 6.94556 19 6.94556C16.2251 6.94556 13.9756 9.16672 13.9756 11.9067C13.9756 14.6466 16.2251 16.8678 19 16.8678Z" fill="#B14B3A"/>
<path d="M11.3791 12.4027H11.8858V11.9488C11.8889 10.629 12.2612 9.3363 12.9608 8.21705C13.6603 7.09781 14.6591 6.19665 15.8441 5.61551C15.4933 4.80755 14.9302 4.10969 14.2146 3.59606C13.499 3.08243 12.6577 2.7722 11.7799 2.69833C10.9022 2.62446 10.0208 2.78971 9.22945 3.17651C8.43808 3.56332 7.76625 4.15724 7.28532 4.89521C6.80439 5.63317 6.53231 6.48761 6.49799 7.36779C6.46366 8.24796 6.66837 9.121 7.09037 9.89417C7.51237 10.6673 8.13591 11.3118 8.89475 11.759C9.6536 12.2063 10.5194 12.4397 11.4002 12.4344L11.3791 12.4027ZM26.1358 11.9066V12.3605H26.6425C27.5116 12.3518 28.3622 12.1089 29.1049 11.6575C29.8476 11.2061 30.4549 10.5628 30.8628 9.7953C31.2708 9.02784 31.4642 8.16459 31.4229 7.29643C31.3816 6.42828 31.107 5.58732 30.628 4.86207C30.149 4.13682 29.4834 3.55411 28.7012 3.17527C27.9189 2.79644 27.049 2.63549 26.183 2.70936C25.317 2.78323 24.487 3.0892 23.7802 3.59506C23.0734 4.10091 22.5161 4.78795 22.1669 5.58384C23.3523 6.1627 24.3522 7.06158 25.0536 8.1789C25.7549 9.29622 26.1298 10.5874 26.1358 11.9066ZM23.5286 17.3638C25.6271 17.7799 27.6563 18.4907 29.5558 19.475C29.8235 19.6218 30.0658 19.8107 30.2736 20.0344H35.8891V16.4244C35.8901 16.2859 35.8533 16.1498 35.7826 16.0308C35.7119 15.9117 35.6101 15.8142 35.488 15.7488C32.7522 14.3178 29.7088 13.5751 26.6213 13.585H25.9247C25.5589 15.0719 24.7175 16.3988 23.5286 17.3638ZM6.89302 22.0822C6.89109 21.5506 7.03465 21.0286 7.30817 20.5727C7.58168 20.1169 7.97471 19.7445 8.44468 19.4961C10.3442 18.5118 12.3734 17.801 14.4719 17.385C13.2887 16.4281 12.4479 15.1132 12.0758 13.6377H11.3791C8.29166 13.6279 5.2483 14.3706 2.51246 15.8016C2.3904 15.867 2.28853 15.9645 2.21784 16.0835C2.14715 16.2026 2.11033 16.3387 2.11135 16.4772V23.2222H6.89302V22.0822ZM22.6525 28.1727H28.9436V29.6505H22.6525V28.1727Z" fill="#B14B3A"/>
<path d="M34.6328 22.441H27.3811V21.3855C27.3811 21.1055 27.2699 20.837 27.072 20.6391C26.874 20.4411 26.6055 20.3299 26.3256 20.3299C26.0456 20.3299 25.7772 20.4411 25.5792 20.6391C25.3812 20.837 25.27 21.1055 25.27 21.3855V22.441H23.2223V19.4538C21.8337 19.161 20.4191 19.0089 19 18.9999C15.6686 18.9873 12.3849 19.7919 9.4367 21.3432C9.30541 21.4113 9.1955 21.5144 9.11912 21.6411C9.04275 21.7678 9.00288 21.9131 9.00393 22.061V27.9827H16.5089V34.411C16.5089 34.691 16.6201 34.9594 16.8181 35.1574C17.016 35.3554 17.2845 35.4666 17.5645 35.4666H34.6328C34.9128 35.4666 35.1812 35.3554 35.3792 35.1574C35.5772 34.9594 35.6884 34.691 35.6884 34.411V23.4966C35.6884 23.2166 35.5772 22.9481 35.3792 22.7502C35.1812 22.5522 34.9128 22.441 34.6328 22.441ZM33.5773 33.3766H18.62V24.5521H25.27V25.5127C25.27 25.7926 25.3812 26.0611 25.5792 26.2591C25.7772 26.457 26.0456 26.5682 26.3256 26.5682C26.6055 26.5682 26.874 26.457 27.072 26.2591C27.2699 26.0611 27.3811 25.7926 27.3811 25.5127V24.5521H33.5773V33.3766Z" fill="#B14B3A"/>
</svg>
