<svg width="39" height="39" viewBox="0 0 39 39" fill="none" xmlns="http://www.w3.org/2000/svg">
<path d="M35.75 19.5C35.75 21.7479 35.3232 23.8604 34.4695 25.8375C33.6158 27.8146 32.4583 29.5344 30.9969 30.9969C29.5355 32.4594 27.8157 33.6175 25.8375 34.4711C23.8593 35.3248 21.7468 35.7511 19.5 35.75C17.4146 35.75 15.4375 35.3779 13.5688 34.6336C11.7 33.8894 10.0479 32.8602 8.6125 31.5461C7.17708 30.232 5.99246 28.6812 5.05862 26.8937C4.12479 25.1062 3.549 23.1833 3.33125 21.125C3.27708 20.6375 3.406 20.2583 3.718 19.9875C4.03 19.7167 4.38858 19.5677 4.79375 19.5406C5.19892 19.5135 5.59162 19.6219 5.97187 19.8656C6.35212 20.1094 6.56879 20.5292 6.62187 21.125C7.02812 24.4021 8.45704 27.124 10.9086 29.2906C13.3602 31.4573 16.224 32.5406 19.5 32.5406C23.1292 32.5406 26.2031 31.2813 28.7219 28.7625C31.2406 26.2438 32.5 23.1698 32.5 19.5406C32.5 15.9115 31.2406 12.8375 28.7219 10.3187C26.2031 7.8 23.1292 6.54063 19.5 6.54063C17.0896 6.54063 14.9023 7.12996 12.9382 8.30862C10.9742 9.48729 9.42392 11.0511 8.2875 13H11.375C11.8354 13 12.2216 13.156 12.5336 13.468C12.8456 13.78 13.0011 14.1657 13 14.625C12.9989 15.0843 12.8429 15.4705 12.532 15.7836C12.2211 16.0967 11.8354 16.2522 11.375 16.25H4.875C4.41458 16.25 4.02892 16.094 3.718 15.782C3.40708 15.47 3.25108 15.0843 3.25 14.625V8.125C3.25 7.66458 3.406 7.27892 3.718 6.968C4.03 6.65708 4.41567 6.50108 4.875 6.5C5.33433 6.49892 5.72054 6.65492 6.03363 6.968C6.34671 7.28108 6.50217 7.66675 6.5 8.125V9.75C7.98958 7.77292 9.85833 6.19558 12.1062 5.018C14.3542 3.84042 16.8188 3.25108 19.5 3.25C21.7479 3.25 23.8604 3.67683 25.8375 4.5305C27.8146 5.38417 29.5344 6.54171 30.9969 8.00313C32.4594 9.46454 33.6175 11.1843 34.4711 13.1625C35.3248 15.1407 35.7511 17.2532 35.75 19.5ZM16.25 26C15.7896 26 15.4039 25.844 15.093 25.532C14.7821 25.22 14.6261 24.8343 14.625 24.375V19.5C14.625 19.0396 14.781 18.6539 15.093 18.343C15.405 18.0321 15.7907 17.8761 16.25 17.875V16.25C16.25 15.3562 16.5685 14.5914 17.2055 13.9555C17.8425 13.3196 18.6073 13.0011 19.5 13C20.3927 12.9989 21.158 13.3174 21.7961 13.9555C22.4342 14.5936 22.7522 15.3584 22.75 16.25V17.875C23.2104 17.875 23.5966 18.031 23.9086 18.343C24.2206 18.655 24.3761 19.0407 24.375 19.5V24.375C24.375 24.8354 24.219 25.2216 23.907 25.5336C23.595 25.8456 23.2093 26.0011 22.75 26H16.25ZM17.875 17.875H21.125V16.25C21.125 15.7896 20.969 15.4039 20.657 15.093C20.345 14.7821 19.9593 14.6261 19.5 14.625C19.0407 14.6239 18.655 14.7799 18.343 15.093C18.031 15.4061 17.875 15.7917 17.875 16.25V17.875Z" fill="#5B687A"/>
</svg>
