<svg width="34" height="34" viewBox="0 0 34 34" fill="none" xmlns="http://www.w3.org/2000/svg">
<path fill-rule="evenodd" clip-rule="evenodd" d="M19.8107 3.60115C19.9339 3.84056 19.9651 4.14798 20.026 4.76281C20.1422 5.92448 20.2003 6.50531 20.4439 6.82548C20.5957 7.02427 20.7975 7.17932 21.0286 7.27487C21.2598 7.37042 21.5121 7.40306 21.76 7.36948C22.1567 7.31706 22.61 6.94731 23.5138 6.20781C23.9913 5.8154 24.2307 5.6199 24.4871 5.53773C24.8137 5.43337 25.167 5.45099 25.4816 5.58731C25.7295 5.69498 25.9491 5.91315 26.384 6.34948L27.6505 7.61598C28.0868 8.05231 28.305 8.27048 28.4127 8.5184C28.549 8.83298 28.5666 9.18632 28.4623 9.5129C28.3801 9.76931 28.1846 10.0087 27.7936 10.4861C27.0527 11.3914 26.6829 11.8433 26.6291 12.2414C26.5959 12.4892 26.6289 12.7413 26.7247 12.9722C26.8205 13.2031 26.9757 13.4045 27.1745 13.5561C27.4933 13.7997 28.0755 13.8578 29.2386 13.974C29.852 14.0349 30.1594 14.0661 30.4003 14.1893C30.7041 14.3468 30.9406 14.609 31.0661 14.9274C31.1667 15.1781 31.1667 15.487 31.1667 16.1046V17.8953C31.1667 18.513 31.1667 18.8218 31.0675 19.0711C30.9416 19.3905 30.704 19.6533 30.3988 19.8106C30.1594 19.9339 29.852 19.9651 29.2372 20.026C28.0755 20.1421 27.4947 20.2002 27.1745 20.4439C26.9757 20.5957 26.8207 20.7975 26.7251 21.0286C26.6296 21.2598 26.5969 21.5121 26.6305 21.76C26.6843 22.1566 27.0541 22.61 27.7936 23.5138C28.1846 23.9912 28.3801 24.2292 28.4623 24.4871C28.5666 24.8136 28.549 25.167 28.4127 25.4816C28.305 25.7295 28.0868 25.9476 27.6505 26.384L26.384 27.6491C25.9477 28.0868 25.7295 28.305 25.4816 28.4112C25.167 28.5476 24.8137 28.5652 24.4871 28.4608C24.2307 28.3786 23.9913 28.1831 23.5138 27.7921C22.6086 27.0526 22.1567 26.6829 21.76 26.6305C21.5121 26.5969 21.2598 26.6295 21.0286 26.7251C20.7975 26.8206 20.5957 26.9757 20.4439 27.1745C20.2003 27.4932 20.1422 28.0741 20.026 29.2371C19.9651 29.852 19.9339 30.1594 19.8107 30.3988C19.6537 30.7037 19.3914 30.9413 19.0726 31.0675C18.8218 31.1666 18.513 31.1666 17.8953 31.1666H16.1047C15.487 31.1666 15.1782 31.1666 14.9288 31.0675C14.6095 30.9416 14.3467 30.7039 14.1893 30.3988C14.0661 30.1594 14.0349 29.852 13.974 29.2371C13.8578 28.0755 13.7998 27.4946 13.5561 27.1745C13.4044 26.9759 13.2029 26.821 12.972 26.7255C12.7411 26.6299 12.4891 26.5972 12.2414 26.6305C11.8433 26.6829 11.3914 27.0526 10.4862 27.7921C10.0088 28.1846 9.76934 28.3801 9.51292 28.4622C9.18634 28.5666 8.833 28.549 8.51842 28.4126C8.2705 28.305 8.05092 28.0868 7.616 27.6505L6.3495 26.384C5.91317 25.9476 5.695 25.7295 5.58734 25.4816C5.45101 25.167 5.4334 24.8136 5.53775 24.4871C5.61992 24.2306 5.81542 23.9912 6.20642 23.5138C6.94734 22.6086 7.31709 22.1566 7.3695 21.7586C7.40282 21.5109 7.37005 21.2589 7.27451 21.028C7.17897 20.7971 7.02406 20.5956 6.8255 20.4439C6.50675 20.2002 5.9245 20.1421 4.76142 20.026C4.148 19.9651 3.84059 19.9339 3.59975 19.8106C3.29594 19.6531 3.05943 19.3909 2.93392 19.0726C2.83334 18.8218 2.83334 18.513 2.83334 17.8953V16.1046C2.83334 15.487 2.83334 15.1781 2.9325 14.9288C3.05843 14.6094 3.29604 14.3467 3.60117 14.1893C3.84059 14.0661 4.148 14.0349 4.76284 13.974C5.9245 13.8578 6.50675 13.7997 6.8255 13.5561C7.02432 13.4045 7.17951 13.2031 7.2753 12.9722C7.37109 12.7413 7.40408 12.4892 7.37092 12.2414C7.31709 11.8433 6.94592 11.3914 6.20642 10.4847C5.81542 10.0073 5.61992 9.76931 5.53775 9.51148C5.4334 9.1849 5.45101 8.83156 5.58734 8.51698C5.695 8.27048 5.91317 8.0509 6.3495 7.61456L7.616 6.34948C8.05234 5.91315 8.2705 5.69356 8.51842 5.58731C8.833 5.45099 9.18634 5.43337 9.51292 5.53773C9.76934 5.6199 10.0088 5.8154 10.4862 6.2064C11.3914 6.9459 11.8433 7.31565 12.24 7.36948C12.4882 7.40316 12.7409 7.37043 12.9724 7.27462C13.2038 7.1788 13.4057 7.02334 13.5575 6.82406C13.7983 6.50531 13.8578 5.92448 13.974 4.7614C14.0349 4.14798 14.0661 3.84056 14.1893 3.59973C14.3466 3.29539 14.6088 3.05834 14.9274 2.93248C15.1782 2.83331 15.487 2.83331 16.1047 2.83331H17.8953C18.513 2.83331 18.8218 2.83331 19.0712 2.93248C19.3905 3.0584 19.6533 3.29602 19.8107 3.60115ZM17 22.6666C18.5029 22.6666 19.9442 22.0696 21.0069 21.0069C22.0696 19.9442 22.6667 18.5029 22.6667 17C22.6667 15.4971 22.0696 14.0557 21.0069 12.993C19.9442 11.9303 18.5029 11.3333 17 11.3333C15.4971 11.3333 14.0558 11.9303 12.9931 12.993C11.9304 14.0557 11.3333 15.4971 11.3333 17C11.3333 18.5029 11.9304 19.9442 12.9931 21.0069C14.0558 22.0696 15.4971 22.6666 17 22.6666Z" fill="white"/>
</svg>
