<svg width="22" height="22" viewBox="0 0 22 22" fill="none" xmlns="http://www.w3.org/2000/svg">
<path d="M7.33333 12.8333C7.07361 12.8333 6.85606 12.7453 6.68067 12.5693C6.50528 12.3933 6.41728 12.1757 6.41667 11.9166C6.41606 11.6575 6.50406 11.4399 6.68067 11.2639C6.85728 11.0879 7.07483 10.9999 7.33333 10.9999C7.59183 10.9999 7.80969 11.0879 7.98692 11.2639C8.16414 11.4399 8.25183 11.6575 8.25 11.9166C8.24817 12.1757 8.16017 12.3936 7.986 12.5702C7.81183 12.7468 7.59428 12.8345 7.33333 12.8333ZM11 12.8333C10.7403 12.8333 10.5227 12.7453 10.3473 12.5693C10.1719 12.3933 10.0839 12.1757 10.0833 11.9166C10.0827 11.6575 10.1707 11.4399 10.3473 11.2639C10.5239 11.0879 10.7415 10.9999 11 10.9999C11.2585 10.9999 11.4764 11.0879 11.6536 11.2639C11.8308 11.4399 11.9185 11.6575 11.9167 11.9166C11.9148 12.1757 11.8268 12.3936 11.6527 12.5702C11.4785 12.7468 11.2609 12.8345 11 12.8333ZM14.6667 12.8333C14.4069 12.8333 14.1894 12.7453 14.014 12.5693C13.8386 12.3933 13.7506 12.1757 13.75 11.9166C13.7494 11.6575 13.8374 11.4399 14.014 11.2639C14.1906 11.0879 14.4082 10.9999 14.6667 10.9999C14.9252 10.9999 15.143 11.0879 15.3202 11.2639C15.4975 11.4399 15.5852 11.6575 15.5833 11.9166C15.5815 12.1757 15.4935 12.3936 15.3193 12.5702C15.1452 12.7468 14.9276 12.8345 14.6667 12.8333ZM4.58333 20.1666C4.07917 20.1666 3.64772 19.9872 3.289 19.6285C2.93028 19.2698 2.75061 18.838 2.75 18.3333V5.49992C2.75 4.99575 2.92967 4.56431 3.289 4.20559C3.64833 3.84687 4.07978 3.6672 4.58333 3.66659H5.5V2.74992C5.5 2.4902 5.588 2.27264 5.764 2.09726C5.94 1.92187 6.15756 1.83387 6.41667 1.83326C6.67578 1.83264 6.89364 1.92064 7.07025 2.09726C7.24686 2.27387 7.33456 2.49142 7.33333 2.74992V3.66659H14.6667V2.74992C14.6667 2.4902 14.7547 2.27264 14.9307 2.09726C15.1067 1.92187 15.3242 1.83387 15.5833 1.83326C15.8424 1.83264 16.0603 1.92064 16.2369 2.09726C16.4135 2.27387 16.5012 2.49142 16.5 2.74992V3.66659H17.4167C17.9208 3.66659 18.3526 3.84625 18.7119 4.20559C19.0713 4.56492 19.2506 4.99637 19.25 5.49992V18.3333C19.25 18.8374 19.0706 19.2692 18.7119 19.6285C18.3532 19.9878 17.9214 20.1672 17.4167 20.1666H4.58333ZM4.58333 18.3333H17.4167V9.16659H4.58333V18.3333Z" fill="#9CA3AF"/>
</svg>
