<svg width="15" height="15" viewBox="0 0 15 15" fill="none" xmlns="http://www.w3.org/2000/svg">
<path d="M12.4688 13.125C11.1667 13.125 9.88021 12.8413 8.60938 12.2738C7.33854 11.7063 6.18229 10.9015 5.14063 9.85938C4.09896 8.81729 3.29437 7.66104 2.72687 6.39062C2.15937 5.12021 1.87542 3.83375 1.875 2.53125C1.875 2.34375 1.9375 2.1875 2.0625 2.0625C2.1875 1.9375 2.34375 1.875 2.53125 1.875H5.0625C5.20833 1.875 5.33854 1.92458 5.45313 2.02375C5.56771 2.12292 5.63542 2.24 5.65625 2.375L6.0625 4.5625C6.08333 4.72917 6.07812 4.86979 6.04688 4.98438C6.01562 5.09896 5.95833 5.19792 5.875 5.28125L4.35938 6.8125C4.56771 7.19792 4.815 7.57021 5.10125 7.92938C5.3875 8.28854 5.70271 8.635 6.04688 8.96875C6.36979 9.29167 6.70833 9.59125 7.0625 9.8675C7.41667 10.1438 7.79167 10.3962 8.1875 10.625L9.65625 9.15625C9.75 9.0625 9.8725 8.99229 10.0238 8.94562C10.175 8.89896 10.3233 8.88583 10.4688 8.90625L12.625 9.34375C12.7708 9.38542 12.8906 9.46104 12.9844 9.57062C13.0781 9.68021 13.125 9.8025 13.125 9.9375V12.4688C13.125 12.6563 13.0625 12.8125 12.9375 12.9375C12.8125 13.0625 12.6563 13.125 12.4688 13.125Z" fill="#5B687A"/>
</svg>
