<svg width="22" height="22" viewBox="0 0 22 22" fill="none" xmlns="http://www.w3.org/2000/svg">
<path d="M11.0002 1.83325C16.0629 1.83325 20.1668 5.93717 20.1668 10.9999C20.1668 16.0627 16.0629 20.1666 11.0002 20.1666C5.93741 20.1666 1.8335 16.0627 1.8335 10.9999C1.8335 5.93717 5.93741 1.83325 11.0002 1.83325ZM11.0002 3.66659C9.05524 3.66659 7.18998 4.4392 5.81471 5.81447C4.43945 7.18974 3.66683 9.055 3.66683 10.9999C3.66683 12.9448 4.43945 14.8101 5.81471 16.1854C7.18998 17.5606 9.05524 18.3333 11.0002 18.3333C12.9451 18.3333 14.8103 17.5606 16.1856 16.1854C17.5609 14.8101 18.3335 12.9448 18.3335 10.9999C18.3335 9.055 17.5609 7.18974 16.1856 5.81447C14.8103 4.4392 12.9451 3.66659 11.0002 3.66659ZM11.0002 5.49992C11.2247 5.49995 11.4414 5.58238 11.6092 5.73157C11.777 5.88077 11.8841 6.08636 11.9104 6.30934L11.9168 6.41659V10.6204L14.3982 13.1018C14.5626 13.2668 14.6581 13.4882 14.6652 13.7209C14.6723 13.9537 14.5905 14.1805 14.4365 14.3552C14.2825 14.5299 14.0677 14.6394 13.8359 14.6615C13.604 14.6835 13.3725 14.6165 13.1882 14.4741L13.1021 14.398L10.3521 11.648C10.2096 11.5054 10.1181 11.3198 10.0917 11.12L10.0835 10.9999V6.41659C10.0835 6.17347 10.1801 5.94031 10.352 5.7684C10.5239 5.5965 10.757 5.49992 11.0002 5.49992Z" fill="#9CA3AF"/>
</svg>
