<svg width="41" height="41" viewBox="0 0 41 41" fill="none" xmlns="http://www.w3.org/2000/svg">
<path d="M13.2808 8.90904L10.8071 6.43537C14.0946 4.1661 18.0736 3.12126 22.0518 3.48264C26.03 3.84403 29.7556 5.58877 32.5803 8.41328C35.405 11.2378 37.15 14.9633 37.5117 18.9415C37.8734 22.9196 36.8288 26.8987 34.5598 30.1863L32.0913 27.7178C33.7268 25.1004 34.4271 22.0059 34.0777 18.9394C33.7284 15.8728 32.35 13.0151 30.1676 10.8327C27.9852 8.65029 25.1275 7.27194 22.0609 6.92257C18.9944 6.5732 15.8982 7.27344 13.2808 8.90904ZM34.787 34.7886L32.602 36.9735L30.1882 34.558C26.9008 36.8253 22.9227 37.8686 18.9457 37.5066C14.9687 37.1445 11.2444 35.3999 8.4205 32.5762C5.5966 29.7525 3.85175 26.0284 3.48941 22.0514C3.12706 18.0744 4.17013 14.0962 6.43722 10.8087L4.02847 8.39995L6.21172 6.21329L8.41547 8.42045L10.8362 10.8343L18.7919 18.7952V11.9584H21.3544V20.9272L29.0419 25.4884L27.7606 27.5897L27.3267 27.33L34.787 34.7886ZM27.7213 32.0894L17.825 22.1947L8.91088 13.2807C7.27529 15.8981 6.57505 18.9925 6.92442 22.0591C7.27378 25.1257 8.65214 27.9833 10.8346 30.1657C13.017 32.3482 15.8746 33.7265 18.9412 34.0759C22.0078 34.4252 25.1039 33.725 27.7213 32.0894Z" fill="#5B687A"/>
</svg>
