<svg width="49" height="49" viewBox="0 0 49 49" fill="none" xmlns="http://www.w3.org/2000/svg">
<path d="M15.3125 5.54724L4.08331 12.0989V43.8959L15.3125 39.2674V5.54724ZM19.3958 38.6079L22.9687 40.717V34.1979C22.9683 31.8286 23.5787 29.4992 24.741 27.4346C25.9033 25.37 27.5782 23.6399 29.6041 22.4114V10.3942L19.3958 4.36511V38.6079ZM44.9166 5.1042V23.0954C43.3213 21.9246 41.4933 21.1101 39.556 20.7068C37.6187 20.3034 35.6175 20.3208 33.6875 20.7577V9.73265L44.9166 5.1042ZM36.75 48.3896L36.3355 48.116C35.9599 47.8689 35.5842 47.6219 35.2187 47.3565C33.8421 46.3406 32.5669 45.194 31.411 43.9326C29.3796 41.699 27.0521 38.2833 27.0521 34.1979C27.0521 32.9244 27.3029 31.6633 27.7903 30.4867C28.2776 29.3101 28.992 28.241 29.8925 27.3405C30.7931 26.4399 31.8621 25.7256 33.0387 25.2382C34.2153 24.7509 35.4764 24.5 36.75 24.5C38.0235 24.5 39.2846 24.7509 40.4612 25.2382C41.6378 25.7256 42.7069 26.4399 43.6074 27.3405C44.508 28.241 45.2223 29.3101 45.7097 30.4867C46.197 31.6633 46.4479 32.9244 46.4479 34.1979C46.4479 38.2833 44.1204 41.699 42.0889 43.9326C40.933 45.194 39.6578 46.3406 38.2812 47.3565C37.9158 47.6219 37.5401 47.8669 37.1644 48.116L36.75 48.3896ZM39.3021 32.6667H34.1979V36.75H39.3021V32.6667Z" fill="white"/>
</svg>
