<svg width="19" height="19" viewBox="0 0 19 19" fill="none" xmlns="http://www.w3.org/2000/svg">
<path d="M4.75002 15.8334C4.3146 15.8334 3.94199 15.6785 3.63219 15.3687C3.32238 15.0589 3.16721 14.686 3.16669 14.2501V12.6667C3.16669 12.4424 3.24269 12.2545 3.39469 12.1031C3.54669 11.9516 3.73458 11.8756 3.95835 11.8751C4.18213 11.8745 4.37028 11.9505 4.52281 12.1031C4.67534 12.2556 4.75108 12.4435 4.75002 12.6667V14.2501H14.25V12.6667C14.25 12.4424 14.326 12.2545 14.478 12.1031C14.63 11.9516 14.8179 11.8756 15.0417 11.8751C15.2655 11.8745 15.4536 11.9505 15.6061 12.1031C15.7587 12.2556 15.8344 12.4435 15.8334 12.6667V14.2501C15.8334 14.6855 15.6785 15.0584 15.3686 15.3687C15.0588 15.679 14.686 15.8339 14.25 15.8334H4.75002ZM8.70835 6.21464L7.22398 7.69902C7.06565 7.85735 6.87776 7.93335 6.66031 7.92702C6.44287 7.92069 6.25471 7.83809 6.09585 7.67923C5.95071 7.52089 5.87472 7.33617 5.86785 7.12506C5.86099 6.91395 5.93699 6.72923 6.09585 6.57089L8.94585 3.72089C9.02502 3.64173 9.11078 3.58578 9.20315 3.55306C9.29551 3.52034 9.39446 3.50371 9.50002 3.50319C9.60558 3.50266 9.70453 3.51928 9.7969 3.55306C9.88926 3.58684 9.97502 3.64278 10.0542 3.72089L12.9042 6.57089C13.0625 6.72923 13.1385 6.91395 13.1322 7.12506C13.1259 7.33617 13.0499 7.52089 12.9042 7.67923C12.7459 7.83756 12.558 7.92016 12.3405 7.92702C12.1231 7.93388 11.9349 7.85788 11.7761 7.69902L10.2917 6.21464V11.8751C10.2917 12.0994 10.2157 12.2875 10.0637 12.4395C9.91169 12.5915 9.7238 12.6673 9.50002 12.6667C9.27624 12.6662 9.08835 12.5902 8.93635 12.4387C8.78435 12.2873 8.70835 12.0994 8.70835 11.8751V6.21464Z" fill="#9CA3AF"/>
</svg>
