<svg width="20" height="20" viewBox="0 0 20 20" fill="none" xmlns="http://www.w3.org/2000/svg">
<path d="M4.99992 16.6667C4.54159 16.6667 4.14936 16.5036 3.82325 16.1775C3.49714 15.8514 3.33381 15.4589 3.33325 15V13.3333C3.33325 13.0972 3.41325 12.8995 3.57325 12.74C3.73325 12.5806 3.93103 12.5006 4.16659 12.5C4.40214 12.4995 4.6002 12.5795 4.76075 12.74C4.92131 12.9006 5.00103 13.0983 4.99992 13.3333V15H14.9999V13.3333C14.9999 13.0972 15.0799 12.8995 15.2399 12.74C15.3999 12.5806 15.5977 12.5006 15.8333 12.5C16.0688 12.4995 16.2669 12.5795 16.4274 12.74C16.588 12.9006 16.6677 13.0983 16.6666 13.3333V15C16.6666 15.4583 16.5035 15.8508 16.1774 16.1775C15.8513 16.5042 15.4588 16.6672 14.9999 16.6667H4.99992ZM9.16659 6.54168L7.60409 8.10418C7.43742 8.27085 7.23964 8.35085 7.01075 8.34418C6.78186 8.33751 6.58381 8.25057 6.41659 8.08335C6.26381 7.91668 6.18381 7.72223 6.17659 7.50001C6.16936 7.27779 6.24936 7.08335 6.41659 6.91668L9.41659 3.91668C9.49992 3.83335 9.5902 3.77446 9.68742 3.74001C9.78464 3.70557 9.88881 3.68807 9.99992 3.68751C10.111 3.68696 10.2152 3.70446 10.3124 3.74001C10.4096 3.77557 10.4999 3.83446 10.5833 3.91668L13.5833 6.91668C13.7499 7.08335 13.8299 7.27779 13.8233 7.50001C13.8166 7.72223 13.7366 7.91668 13.5833 8.08335C13.4166 8.25001 13.2188 8.33696 12.9899 8.34418C12.761 8.3514 12.563 8.2714 12.3958 8.10418L10.8333 6.54168V12.5C10.8333 12.7361 10.7533 12.9342 10.5933 13.0942C10.4333 13.2542 10.2355 13.3339 9.99992 13.3333C9.76436 13.3328 9.56659 13.2528 9.40659 13.0933C9.24659 12.9339 9.16659 12.7361 9.16659 12.5V6.54168Z" fill="#9CA3AF"/>
</svg>
