<svg width="18" height="18" viewBox="0 0 18 18" fill="none" xmlns="http://www.w3.org/2000/svg">
<path d="M4.5 15C4.0875 15 3.7345 14.8532 3.441 14.5597C3.1475 14.2662 3.0005 13.913 3 13.5V12C3 11.7875 3.072 11.6095 3.216 11.466C3.36 11.3225 3.538 11.2505 3.75 11.25C3.962 11.2495 4.14025 11.3215 4.28475 11.466C4.42925 11.6105 4.501 11.7885 4.5 12V13.5H13.5V12C13.5 11.7875 13.572 11.6095 13.716 11.466C13.86 11.3225 14.038 11.2505 14.25 11.25C14.462 11.2495 14.6402 11.3215 14.7847 11.466C14.9292 11.6105 15.001 11.7885 15 12V13.5C15 13.9125 14.8533 14.2657 14.5598 14.5597C14.2663 14.8537 13.913 15.0005 13.5 15H4.5ZM8.25 5.88749L6.84375 7.29374C6.69375 7.44374 6.51575 7.51574 6.30975 7.50974C6.10375 7.50374 5.9255 7.42549 5.775 7.27499C5.6375 7.12499 5.5655 6.94999 5.559 6.74999C5.5525 6.54999 5.6245 6.37499 5.775 6.22499L8.475 3.52499C8.55 3.44999 8.63125 3.39699 8.71875 3.36599C8.80625 3.33499 8.9 3.31924 9 3.31874C9.1 3.31824 9.19375 3.33399 9.28125 3.36599C9.36875 3.39799 9.45 3.45099 9.525 3.52499L12.225 6.22499C12.375 6.37499 12.447 6.54999 12.441 6.74999C12.435 6.94999 12.363 7.12499 12.225 7.27499C12.075 7.42499 11.897 7.50324 11.691 7.50974C11.485 7.51624 11.3067 7.44424 11.1562 7.29374L9.75 5.88749V11.25C9.75 11.4625 9.678 11.6407 9.534 11.7847C9.39 11.9287 9.212 12.0005 9 12C8.788 11.9995 8.61 11.9275 8.466 11.784C8.322 11.6405 8.25 11.4625 8.25 11.25V5.88749Z" fill="white"/>
</svg>
