<svg width="16" height="16" viewBox="0 0 16 16" fill="none" xmlns="http://www.w3.org/2000/svg">
<path d="M3.99984 13.3333C3.63317 13.3333 3.31939 13.2029 3.0585 12.942C2.79761 12.6811 2.66695 12.3671 2.6665 12V10.6666C2.6665 10.4777 2.7305 10.3195 2.8585 10.192C2.9865 10.0644 3.14473 10.0004 3.33317 9.99996C3.52162 9.99952 3.68006 10.0635 3.8085 10.192C3.93695 10.3204 4.00073 10.4786 3.99984 10.6666V12H11.9998V10.6666C11.9998 10.4777 12.0638 10.3195 12.1918 10.192C12.3198 10.0644 12.4781 10.0004 12.6665 9.99996C12.8549 9.99952 13.0134 10.0635 13.1418 10.192C13.2703 10.3204 13.3341 10.4786 13.3332 10.6666V12C13.3332 12.3666 13.2027 12.6806 12.9418 12.942C12.6809 13.2033 12.3669 13.3337 11.9998 13.3333H3.99984ZM7.33317 5.23329L6.08317 6.48329C5.94984 6.61663 5.79162 6.68063 5.6085 6.67529C5.42539 6.66996 5.26695 6.60041 5.13317 6.46663C5.01095 6.33329 4.94695 6.17774 4.94117 5.99996C4.93539 5.82218 4.99939 5.66663 5.13317 5.53329L7.53317 3.13329C7.59984 3.06663 7.67206 3.01952 7.74984 2.99196C7.82762 2.96441 7.91095 2.95041 7.99984 2.94996C8.08873 2.94952 8.17206 2.96352 8.24984 2.99196C8.32762 3.02041 8.39984 3.06752 8.4665 3.13329L10.8665 5.53329C10.9998 5.66663 11.0638 5.82218 11.0585 5.99996C11.0532 6.17774 10.9892 6.33329 10.8665 6.46663C10.7332 6.59996 10.5749 6.66952 10.3918 6.67529C10.2087 6.68107 10.0503 6.61707 9.9165 6.48329L8.6665 5.23329V9.99996C8.6665 10.1889 8.6025 10.3473 8.4745 10.4753C8.3465 10.6033 8.18828 10.6671 7.99984 10.6666C7.81139 10.6662 7.65317 10.6022 7.52517 10.4746C7.39717 10.3471 7.33317 10.1889 7.33317 9.99996V5.23329Z" fill="#9CA3AF"/>
</svg>
